<?xml version="1.0" encoding="UTF-8" standalone="no"?>
<!-- Generated by graphviz version 2.26.3 (20100126.1600)
 -->

<!-- Title: amazon Pages: 1 -->

<svg
   xmlns:dc="http://purl.org/dc/elements/1.1/"
   xmlns:cc="http://creativecommons.org/ns#"
   xmlns:rdf="http://www.w3.org/1999/02/22-rdf-syntax-ns#"
   xmlns:svg="http://www.w3.org/2000/svg"
   xmlns="http://www.w3.org/2000/svg"
   xmlns:sodipodi="http://sodipodi.sourceforge.net/DTD/sodipodi-0.dtd"
   xmlns:inkscape="http://www.inkscape.org/namespaces/inkscape"
   width="2054.4783"
   height="1286.3551"
   viewBox="0 0 1643.5826 1029.0841"
   id="svg2"
   version="1.1"
   inkscape:version="0.48.4 r9939"
   sodipodi:docname="amazon_status.svg">
  <metadata
     id="metadata361">
    <rdf:RDF>
      <cc:Work
         rdf:about="">
        <dc:format>image/svg+xml</dc:format>
        <dc:type
           rdf:resource="http://purl.org/dc/dcmitype/StillImage" />
      </cc:Work>
    </rdf:RDF>
  </metadata>
  <defs
     id="defs359">
    <marker
       inkscape:stockid="TriangleOutL"
       orient="auto"
       refY="0"
       refX="0"
       id="TriangleOutL"
       style="overflow:visible">
      <path
         id="path4500"
         d="m 5.77,0 -8.65,5 0,-10 8.65,5 z"
         style="fill-rule:evenodd;stroke:#000000;stroke-width:1pt"
         transform="scale(0.8,0.8)"
         inkscape:connector-curvature="0" />
    </marker>
    <marker
       inkscape:stockid="Arrow1Lend"
       orient="auto"
       refY="0"
       refX="0"
       id="Arrow1Lend"
       style="overflow:visible">
      <path
         id="path4361"
         d="M 0,0 5,-5 -12.5,0 5,5 0,0 z"
         style="fill-rule:evenodd;stroke:#000000;stroke-width:1pt"
         transform="matrix(-0.8,0,0,-0.8,-10,0)"
         inkscape:connector-curvature="0" />
    </marker>
    <marker
       inkscape:stockid="Arrow2Lend"
       orient="auto"
       refY="0"
       refX="0"
       id="Arrow2Lend"
       style="overflow:visible">
      <path
         id="path4379"
         style="fill-rule:evenodd;stroke-width:0.625;stroke-linejoin:round"
         d="M 8.7185878,4.0337352 -2.2072895,0.01601326 8.7185884,-4.0017078 c -1.7454984,2.3720609 -1.7354408,5.6174519 -6e-7,8.035443 z"
         transform="matrix(-1.1,0,0,-1.1,-1.1,0)"
         inkscape:connector-curvature="0" />
    </marker>
    <marker
       inkscape:stockid="Arrow2Mend"
       orient="auto"
       refY="0"
       refX="0"
       id="Arrow2Mend"
       style="overflow:visible">
      <path
         id="path4385"
         style="fill-rule:evenodd;stroke-width:0.625;stroke-linejoin:round"
         d="M 8.7185878,4.0337352 -2.2072895,0.01601326 8.7185884,-4.0017078 c -1.7454984,2.3720609 -1.7354408,5.6174519 -6e-7,8.035443 z"
         transform="scale(-0.6,-0.6)"
         inkscape:connector-curvature="0" />
    </marker>
    <marker
       inkscape:stockid="TriangleOutL"
       orient="auto"
       refY="0"
       refX="0"
       id="TriangleOutL-7"
       style="overflow:visible">
      <path
         inkscape:connector-curvature="0"
         id="path4500-4"
         d="m 5.77,0 -8.65,5 0,-10 8.65,5 z"
         style="fill-rule:evenodd;stroke:#000000;stroke-width:1pt"
         transform="scale(0.8,0.8)" />
    </marker>
  </defs>
  <sodipodi:namedview
     pagecolor="#ffffff"
     bordercolor="#666666"
     borderopacity="1"
     objecttolerance="10"
     gridtolerance="10"
     guidetolerance="10"
     inkscape:pageopacity="0"
     inkscape:pageshadow="2"
     inkscape:window-width="1855"
     inkscape:window-height="1056"
     id="namedview357"
     showgrid="false"
     fit-margin-top="0"
     fit-margin-left="0"
     fit-margin-right="0"
     fit-margin-bottom="0"
     inkscape:zoom="0.49878542"
     inkscape:cx="1175.5167"
     inkscape:cy="858.80296"
     inkscape:window-x="1985"
     inkscape:window-y="24"
     inkscape:window-maximized="1"
     inkscape:current-layer="svg2" />
  <g
     id="g5943"
     transform="translate(-2967.4871,246.67845)">
    <path
       sodipodi:nodetypes="cc"
       transform="scale(0.8,0.8)"
       inkscape:connector-curvature="0"
       id="path5929"
       d="m 4400.4082,-128.73527 28.3531,660.62829"
       style="fill:none;stroke:#000000;stroke-width:1px;stroke-linecap:butt;stroke-linejoin:miter;stroke-opacity:1" />
    <path
       sodipodi:nodetypes="cc"
       transform="scale(0.8,0.8)"
       inkscape:connector-curvature="0"
       id="path5931"
       d="m 3943.9226,222.84373 337.4023,470.66222"
       style="fill:none;stroke:#000000;stroke-width:1px;stroke-linecap:butt;stroke-linejoin:miter;stroke-opacity:1" />
    <path
       transform="scale(0.8,0.8)"
       inkscape:connector-curvature="0"
       id="path5933"
       d="M 4835.6289,358.93883 4693.8632,531.89302"
       style="fill:none;stroke:#000000;stroke-width:1px;stroke-linecap:butt;stroke-linejoin:miter;stroke-opacity:1" />
    <path
       transform="scale(0.8,0.8)"
       inkscape:connector-curvature="0"
       id="path5935"
       d="M 5535.9516,278.13236 4771.8344,693.50594"
       style="fill:none;stroke:#000000;stroke-width:1px;stroke-linecap:butt;stroke-linejoin:miter;stroke-opacity:1" />
    <path
       transform="scale(0.8,0.8)"
       inkscape:connector-curvature="0"
       id="path5937"
       d="M 4834.2113,34.295315 4686.7749,-125.89996"
       style="fill:none;stroke:#000000;stroke-width:1px;stroke-linecap:butt;stroke-linejoin:miter;stroke-opacity:1" />
    <path
       transform="scale(0.8,0.8)"
       inkscape:connector-curvature="0"
       id="path5939"
       d="M 5521.7751,31.46 4768.999,-225.13597"
       style="fill:none;stroke:#000000;stroke-width:1px;stroke-linecap:butt;stroke-linejoin:miter;stroke-opacity:1" />
    <path
       sodipodi:nodetypes="cc"
       transform="scale(0.8,0.8)"
       inkscape:connector-curvature="0"
       id="path5941"
       d="m 3948.1755,31.46 362.9202,-250.92534"
       style="fill:none;stroke:#000000;stroke-width:1px;stroke-linecap:butt;stroke-linejoin:miter;stroke-opacity:1" />
  </g>
  <g
     id="g5857"
     transform="translate(-2176.7663,253.09404)">
    <polygon
       transform="matrix(0.375661,0,0,1.6265644,2866.5088,295.91138)"
       style="fill:#dedede;stroke:#000000;stroke-width:1.53513849;stroke-miterlimit:4;stroke-dasharray:none"
       id="polygon12"
       points="8,-8 8,-172 1098,-172 1098,-8 8,-8 " />
    <text
       style="font-size:14px;text-anchor:middle;font-family:'Times Roman,serif'"
       id="text14"
       font-size="14.00"
       y="41.55751"
       x="3072.491">oscied-transform service</text>
    <g
       transform="translate(2156.5708,192.421)"
       id="node2"
       class="node">
      <title
         id="title45">oscied_transform</title>
      <polygon
         points="807,-104 803,-104 803,-100 807,-100 807,-96 1033,-96 1033,-138 1033,-138 807,-138 807,-134 803,-134 803,-130 807,-130 "
         id="polygon47"
         style="fill:#772953;stroke:#772953" />
      <polyline
         points="807,-134 811,-134 811,-130 807,-130 "
         id="polyline49"
         style="fill:none;stroke:#772953" />
      <polyline
         points="807,-104 811,-104 811,-100 807,-100 "
         id="polyline51"
         style="fill:none;stroke:#772953" />
      <text
         x="862.5"
         y="-123.733"
         font-size="14.00"
         id="text53"
         style="font-size:14px;text-anchor:start;fill:#ffffff;font-family:'Times Roman,serif'">oscied-transform</text>
      <text
         x="815"
         y="-106.933"
         font-size="14.00"
         id="text55"
         style="font-size:14px;text-anchor:start;fill:#ffffff;font-family:'Times Roman,serif'">local:raring/oscied-transform-7</text>
    </g>
    <g
       transform="matrix(1.0527859,0,0,1,2481.2292,223.13278)"
       id="node3"
       class="node">
      <title
         id="title58">oscied_transform/1</title>
      <polygon
         points="732,-58 732,-58 392,-58 392,-16 732,-16 "
         id="polygon60"
         style="fill:#dd4814;stroke:#dd4814" />
      <text
         x="497.5"
         y="-43.733299"
         font-size="14.00"
         id="text62"
         style="font-size:14px;text-anchor:start;fill:#ffffff;font-family:'Times Roman,serif'">oscied-transform/1</text>
      <text
         x="400"
         y="-26.9333"
         font-size="14.00"
         id="text64"
         style="font-size:14px;text-anchor:start;fill:#ffffff;font-family:'Times Roman,serif'">ec2-50-16-38-137.compute-1.amazonaws.com</text>
    </g>
    <g
       transform="matrix(1.0527859,0,0,1,2104.3318,169.82886)"
       id="node5"
       class="node">
      <title
         id="title74">oscied_transform/0</title>
      <polygon
         points="750,-16 1090,-16 1090,-58 1090,-58 750,-58 "
         id="polygon76"
         style="fill:#dd4814;stroke:#dd4814" />
      <text
         x="855.5"
         y="-43.733299"
         font-size="14.00"
         id="text78"
         style="font-size:14px;text-anchor:start;fill:#ffffff;font-family:'Times Roman,serif'">oscied-transform/0</text>
      <text
         x="758"
         y="-26.9333"
         font-size="14.00"
         id="text80"
         style="font-size:14px;text-anchor:start;fill:#ffffff;font-family:'Times Roman,serif'">ec2-72-44-43-150.compute-1.amazonaws.com</text>
    </g>
    <g
       transform="translate(2877.9082,276.43669)"
       id="node7"
       class="node">
      <title
         id="title90">oscied_transform/2</title>
      <polygon
         points="16,-58 16,-16 374,-16 374,-58 374,-58 "
         id="polygon92"
         style="fill:#dd4814;stroke:#dd4814" />
      <text
         x="130.5"
         y="-43.733299"
         font-size="14.00"
         id="text94"
         style="font-size:14px;text-anchor:start;fill:#ffffff;font-family:'Times Roman,serif'">oscied-transform/2</text>
      <text
         x="24"
         y="-26.9333"
         font-size="14.00"
         id="text96"
         style="font-size:14px;text-anchor:start;fill:#ffffff;font-family:'Times Roman,serif'">ec2-54-235-228-173.compute-1.amazonaws.com</text>
    </g>
  </g>
  <g
     class="edge"
     id="edge11"
     transform="translate(-2963.4871,790.67845)">
    <title
       id="title246">oscied_orchestra-&gt;oscied_transform</title>
  </g>
  <text
     x="523.84711"
     y="411.61612"
     font-size="14.00"
     id="text257"
     style="font-size:14px;text-anchor:middle;font-family:'Times Roman,serif'">storage</text>
  <g
     id="g5836"
     transform="translate(-3520.8313,526.65917)">
    <polygon
       transform="matrix(1.0407813,0,0,0.80778253,432.25081,75.242022)"
       style="fill:#dedede;stroke:#000000"
       id="polygon33"
       points="3324,-412 3324,-208 2968,-208 2968,-208 2968,-412 " />
    <text
       style="font-size:14px;text-anchor:middle;font-family:'Times Roman,serif'"
       id="text35"
       font-size="14.00"
       y="-233.70529"
       x="3707.3508">oscied-webui service</text>
    <g
       transform="translate(561.35083,161.6947)"
       id="node34"
       class="node">
      <title
         id="title267">oscied_webui</title>
      <polygon
         points="3045,-370 3045,-344 3041,-344 3041,-340 3045,-340 3045,-336 3247,-336 3247,-378 3247,-378 3045,-378 3045,-374 3041,-374 3041,-370 "
         id="polygon269"
         style="fill:#772953;stroke:#772953" />
      <polyline
         points="3045,-374 3049,-374 3049,-370 3045,-370 "
         id="polyline271"
         style="fill:none;stroke:#772953" />
      <polyline
         points="3045,-344 3049,-344 3049,-340 3045,-340 "
         id="polyline273"
         style="fill:none;stroke:#772953" />
      <text
         x="3101"
         y="-363.733"
         font-size="14.00"
         id="text275"
         style="font-size:14px;text-anchor:start;fill:#ffffff;font-family:'Times Roman,serif'">oscied-webui</text>
      <text
         x="3053.5"
         y="-346.93301"
         font-size="14.00"
         id="text277"
         style="font-size:14px;text-anchor:start;fill:#ffffff;font-family:'Times Roman,serif'">local:raring/oscied-webui-3</text>
    </g>
    <g
       transform="translate(561.35083,104.0947)"
       id="node37"
       class="node">
      <title
         id="title342">oscied_webui/0</title>
      <polygon
         points="3316,-258 3316,-258 2976,-258 2976,-216 3316,-216 "
         id="polygon344"
         style="fill:#dd4814;stroke:#dd4814" />
      <text
         x="3094.5"
         y="-243.733"
         font-size="14.00"
         id="text346"
         style="font-size:14px;text-anchor:start;fill:#ffffff;font-family:'Times Roman,serif'">oscied-webui/0</text>
      <text
         x="2984"
         y="-226.933"
         font-size="14.00"
         id="text348"
         style="font-size:14px;text-anchor:start;fill:#ffffff;font-family:'Times Roman,serif'">ec2-23-22-29-122.compute-1.amazonaws.com</text>
    </g>
  </g>
  <g
     id="g5736"
     style="stroke-width:1.20000005;stroke-miterlimit:4;stroke-dasharray:none"
     transform="translate(-3060.5131,379.80182)">
    <polygon
       transform="matrix(0.21292592,0,0,1.7786803,3281.4937,805.20611)"
       style="fill:#dedede;stroke:#000000;stroke-width:1.94992554;stroke-miterlimit:4;stroke-dasharray:none"
       id="polygon26"
       points="1106,-292 2960,-292 2960,-88 1106,-88 1106,-88 " />
    <text
       style="font-size:14px;text-anchor:middle;stroke-width:1.20000005;stroke-miterlimit:4;stroke-dasharray:none;font-family:'Times Roman,serif'"
       id="text28"
       font-size="14.00"
       y="303.85522"
       x="3714.5801">oscied-storage service</text>
    <g
       transform="translate(1310.5129,575.75552)"
       id="edge33"
       class="edge"
       style="stroke-width:1.20000005;stroke-miterlimit:4;stroke-dasharray:none">
      <title
         id="title126">oscied_storage-&gt;oscied_storage</title>
      <path
         d="m 2515.15,-244.338 c 10.91,1.47 17.85,3.916 17.85,7.338 0,3.422 -6.94,5.868 -17.85,7.338"
         id="path128"
         inkscape:connector-curvature="0"
         style="fill:none;stroke:#000000;stroke-width:1.20000005;stroke-miterlimit:4;stroke-dasharray:none" />
      <text
         x="2548.5"
         y="-233.39999"
         font-size="14.00"
         id="text130"
         style="font-size:14px;text-anchor:middle;stroke-width:1.20000005;stroke-miterlimit:4;stroke-dasharray:none;font-family:'Times Roman,serif'">peer</text>
    </g>
    <g
       transform="translate(2056.7745,728.8625)"
       id="node22"
       class="node"
       style="stroke-width:1.20000005;stroke-miterlimit:4;stroke-dasharray:none">
      <title
         id="title153">oscied_storage/4</title>
      <polygon
         points="1840,-138 1840,-138 1482,-138 1482,-96 1840,-96 "
         id="polygon155"
         style="fill:#dd4814;stroke:#dd4814;stroke-width:1.20000005;stroke-miterlimit:4;stroke-dasharray:none" />
      <text
         x="1604.5"
         y="-123.733"
         font-size="14.00"
         id="text157"
         style="font-size:14px;text-anchor:start;fill:#ffffff;stroke-width:1.20000005;stroke-miterlimit:4;stroke-dasharray:none;font-family:'Times Roman,serif'">oscied-storage/4</text>
      <text
         x="1490"
         y="-106.933"
         font-size="14.00"
         id="text159"
         style="font-size:14px;text-anchor:start;fill:#ffffff;stroke-width:1.20000005;stroke-miterlimit:4;stroke-dasharray:none;font-family:'Times Roman,serif'">ec2-54-242-176-247.compute-1.amazonaws.com</text>
    </g>
    <g
       transform="matrix(1.022792,0,0,1,1638.4326,512.24446)"
       id="node24"
       class="node"
       style="stroke-width:1.18655419;stroke-miterlimit:4;stroke-dasharray:none">
      <title
         id="title169">oscied_storage/0</title>
      <polygon
         points="2208,-138 2208,-138 1858,-138 1858,-96 2208,-96 "
         id="polygon171"
         style="fill:#dd4814;stroke:#dd4814;stroke-width:1.18655419;stroke-miterlimit:4;stroke-dasharray:none" />
      <text
         x="1976.5"
         y="-123.733"
         font-size="14.00"
         id="text173"
         style="font-size:14px;text-anchor:start;fill:#ffffff;stroke-width:1.18655419;stroke-miterlimit:4;stroke-dasharray:none;font-family:'Times Roman,serif'">oscied-storage/0</text>
      <text
         x="1866.5"
         y="-106.933"
         font-size="14.00"
         id="text175"
         style="font-size:14px;text-anchor:start;fill:#ffffff;stroke-width:1.18655419;stroke-miterlimit:4;stroke-dasharray:none;font-family:'Times Roman,serif'">ec2-54-227-38-161.compute-1.amazonaws.com</text>
    </g>
    <g
       transform="translate(1312.7745,566.39897)"
       id="node26"
       class="node"
       style="stroke-width:1.20000005;stroke-miterlimit:4;stroke-dasharray:none">
      <title
         id="title185">oscied_storage/1</title>
      <polygon
         points="2226,-96 2584,-96 2584,-138 2584,-138 2226,-138 "
         id="polygon187"
         style="fill:#dd4814;stroke:#dd4814;stroke-width:1.20000005;stroke-miterlimit:4;stroke-dasharray:none" />
      <text
         x="2348.5"
         y="-123.733"
         font-size="14.00"
         id="text189"
         style="font-size:14px;text-anchor:start;fill:#ffffff;stroke-width:1.20000005;stroke-miterlimit:4;stroke-dasharray:none;font-family:'Times Roman,serif'">oscied-storage/1</text>
      <text
         x="2234"
         y="-106.933"
         font-size="14.00"
         id="text191"
         style="font-size:14px;text-anchor:start;fill:#ffffff;stroke-width:1.20000005;stroke-miterlimit:4;stroke-dasharray:none;font-family:'Times Roman,serif'">ec2-107-21-196-203.compute-1.amazonaws.com</text>
    </g>
    <g
       transform="matrix(1.022792,0,0,1,877.47538,620.55348)"
       id="node28"
       class="node"
       style="stroke-width:1.18655419;stroke-miterlimit:4;stroke-dasharray:none">
      <title
         id="title201">oscied_storage/2</title>
      <polygon
         points="2952,-138 2952,-138 2602,-138 2602,-96 2952,-96 "
         id="polygon203"
         style="fill:#dd4814;stroke:#dd4814;stroke-width:1.18655419;stroke-miterlimit:4;stroke-dasharray:none" />
      <text
         x="2720.5"
         y="-123.733"
         font-size="14.00"
         id="text205"
         style="font-size:14px;text-anchor:start;fill:#ffffff;stroke-width:1.18655419;stroke-miterlimit:4;stroke-dasharray:none;font-family:'Times Roman,serif'">oscied-storage/2</text>
      <text
         x="2610.5"
         y="-106.933"
         font-size="14.00"
         id="text207"
         style="font-size:14px;text-anchor:start;fill:#ffffff;stroke-width:1.18655419;stroke-miterlimit:4;stroke-dasharray:none;font-family:'Times Roman,serif'">ec2-50-16-110-129.compute-1.amazonaws.com</text>
    </g>
    <g
       transform="matrix(1.022792,0,0,1,2399.3899,674.70799)"
       id="node30"
       class="node"
       style="stroke-width:1.18655419;stroke-miterlimit:4;stroke-dasharray:none">
      <title
         id="title217">oscied_storage/3</title>
      <polygon
         points="1464,-138 1114,-138 1114,-96 1464,-96 1464,-138 "
         id="polygon219"
         style="fill:#dd4814;stroke:#dd4814;stroke-width:1.18655419;stroke-miterlimit:4;stroke-dasharray:none" />
      <text
         x="1232.5"
         y="-123.733"
         font-size="14.00"
         id="text221"
         style="font-size:14px;text-anchor:start;fill:#ffffff;stroke-width:1.18655419;stroke-miterlimit:4;stroke-dasharray:none;font-family:'Times Roman,serif'">oscied-storage/3</text>
      <text
         x="1122.5"
         y="-106.933"
         font-size="14.00"
         id="text223"
         style="font-size:14px;text-anchor:start;fill:#ffffff;stroke-width:1.18655419;stroke-miterlimit:4;stroke-dasharray:none;font-family:'Times Roman,serif'">ec2-54-242-71-153.compute-1.amazonaws.com</text>
    </g>
    <g
       transform="translate(1310.5129,575.75552)"
       id="node9"
       class="node"
       style="stroke-width:1.20000005;stroke-miterlimit:4;stroke-dasharray:none">
      <title
         id="title106">oscied_storage</title>
      <polygon
         points="2295,-258 2295,-254 2291,-254 2291,-250 2295,-250 2295,-224 2291,-224 2291,-220 2295,-220 2295,-216 2515,-216 2515,-258 2515,-258 "
         id="polygon108"
         style="fill:#772953;stroke:#772953;stroke-width:1.20000005;stroke-miterlimit:4;stroke-dasharray:none" />
      <polyline
         points="2295,-254 2299,-254 2299,-250 2295,-250 "
         id="polyline110"
         style="fill:none;stroke:#772953;stroke-width:1.20000005;stroke-miterlimit:4;stroke-dasharray:none" />
      <polyline
         points="2295,-224 2299,-224 2299,-220 2295,-220 "
         id="polyline112"
         style="fill:none;stroke:#772953;stroke-width:1.20000005;stroke-miterlimit:4;stroke-dasharray:none" />
      <text
         x="2355"
         y="-243.733"
         font-size="14.00"
         id="text114"
         style="font-size:14px;text-anchor:start;fill:#ffffff;stroke-width:1.20000005;stroke-miterlimit:4;stroke-dasharray:none;font-family:'Times Roman,serif'">oscied-storage</text>
      <text
         x="2303"
         y="-226.933"
         font-size="14.00"
         id="text116"
         style="font-size:14px;text-anchor:start;fill:#ffffff;stroke-width:1.20000005;stroke-miterlimit:4;stroke-dasharray:none;font-family:'Times Roman,serif'">local:raring/oscied-storage-14</text>
    </g>
  </g>
  <g
     id="g5798"
     transform="translate(-3045.7032,4.4901413)">
    <polygon
       transform="matrix(1.0222904,0,0,0.72550207,116.51466,382.07696)"
       style="fill:#dedede;stroke:#000000;stroke-width:1.39339674;stroke-miterlimit:4;stroke-dasharray:none"
       id="polygon40"
       points="3332,-532 3698,-532 3698,-328 3332,-328 3332,-328 " />
    <text
       style="font-size:14px;text-anchor:middle;font-family:'Times Roman,serif'"
       id="text42"
       font-size="14.00"
       y="18.392845"
       x="3710.6672">oscied-orchestra service</text>
    <g
       transform="translate(264.63479,531.38703)"
       id="node11"
       class="node">
      <title
         id="title233">oscied_orchestra</title>
      <polygon
         points="3340,-490 3340,-464 3336,-464 3336,-460 3340,-460 3340,-456 3564,-456 3564,-498 3564,-498 3340,-498 3340,-494 3336,-494 3336,-490 "
         id="polygon235"
         style="fill:#772953;stroke:#772953" />
      <polyline
         points="3340,-494 3344,-494 3344,-490 3340,-490 "
         id="polyline237"
         style="fill:none;stroke:#772953" />
      <polyline
         points="3340,-464 3344,-464 3344,-460 3340,-460 "
         id="polyline239"
         style="fill:none;stroke:#772953" />
      <text
         x="3395.5"
         y="-483.733"
         font-size="14.00"
         id="text241"
         style="font-size:14px;text-anchor:start;fill:#ffffff;font-family:'Times Roman,serif'">oscied-orchestra</text>
      <text
         x="3348"
         y="-466.93301"
         font-size="14.00"
         id="text243"
         style="font-size:14px;text-anchor:start;fill:#ffffff;font-family:'Times Roman,serif'">local:raring/oscied-orchestra-7</text>
    </g>
    <g
       transform="translate(195.66726,466.59287)"
       id="node41"
       class="node">
      <title
         id="title287">oscied_orchestra/0</title>
      <polygon
         points="3690,-378 3690,-378 3340,-378 3340,-336 3690,-336 "
         id="polygon289"
         style="fill:#dd4814;stroke:#dd4814" />
      <text
         x="3452"
         y="-363.733"
         font-size="14.00"
         id="text291"
         style="font-size:14px;text-anchor:start;fill:#ffffff;font-family:'Times Roman,serif'">oscied-orchestra/0</text>
      <text
         x="3348.5"
         y="-346.93301"
         font-size="14.00"
         id="text293"
         style="font-size:14px;text-anchor:start;fill:#ffffff;font-family:'Times Roman,serif'">ec2-54-234-192-63.compute-1.amazonaws.com</text>
    </g>
  </g>
  <g
     id="g5909"
     transform="translate(-2972.2988,248.91093)">
    <polygon
       transform="matrix(0.53355369,0,0,1.2261024,2515.2141,231.21502)"
       style="fill:#dedede;stroke:#000000;stroke-width:1.48364091;stroke-miterlimit:4;stroke-dasharray:none"
       id="polygon19"
       points="3936,-172 3936,-8 3204,-8 3204,-8 3204,-172 " />
    <text
       style="font-size:14px;text-anchor:middle;font-family:'Times Roman,serif'"
       id="text21"
       font-size="14.00"
       y="37.021008"
       x="4411.6157">oscied-publisher service</text>
    <g
       transform="translate(885.18723,-351.579)"
       id="g5526">
      <polygon
         points="3418,-100 3418,-96 3640,-96 3640,-138 3640,-138 3418,-138 3418,-134 3414,-134 3414,-130 3418,-130 3418,-104 3414,-104 3414,-100 "
         id="polygon135"
         style="fill:#772953;stroke:#772953"
         transform="matrix(1.0375556,0,0,0.99956234,-124.20557,543.94879)" />
      <polyline
         points="3418,-134 3422,-134 3422,-130 3418,-130 "
         id="polyline137"
         style="fill:none;stroke:#772953"
         transform="translate(4,544)" />
      <polyline
         points="3418,-104 3422,-104 3422,-100 3418,-100 "
         id="polyline139"
         style="fill:none;stroke:#772953"
         transform="translate(4,544)" />
      <text
         x="3477.5"
         y="420.267"
         font-size="14.00"
         id="text141"
         style="font-size:14px;text-anchor:start;fill:#ffffff;font-family:'Times Roman,serif'">oscied-publisher</text>
      <text
         x="3430.5"
         y="437.06702"
         font-size="14.00"
         id="text143"
         style="font-size:14px;text-anchor:start;fill:#ffffff;font-family:'Times Roman,serif'">local:raring/oscied-publisher-6</text>
    </g>
    <g
       transform="matrix(1.0527859,0,0,1,463.45252,218.88529)"
       id="node15"
       class="node">
      <title
         id="title303">oscied_publisher/1</title>
      <polygon
         points="3928,-58 3588,-58 3588,-16 3928,-16 3928,-58 "
         id="polygon305"
         style="fill:#dd4814;stroke:#dd4814" />
      <text
         x="3696"
         y="-43.733299"
         font-size="14.00"
         id="text307"
         style="font-size:14px;text-anchor:start;fill:#ffffff;font-family:'Times Roman,serif'">oscied-publisher/1</text>
      <text
         x="3596"
         y="-26.9333"
         font-size="14.00"
         id="text309"
         style="font-size:14px;text-anchor:start;fill:#ffffff;font-family:'Times Roman,serif'">ec2-54-227-33-48.compute-1.amazonaws.com</text>
    </g>
    <g
       transform="translate(1028.8353,165.95671)"
       id="node17"
       class="node">
      <title
         id="title319">oscied_publisher/0</title>
      <polygon
         points="3570,-16 3570,-58 3570,-58 3212,-58 3212,-16 "
         id="polygon321"
         style="fill:#dd4814;stroke:#dd4814" />
      <text
         x="3329"
         y="-43.733299"
         font-size="14.00"
         id="text323"
         style="font-size:14px;text-anchor:start;fill:#ffffff;font-family:'Times Roman,serif'">oscied-publisher/0</text>
      <text
         x="3220"
         y="-26.9333"
         font-size="14.00"
         id="text325"
         style="font-size:14px;text-anchor:start;fill:#ffffff;font-family:'Times Roman,serif'">ec2-54-234-214-201.compute-1.amazonaws.com</text>
    </g>
  </g>
  <text
     x="889.83856"
     y="603.81305"
     font-size="14.00"
     id="text257-7"
     style="font-size:14px;text-anchor:middle;font-family:'Times Roman,serif'">storage</text>
  <text
     x="1191.3713"
     y="653.53387"
     font-size="14.00"
     id="text257-1"
     style="font-size:14px;text-anchor:middle;font-family:'Times Roman,serif'">storage</text>
  <text
     x="280.35812"
     y="624.6637"
     font-size="14.00"
     id="text257-8"
     style="font-size:14px;text-anchor:middle;font-family:'Times Roman,serif'">storage</text>
  <text
     x="317.24777"
     y="161.13776"
     font-size="14.00"
     id="text257-11"
     style="font-size:14px;text-anchor:middle;font-family:'Times Roman,serif'">api</text>
  <text
     x="885.02704"
     y="211.66048"
     font-size="14.00"
     id="text257-9"
     style="font-size:14px;text-anchor:middle;font-family:'Times Roman,serif'">transform</text>
  <text
     x="1193.7766"
     y="164.34554"
     font-size="14.00"
     id="text257-2"
     style="font-size:14px;text-anchor:middle;font-family:'Times Roman,serif'">publisher</text>
</svg>
