<?xml version="1.0" encoding="UTF-8" standalone="no"?>
<!DOCTYPE svg PUBLIC "-//W3C//DTD SVG 1.1//EN"
 "http://www.w3.org/Graphics/SVG/1.1/DTD/svg11.dtd">
<!-- Generated by graphviz version 2.26.3 (20100126.1600)
 -->
<!-- Title: amazon Pages: 1 -->
<svg width="1560pt" height="548pt"
 viewBox="0.00 0.00 1560.00 548.00" xmlns="http://www.w3.org/2000/svg" xmlns:xlink="http://www.w3.org/1999/xlink">
<g id="graph1" class="graph" transform="scale(1 1) rotate(0) translate(4 544)">
<title>amazon</title>
<polygon fill="white" stroke="white" points="-4,5 -4,-544 1557,-544 1557,5 -4,5"/>
<g id="graph2" class="cluster"><title>cluster_oscied_transform</title>
<polygon fill="#dedede" stroke="black" points="8,-8 8,-172 356,-172 356,-8 8,-8"/>
<text text-anchor="middle" x="182" y="-155.4" font-family="Times Roman,serif" font-size="14.00">oscied&#45;transform service</text>
</g>
<g id="graph3" class="cluster"><title>cluster_oscied_publisher</title>
<polygon fill="#dedede" stroke="black" points="933,-8 933,-172 1307,-172 1307,-8 933,-8"/>
<text text-anchor="middle" x="1120" y="-155.4" font-family="Times Roman,serif" font-size="14.00">oscied&#45;publisher service</text>
</g>
<g id="graph4" class="cluster"><title>cluster_oscied_storage</title>
<polygon fill="#dedede" stroke="black" points="364,-88 364,-292 738,-292 738,-88 364,-88"/>
<text text-anchor="middle" x="551" y="-275.4" font-family="Times Roman,serif" font-size="14.00">oscied&#45;storage service</text>
</g>
<g id="graph5" class="cluster"><title>cluster_oscied_webui</title>
<polygon fill="#dedede" stroke="black" points="746,-208 746,-412 1112,-412 1112,-208 746,-208"/>
<text text-anchor="middle" x="929" y="-395.4" font-family="Times Roman,serif" font-size="14.00">oscied&#45;webui service</text>
</g>
<g id="graph6" class="cluster"><title>cluster_oscied_orchestra</title>
<polygon fill="#dedede" stroke="black" points="1120,-328 1120,-532 1494,-532 1494,-328 1120,-328"/>
<text text-anchor="middle" x="1307" y="-515.4" font-family="Times Roman,serif" font-size="14.00">oscied&#45;orchestra service</text>
</g>
<!-- oscied_transform -->
<g id="node2" class="node"><title>oscied_transform</title>
<polygon fill="#772953" stroke="#772953" points="348,-138 122,-138 122,-134 118,-134 118,-130 122,-130 122,-104 118,-104 118,-100 122,-100 122,-96 348,-96 348,-138"/>
<polyline fill="none" stroke="#772953" points="122,-134 126,-134 126,-130 122,-130 "/>
<polyline fill="none" stroke="#772953" points="122,-104 126,-104 126,-100 122,-100 "/>
<text text-anchor="start" x="177.5" y="-123.733" font-family="Times Roman,serif" font-size="14.00" fill="#ffffff">oscied&#45;transform</text>
<text text-anchor="start" x="130" y="-106.933" font-family="Times Roman,serif" font-size="14.00" fill="#ffffff">local:raring/oscied&#45;transform&#45;7</text>
</g>
<!-- oscied_transform/0 -->
<g id="node3" class="node"><title>oscied_transform/0</title>
<polygon fill="#dd4814" stroke="#dd4814" points="348,-58 16,-58 16,-16 348,-16 348,-58"/>
<text text-anchor="start" x="117.5" y="-43.7333" font-family="Times Roman,serif" font-size="14.00" fill="#ffffff">oscied&#45;transform/0</text>
<text text-anchor="start" x="24.5" y="-26.9333" font-family="Times Roman,serif" font-size="14.00" fill="#ffffff">ec2&#45;50&#45;16&#45;83&#45;84.compute&#45;1.amazonaws.com</text>
</g>
<!-- oscied_transform&#45;&gt;oscied_transform/0 -->
<g id="edge3" class="edge"><title>oscied_transform&#45;&gt;oscied_transform/0</title>
<path fill="none" stroke="black" d="M221.075,-95.9809C215.158,-87.0491 208.151,-76.4734 201.717,-66.7612"/>
<polygon fill="black" stroke="black" points="204.457,-64.5599 196.016,-58.1564 198.621,-68.426 204.457,-64.5599"/>
</g>
<!-- oscied_storage -->
<g id="node5" class="node"><title>oscied_storage</title>
<polygon fill="#772953" stroke="#772953" points="681,-258 461,-258 461,-254 457,-254 457,-250 461,-250 461,-224 457,-224 457,-220 461,-220 461,-216 681,-216 681,-258"/>
<polyline fill="none" stroke="#772953" points="461,-254 465,-254 465,-250 461,-250 "/>
<polyline fill="none" stroke="#772953" points="461,-224 465,-224 465,-220 461,-220 "/>
<text text-anchor="start" x="521" y="-243.733" font-family="Times Roman,serif" font-size="14.00" fill="#ffffff">oscied&#45;storage</text>
<text text-anchor="start" x="469" y="-226.933" font-family="Times Roman,serif" font-size="14.00" fill="#ffffff">local:raring/oscied&#45;storage&#45;14</text>
</g>
<!-- oscied_storage&#45;&gt;oscied_transform -->
<g id="edge5" class="edge"><title>oscied_storage&#45;&gt;oscied_transform</title>
<path fill="none" stroke="black" d="M495.095,-215.926C454.615,-204.11 404.18,-188.462 360,-172 332.895,-161.901 303.236,-148.936 279.612,-138.131"/>
<text text-anchor="middle" x="461" y="-185.4" font-family="Times Roman,serif" font-size="14.00">storage</text>
</g>
<!-- oscied_storage&#45;&gt;oscied_storage -->
<g id="edge19" class="edge"><title>oscied_storage&#45;&gt;oscied_storage</title>
<path fill="none" stroke="black" d="M681.152,-244.338C692.061,-242.868 699,-240.422 699,-237 699,-233.578 692.061,-231.132 681.152,-229.662"/>
<text text-anchor="middle" x="714.5" y="-233.4" font-family="Times Roman,serif" font-size="14.00">peer</text>
</g>
<!-- oscied_publisher -->
<g id="node10" class="node"><title>oscied_publisher</title>
<polygon fill="#772953" stroke="#772953" points="1231,-138 1009,-138 1009,-134 1005,-134 1005,-130 1009,-130 1009,-104 1005,-104 1005,-100 1009,-100 1009,-96 1231,-96 1231,-138"/>
<polyline fill="none" stroke="#772953" points="1009,-134 1013,-134 1013,-130 1009,-130 "/>
<polyline fill="none" stroke="#772953" points="1009,-104 1013,-104 1013,-100 1009,-100 "/>
<text text-anchor="start" x="1064.5" y="-123.733" font-family="Times Roman,serif" font-size="14.00" fill="#ffffff">oscied&#45;publisher</text>
<text text-anchor="start" x="1017.5" y="-106.933" font-family="Times Roman,serif" font-size="14.00" fill="#ffffff">local:raring/oscied&#45;publisher&#45;6</text>
</g>
<!-- oscied_storage&#45;&gt;oscied_publisher -->
<g id="edge14" class="edge"><title>oscied_storage&#45;&gt;oscied_publisher</title>
<path fill="none" stroke="black" d="M667.257,-215.96C767.509,-194.047 923.643,-159.92 1023.85,-138.016"/>
<text text-anchor="middle" x="856" y="-185.4" font-family="Times Roman,serif" font-size="14.00">storage</text>
</g>
<!-- oscied_storage/0 -->
<g id="node16" class="node"><title>oscied_storage/0</title>
<polygon fill="#dd4814" stroke="#dd4814" points="730,-138 372,-138 372,-96 730,-96 730,-138"/>
<text text-anchor="start" x="494.5" y="-123.733" font-family="Times Roman,serif" font-size="14.00" fill="#ffffff">oscied&#45;storage/0</text>
<text text-anchor="start" x="380" y="-106.933" font-family="Times Roman,serif" font-size="14.00" fill="#ffffff">ec2&#45;54&#45;226&#45;130&#45;196.compute&#45;1.amazonaws.com</text>
</g>
<!-- oscied_storage&#45;&gt;oscied_storage/0 -->
<g id="edge17" class="edge"><title>oscied_storage&#45;&gt;oscied_storage/0</title>
<path fill="none" stroke="black" d="M567.47,-215.823C564.348,-197.088 559.751,-169.504 556.206,-148.236"/>
<polygon fill="black" stroke="black" points="559.658,-147.658 554.562,-138.369 552.753,-148.809 559.658,-147.658"/>
</g>
<!-- oscied_orchestra -->
<g id="node7" class="node"><title>oscied_orchestra</title>
<polygon fill="#772953" stroke="#772953" points="1352,-498 1128,-498 1128,-494 1124,-494 1124,-490 1128,-490 1128,-464 1124,-464 1124,-460 1128,-460 1128,-456 1352,-456 1352,-498"/>
<polyline fill="none" stroke="#772953" points="1128,-494 1132,-494 1132,-490 1128,-490 "/>
<polyline fill="none" stroke="#772953" points="1128,-464 1132,-464 1132,-460 1128,-460 "/>
<text text-anchor="start" x="1183.5" y="-483.733" font-family="Times Roman,serif" font-size="14.00" fill="#ffffff">oscied&#45;orchestra</text>
<text text-anchor="start" x="1136" y="-466.933" font-family="Times Roman,serif" font-size="14.00" fill="#ffffff">local:raring/oscied&#45;orchestra&#45;7</text>
</g>
<!-- oscied_orchestra&#45;&gt;oscied_transform -->
<g id="edge7" class="edge"><title>oscied_orchestra&#45;&gt;oscied_transform</title>
<path fill="none" stroke="black" d="M1127.83,-471.554C994.727,-464.619 780.919,-451.864 702,-438 660.15,-430.648 649.745,-427.027 610,-412 494.716,-368.413 454.342,-371.308 360,-292 306.413,-246.953 264.267,-174.015 245.55,-138.208"/>
<text text-anchor="middle" x="427" y="-305.4" font-family="Times Roman,serif" font-size="14.00">transform</text>
</g>
<!-- oscied_orchestra&#45;&gt;oscied_storage -->
<g id="edge21" class="edge"><title>oscied_orchestra&#45;&gt;oscied_storage</title>
<path fill="none" stroke="black" d="M1127.97,-474.596C988.911,-469.776 761.351,-455.318 690,-412 630.014,-375.582 593.296,-296.092 578.518,-258.073"/>
<text text-anchor="middle" x="716" y="-353.4" font-family="Times Roman,serif" font-size="14.00">storage</text>
</g>
<!-- oscied_orchestra&#45;&gt;oscied_publisher -->
<g id="edge12" class="edge"><title>oscied_orchestra&#45;&gt;oscied_publisher</title>
<path fill="none" stroke="black" d="M1352.31,-462.121C1412.06,-451.655 1476.88,-435.313 1495,-412 1517.91,-382.521 1513.85,-360.228 1495,-328 1433.06,-222.081 1296.23,-165.219 1206.11,-138.066"/>
<text text-anchor="middle" x="1520" y="-305.4" font-family="Times Roman,serif" font-size="14.00">publisher</text>
</g>
<!-- oscied_webui -->
<g id="node20" class="node"><title>oscied_webui</title>
<polygon fill="#772953" stroke="#772953" points="1030,-378 828,-378 828,-374 824,-374 824,-370 828,-370 828,-344 824,-344 824,-340 828,-340 828,-336 1030,-336 1030,-378"/>
<polyline fill="none" stroke="#772953" points="828,-374 832,-374 832,-370 828,-370 "/>
<polyline fill="none" stroke="#772953" points="828,-344 832,-344 832,-340 828,-340 "/>
<text text-anchor="start" x="884" y="-363.733" font-family="Times Roman,serif" font-size="14.00" fill="#ffffff">oscied&#45;webui</text>
<text text-anchor="start" x="836.5" y="-346.933" font-family="Times Roman,serif" font-size="14.00" fill="#ffffff">local:raring/oscied&#45;webui&#45;2</text>
</g>
<!-- oscied_orchestra&#45;&gt;oscied_webui -->
<g id="edge28" class="edge"><title>oscied_orchestra&#45;&gt;oscied_webui</title>
<path fill="none" stroke="black" d="M1185.47,-455.96C1128.68,-434.047 1040.23,-399.92 983.465,-378.016"/>
<text text-anchor="middle" x="1141.5" y="-425.4" font-family="Times Roman,serif" font-size="14.00">api</text>
</g>
<!-- oscied_orchestra/0 -->
<g id="node27" class="node"><title>oscied_orchestra/0</title>
<polygon fill="#dd4814" stroke="#dd4814" points="1486,-378 1128,-378 1128,-336 1486,-336 1486,-378"/>
<text text-anchor="start" x="1244" y="-363.733" font-family="Times Roman,serif" font-size="14.00" fill="#ffffff">oscied&#45;orchestra/0</text>
<text text-anchor="start" x="1136" y="-346.933" font-family="Times Roman,serif" font-size="14.00" fill="#ffffff">ec2&#45;54&#45;226&#45;120&#45;199.compute&#45;1.amazonaws.com</text>
</g>
<!-- oscied_orchestra&#45;&gt;oscied_orchestra/0 -->
<g id="edge31" class="edge"><title>oscied_orchestra&#45;&gt;oscied_orchestra/0</title>
<path fill="none" stroke="black" d="M1251.82,-455.823C1262.43,-436.833 1278.11,-408.75 1290.04,-387.37"/>
<polygon fill="black" stroke="black" points="1293.25,-388.807 1295.07,-378.369 1287.14,-385.394 1293.25,-388.807"/>
</g>
<!-- oscied_publisher/0 -->
<g id="node11" class="node"><title>oscied_publisher/0</title>
<polygon fill="#dd4814" stroke="#dd4814" points="1299,-58 941,-58 941,-16 1299,-16 1299,-58"/>
<text text-anchor="start" x="1058" y="-43.7333" font-family="Times Roman,serif" font-size="14.00" fill="#ffffff">oscied&#45;publisher/0</text>
<text text-anchor="start" x="949" y="-26.9333" font-family="Times Roman,serif" font-size="14.00" fill="#ffffff">ec2&#45;54&#45;234&#45;219&#45;197.compute&#45;1.amazonaws.com</text>
</g>
<!-- oscied_publisher&#45;&gt;oscied_publisher/0 -->
<g id="edge10" class="edge"><title>oscied_publisher&#45;&gt;oscied_publisher/0</title>
<path fill="none" stroke="black" d="M1120,-95.9809C1120,-87.5048 1120,-77.5483 1120,-68.2541"/>
<polygon fill="black" stroke="black" points="1123.5,-68.1564 1120,-58.1564 1116.5,-68.1565 1123.5,-68.1564"/>
</g>
<!-- oscied_webui&#45;&gt;oscied_storage -->
<g id="edge23" class="edge"><title>oscied_webui&#45;&gt;oscied_storage</title>
<path fill="none" stroke="black" d="M866.231,-335.96C800.858,-314.047 699.043,-279.92 633.696,-258.016"/>
<text text-anchor="middle" x="829" y="-305.4" font-family="Times Roman,serif" font-size="14.00">storage</text>
</g>
<!-- oscied_webui/0 -->
<g id="node23" class="node"><title>oscied_webui/0</title>
<polygon fill="#dd4814" stroke="#dd4814" points="1104,-258 754,-258 754,-216 1104,-216 1104,-258"/>
<text text-anchor="start" x="877.5" y="-243.733" font-family="Times Roman,serif" font-size="14.00" fill="#ffffff">oscied&#45;webui/0</text>
<text text-anchor="start" x="762.5" y="-226.933" font-family="Times Roman,serif" font-size="14.00" fill="#ffffff">ec2&#45;54&#45;224&#45;227&#45;79.compute&#45;1.amazonaws.com</text>
</g>
<!-- oscied_webui&#45;&gt;oscied_webui/0 -->
<g id="edge26" class="edge"><title>oscied_webui&#45;&gt;oscied_webui/0</title>
<path fill="none" stroke="black" d="M929,-335.823C929,-317.173 929,-289.755 929,-268.526"/>
<polygon fill="black" stroke="black" points="932.5,-268.369 929,-258.369 925.5,-268.369 932.5,-268.369"/>
</g>
</g>
</svg>
