<?xml version="1.0" encoding="UTF-8" standalone="no"?>
<!DOCTYPE svg PUBLIC "-//W3C//DTD SVG 1.1//EN"
 "http://www.w3.org/Graphics/SVG/1.1/DTD/svg11.dtd">
<!-- Generated by graphviz version 2.26.3 (20100126.1600)
 -->
<!-- Title: local Pages: 1 -->
<svg width="1564pt" height="548pt"
 viewBox="0.00 0.00 1564.00 548.00" xmlns="http://www.w3.org/2000/svg" xmlns:xlink="http://www.w3.org/1999/xlink">
<g id="graph1" class="graph" transform="scale(1 1) rotate(0) translate(4 544)">
<title>local</title>
<polygon fill="white" stroke="white" points="-4,5 -4,-544 1561,-544 1561,5 -4,5"/>
<g id="graph2" class="cluster"><title>cluster_haproxy</title>
<polygon fill="#dedede" stroke="black" points="8,-8 8,-172 190,-172 190,-8 8,-8"/>
<text text-anchor="middle" x="99" y="-155.4" font-family="Times Roman,serif" font-size="14.00">haproxy service</text>
</g>
<g id="graph3" class="cluster"><title>cluster_oscied_transform</title>
<polygon fill="#dedede" stroke="black" points="1058,-88 1058,-292 1548,-292 1548,-88 1058,-88"/>
<text text-anchor="middle" x="1303" y="-275.4" font-family="Times Roman,serif" font-size="14.00">oscied&#45;transform service</text>
</g>
<g id="graph4" class="cluster"><title>cluster_oscied_publisher</title>
<polygon fill="#dedede" stroke="black" points="462,-88 462,-292 776,-292 776,-88 462,-88"/>
<text text-anchor="middle" x="619" y="-275.4" font-family="Times Roman,serif" font-size="14.00">oscied&#45;publisher service</text>
</g>
<g id="graph5" class="cluster"><title>cluster_oscied_webui</title>
<polygon fill="#dedede" stroke="black" points="198,-88 198,-292 454,-292 454,-88 198,-88"/>
<text text-anchor="middle" x="326" y="-275.4" font-family="Times Roman,serif" font-size="14.00">oscied&#45;webui service</text>
</g>
<g id="graph6" class="cluster"><title>cluster_oscied_storage</title>
<polygon fill="#dedede" stroke="black" points="784,-208 784,-412 1050,-412 1050,-208 784,-208"/>
<text text-anchor="middle" x="917" y="-395.4" font-family="Times Roman,serif" font-size="14.00">oscied&#45;storage service</text>
</g>
<g id="graph7" class="cluster"><title>cluster_oscied_orchestra</title>
<polygon fill="#dedede" stroke="black" points="496,-328 496,-532 776,-532 776,-328 496,-328"/>
<text text-anchor="middle" x="636" y="-515.4" font-family="Times Roman,serif" font-size="14.00">oscied&#45;orchestra service</text>
</g>
<!-- haproxy -->
<g id="node2" class="node"><title>haproxy</title>
<polygon fill="#772953" stroke="#772953" points="182,-138 16,-138 16,-134 12,-134 12,-130 16,-130 16,-104 12,-104 12,-100 16,-100 16,-96 182,-96 182,-138"/>
<polyline fill="none" stroke="#772953" points="16,-134 20,-134 20,-130 16,-130 "/>
<polyline fill="none" stroke="#772953" points="16,-104 20,-104 20,-100 16,-100 "/>
<text text-anchor="start" x="71" y="-123.733" font-family="Times Roman,serif" font-size="14.00" fill="#ffffff">haproxy</text>
<text text-anchor="start" x="24" y="-106.933" font-family="Times Roman,serif" font-size="14.00" fill="#ffffff">cs:precise/haproxy&#45;14</text>
</g>
<!-- haproxy/0 -->
<g id="node3" class="node"><title>haproxy/0</title>
<polygon fill="#dd4814" stroke="#dd4814" points="146,-58 52,-58 52,-16 146,-16 146,-58"/>
<text text-anchor="start" x="64" y="-43.7333" font-family="Times Roman,serif" font-size="14.00" fill="#ffffff">haproxy/0</text>
<text text-anchor="start" x="60.5" y="-26.9333" font-family="Times Roman,serif" font-size="14.00" fill="#ffffff">10.0.3.239</text>
</g>
<!-- haproxy&#45;&gt;haproxy/0 -->
<g id="edge3" class="edge"><title>haproxy&#45;&gt;haproxy/0</title>
<path fill="none" stroke="black" d="M99,-95.9809C99,-87.5048 99,-77.5483 99,-68.2541"/>
<polygon fill="black" stroke="black" points="102.5,-68.1564 99,-58.1564 95.5001,-68.1565 102.5,-68.1564"/>
</g>
<!-- oscied_webui -->
<g id="node5" class="node"><title>oscied_webui</title>
<polygon fill="#772953" stroke="#772953" points="446,-258 206,-258 206,-254 202,-254 202,-250 206,-250 206,-224 202,-224 202,-220 206,-220 206,-216 446,-216 446,-258"/>
<polyline fill="none" stroke="#772953" points="206,-254 210,-254 210,-250 206,-250 "/>
<polyline fill="none" stroke="#772953" points="206,-224 210,-224 210,-220 206,-220 "/>
<text text-anchor="start" x="281" y="-243.733" font-family="Times Roman,serif" font-size="14.00" fill="#ffffff">oscied&#45;webui</text>
<text text-anchor="start" x="214.5" y="-226.933" font-family="Times Roman,serif" font-size="14.00" fill="#ffffff">local:quantal/oscied&#45;webui&#45;1110</text>
</g>
<!-- oscied_webui&#45;&gt;haproxy -->
<g id="edge5" class="edge"><title>oscied_webui&#45;&gt;haproxy</title>
<path fill="none" stroke="black" d="M270.566,-215.997C257.412,-210.534 243.558,-204.378 231,-198 195.281,-179.858 156.425,-155.395 130.184,-138.114"/>
<text text-anchor="middle" x="276.5" y="-185.4" font-family="Times Roman,serif" font-size="14.00">reverseproxy</text>
</g>
<!-- oscied_webui/0 -->
<g id="node28" class="node"><title>oscied_webui/0</title>
<polygon fill="#dd4814" stroke="#dd4814" points="386,-138 266,-138 266,-96 386,-96 386,-138"/>
<text text-anchor="start" x="274.5" y="-123.733" font-family="Times Roman,serif" font-size="14.00" fill="#ffffff">oscied&#45;webui/0</text>
<text text-anchor="start" x="287.5" y="-106.933" font-family="Times Roman,serif" font-size="14.00" fill="#ffffff">10.0.3.111</text>
</g>
<!-- oscied_webui&#45;&gt;oscied_webui/0 -->
<g id="edge28" class="edge"><title>oscied_webui&#45;&gt;oscied_webui/0</title>
<path fill="none" stroke="black" d="M326,-215.823C326,-197.173 326,-169.755 326,-148.526"/>
<polygon fill="black" stroke="black" points="329.5,-148.369 326,-138.369 322.5,-148.369 329.5,-148.369"/>
</g>
<!-- oscied_transform -->
<g id="node8" class="node"><title>oscied_transform</title>
<polygon fill="#772953" stroke="#772953" points="1332,-258 1066,-258 1066,-254 1062,-254 1062,-250 1066,-250 1066,-224 1062,-224 1062,-220 1066,-220 1066,-216 1332,-216 1332,-258"/>
<polyline fill="none" stroke="#772953" points="1066,-254 1070,-254 1070,-250 1066,-250 "/>
<polyline fill="none" stroke="#772953" points="1066,-224 1070,-224 1070,-220 1066,-220 "/>
<text text-anchor="start" x="1141.5" y="-243.733" font-family="Times Roman,serif" font-size="14.00" fill="#ffffff">oscied&#45;transform</text>
<text text-anchor="start" x="1074.5" y="-226.933" font-family="Times Roman,serif" font-size="14.00" fill="#ffffff">local:quantal/oscied&#45;transform&#45;1110</text>
</g>
<!-- oscied_transform/1 -->
<g id="node9" class="node"><title>oscied_transform/1</title>
<polygon fill="#dd4814" stroke="#dd4814" points="1376,-138 1230,-138 1230,-96 1376,-96 1376,-138"/>
<text text-anchor="start" x="1238.5" y="-123.733" font-family="Times Roman,serif" font-size="14.00" fill="#ffffff">oscied&#45;transform/1</text>
<text text-anchor="start" x="1264.5" y="-106.933" font-family="Times Roman,serif" font-size="14.00" fill="#ffffff">10.0.3.219</text>
</g>
<!-- oscied_transform&#45;&gt;oscied_transform/1 -->
<g id="edge8" class="edge"><title>oscied_transform&#45;&gt;oscied_transform/1</title>
<path fill="none" stroke="black" d="M1217.35,-215.823C1234.18,-196.407 1259.25,-167.486 1277.92,-145.942"/>
<polygon fill="black" stroke="black" points="1280.58,-148.218 1284.48,-138.369 1275.29,-143.634 1280.58,-148.218"/>
</g>
<!-- oscied_transform/0 -->
<g id="node11" class="node"><title>oscied_transform/0</title>
<polygon fill="#dd4814" stroke="#dd4814" points="1540,-138 1394,-138 1394,-96 1540,-96 1540,-138"/>
<text text-anchor="start" x="1402.5" y="-123.733" font-family="Times Roman,serif" font-size="14.00" fill="#ffffff">oscied&#45;transform/0</text>
<text text-anchor="start" x="1433" y="-106.933" font-family="Times Roman,serif" font-size="14.00" fill="#ffffff">10.0.3.42</text>
</g>
<!-- oscied_transform&#45;&gt;oscied_transform/0 -->
<g id="edge10" class="edge"><title>oscied_transform&#45;&gt;oscied_transform/0</title>
<path fill="none" stroke="black" d="M1273.19,-215.86C1307.99,-204.749 1349.51,-189.74 1385,-172 1400.75,-164.13 1417.05,-153.724 1430.94,-144.083"/>
<polygon fill="black" stroke="black" points="1433.1,-146.841 1439.24,-138.209 1429.06,-141.126 1433.1,-146.841"/>
</g>
<!-- oscied_transform/2 -->
<g id="node13" class="node"><title>oscied_transform/2</title>
<polygon fill="#dd4814" stroke="#dd4814" points="1212,-138 1066,-138 1066,-96 1212,-96 1212,-138"/>
<text text-anchor="start" x="1074.5" y="-123.733" font-family="Times Roman,serif" font-size="14.00" fill="#ffffff">oscied&#45;transform/2</text>
<text text-anchor="start" x="1100.5" y="-106.933" font-family="Times Roman,serif" font-size="14.00" fill="#ffffff">10.0.3.104</text>
</g>
<!-- oscied_transform&#45;&gt;oscied_transform/2 -->
<g id="edge12" class="edge"><title>oscied_transform&#45;&gt;oscied_transform/2</title>
<path fill="none" stroke="black" d="M1188.41,-215.823C1178.92,-196.833 1164.88,-168.75 1154.18,-147.37"/>
<polygon fill="black" stroke="black" points="1157.29,-145.748 1149.68,-138.369 1151.03,-148.879 1157.29,-145.748"/>
</g>
<!-- oscied_storage -->
<g id="node15" class="node"><title>oscied_storage</title>
<polygon fill="#772953" stroke="#772953" points="1042,-378 792,-378 792,-374 788,-374 788,-370 792,-370 792,-344 788,-344 788,-340 792,-340 792,-336 1042,-336 1042,-378"/>
<polyline fill="none" stroke="#772953" points="792,-374 796,-374 796,-370 792,-370 "/>
<polyline fill="none" stroke="#772953" points="792,-344 796,-344 796,-340 792,-340 "/>
<text text-anchor="start" x="867" y="-363.733" font-family="Times Roman,serif" font-size="14.00" fill="#ffffff">oscied&#45;storage</text>
<text text-anchor="start" x="800.5" y="-346.933" font-family="Times Roman,serif" font-size="14.00" fill="#ffffff">local:quantal/oscied&#45;storage&#45;1110</text>
</g>
<!-- oscied_storage&#45;&gt;oscied_webui -->
<g id="edge32" class="edge"><title>oscied_storage&#45;&gt;oscied_webui</title>
<path fill="none" stroke="black" d="M823.634,-335.97C809.071,-333.057 794.161,-330.285 780,-328 637.836,-305.062 597.416,-328.054 458,-292 426.874,-283.95 393.461,-269.971 368.039,-258.12"/>
<text text-anchor="middle" x="719" y="-305.4" font-family="Times Roman,serif" font-size="14.00">storage</text>
</g>
<!-- oscied_storage&#45;&gt;oscied_transform -->
<g id="edge14" class="edge"><title>oscied_storage&#45;&gt;oscied_transform</title>
<path fill="none" stroke="black" d="M966.443,-335.96C1017.94,-314.047 1098.14,-279.92 1149.61,-258.016"/>
<text text-anchor="middle" x="1076" y="-305.4" font-family="Times Roman,serif" font-size="14.00">storage</text>
</g>
<!-- oscied_publisher -->
<g id="node20" class="node"><title>oscied_publisher</title>
<polygon fill="#772953" stroke="#772953" points="749,-258 489,-258 489,-254 485,-254 485,-250 489,-250 489,-224 485,-224 485,-220 489,-220 489,-216 749,-216 749,-258"/>
<polyline fill="none" stroke="#772953" points="489,-254 493,-254 493,-250 489,-250 "/>
<polyline fill="none" stroke="#772953" points="489,-224 493,-224 493,-220 489,-220 "/>
<text text-anchor="start" x="563.5" y="-243.733" font-family="Times Roman,serif" font-size="14.00" fill="#ffffff">oscied&#45;publisher</text>
<text text-anchor="start" x="497" y="-226.933" font-family="Times Roman,serif" font-size="14.00" fill="#ffffff">local:quantal/oscied&#45;publisher&#45;1110</text>
</g>
<!-- oscied_storage&#45;&gt;oscied_publisher -->
<g id="edge25" class="edge"><title>oscied_storage&#45;&gt;oscied_publisher</title>
<path fill="none" stroke="black" d="M864.751,-335.96C810.334,-314.047 725.584,-279.92 671.189,-258.016"/>
<text text-anchor="middle" x="839" y="-305.4" font-family="Times Roman,serif" font-size="14.00">storage</text>
</g>
<!-- oscied_storage/0 -->
<g id="node33" class="node"><title>oscied_storage/0</title>
<polygon fill="#dd4814" stroke="#dd4814" points="982,-258 852,-258 852,-216 982,-216 982,-258"/>
<text text-anchor="start" x="860.5" y="-243.733" font-family="Times Roman,serif" font-size="14.00" fill="#ffffff">oscied&#45;storage/0</text>
<text text-anchor="start" x="883" y="-226.933" font-family="Times Roman,serif" font-size="14.00" fill="#ffffff">10.0.3.37</text>
</g>
<!-- oscied_storage&#45;&gt;oscied_storage/0 -->
<g id="edge35" class="edge"><title>oscied_storage&#45;&gt;oscied_storage/0</title>
<path fill="none" stroke="black" d="M917,-335.823C917,-317.173 917,-289.755 917,-268.526"/>
<polygon fill="black" stroke="black" points="920.5,-268.369 917,-258.369 913.5,-268.369 920.5,-268.369"/>
</g>
<!-- oscied_orchestra -->
<g id="node17" class="node"><title>oscied_orchestra</title>
<polygon fill="#772953" stroke="#772953" points="768,-498 504,-498 504,-494 500,-494 500,-490 504,-490 504,-464 500,-464 500,-460 504,-460 504,-456 768,-456 768,-498"/>
<polyline fill="none" stroke="#772953" points="504,-494 508,-494 508,-490 504,-490 "/>
<polyline fill="none" stroke="#772953" points="504,-464 508,-464 508,-460 504,-460 "/>
<text text-anchor="start" x="579.5" y="-483.733" font-family="Times Roman,serif" font-size="14.00" fill="#ffffff">oscied&#45;orchestra</text>
<text text-anchor="start" x="512.5" y="-466.933" font-family="Times Roman,serif" font-size="14.00" fill="#ffffff">local:quantal/oscied&#45;orchestra&#45;1110</text>
</g>
<!-- oscied_orchestra&#45;&gt;oscied_webui -->
<g id="edge30" class="edge"><title>oscied_orchestra&#45;&gt;oscied_webui</title>
<path fill="none" stroke="black" d="M587.44,-455.878C575.677,-450.373 563.254,-444.229 552,-438 463.104,-388.796 379.475,-299.139 343.939,-258.293"/>
<text text-anchor="middle" x="520.5" y="-353.4" font-family="Times Roman,serif" font-size="14.00">api</text>
</g>
<!-- oscied_orchestra&#45;&gt;oscied_transform -->
<g id="edge16" class="edge"><title>oscied_orchestra&#45;&gt;oscied_transform</title>
<path fill="none" stroke="black" d="M768.053,-466.689C871.73,-456.727 1006.27,-439.114 1054,-412 1119.36,-374.877 1167.74,-296.098 1188.22,-258.216"/>
<text text-anchor="middle" x="1176" y="-353.4" font-family="Times Roman,serif" font-size="14.00">transform</text>
</g>
<!-- oscied_orchestra&#45;&gt;oscied_storage -->
<g id="edge37" class="edge"><title>oscied_orchestra&#45;&gt;oscied_storage</title>
<path fill="none" stroke="black" d="M685.268,-455.96C736.581,-434.047 816.497,-399.92 867.789,-378.016"/>
<text text-anchor="middle" x="795" y="-425.4" font-family="Times Roman,serif" font-size="14.00">storage</text>
</g>
<!-- oscied_orchestra&#45;&gt;oscied_publisher -->
<g id="edge23" class="edge"><title>oscied_orchestra&#45;&gt;oscied_publisher</title>
<path fill="none" stroke="black" d="M593.875,-455.856C577.329,-445.162 560.136,-430.487 551,-412 528.925,-367.329 532.944,-344.172 556,-300 564.446,-283.819 578.491,-269.17 591.179,-258.078"/>
<text text-anchor="middle" x="583" y="-353.4" font-family="Times Roman,serif" font-size="14.00">publisher</text>
</g>
<!-- oscied_orchestra/0 -->
<g id="node37" class="node"><title>oscied_orchestra/0</title>
<polygon fill="#dd4814" stroke="#dd4814" points="768,-378 624,-378 624,-336 768,-336 768,-378"/>
<text text-anchor="start" x="632.5" y="-363.733" font-family="Times Roman,serif" font-size="14.00" fill="#ffffff">oscied&#45;orchestra/0</text>
<text text-anchor="start" x="657.5" y="-346.933" font-family="Times Roman,serif" font-size="14.00" fill="#ffffff">10.0.3.229</text>
</g>
<!-- oscied_orchestra&#45;&gt;oscied_orchestra/0 -->
<g id="edge40" class="edge"><title>oscied_orchestra&#45;&gt;oscied_orchestra/0</title>
<path fill="none" stroke="black" d="M646.589,-455.823C656.084,-436.833 670.125,-408.75 680.815,-387.37"/>
<polygon fill="black" stroke="black" points="683.974,-388.879 685.315,-378.369 677.713,-385.748 683.974,-388.879"/>
</g>
<!-- oscied_publisher/1 -->
<g id="node21" class="node"><title>oscied_publisher/1</title>
<polygon fill="#dd4814" stroke="#dd4814" points="610,-138 470,-138 470,-96 610,-96 610,-138"/>
<text text-anchor="start" x="478" y="-123.733" font-family="Times Roman,serif" font-size="14.00" fill="#ffffff">oscied&#45;publisher/1</text>
<text text-anchor="start" x="501.5" y="-106.933" font-family="Times Roman,serif" font-size="14.00" fill="#ffffff">10.0.3.244</text>
</g>
<!-- oscied_publisher&#45;&gt;oscied_publisher/1 -->
<g id="edge19" class="edge"><title>oscied_publisher&#45;&gt;oscied_publisher/1</title>
<path fill="none" stroke="black" d="M605.058,-215.823C592.444,-196.662 573.737,-168.246 559.616,-146.796"/>
<polygon fill="black" stroke="black" points="562.49,-144.797 554.068,-138.369 556.644,-148.646 562.49,-144.797"/>
</g>
<!-- oscied_publisher/0 -->
<g id="node23" class="node"><title>oscied_publisher/0</title>
<polygon fill="#dd4814" stroke="#dd4814" points="768,-138 628,-138 628,-96 768,-96 768,-138"/>
<text text-anchor="start" x="636" y="-123.733" font-family="Times Roman,serif" font-size="14.00" fill="#ffffff">oscied&#45;publisher/0</text>
<text text-anchor="start" x="659.5" y="-106.933" font-family="Times Roman,serif" font-size="14.00" fill="#ffffff">10.0.3.133</text>
</g>
<!-- oscied_publisher&#45;&gt;oscied_publisher/0 -->
<g id="edge21" class="edge"><title>oscied_publisher&#45;&gt;oscied_publisher/0</title>
<path fill="none" stroke="black" d="M632.942,-215.823C645.556,-196.662 664.263,-168.246 678.384,-146.796"/>
<polygon fill="black" stroke="black" points="681.356,-148.646 683.932,-138.369 675.51,-144.797 681.356,-148.646"/>
</g>
</g>
</svg>
