<?xml version="1.0" encoding="UTF-8" standalone="no"?>
<!DOCTYPE svg PUBLIC "-//W3C//DTD SVG 1.1//EN"
 "http://www.w3.org/Graphics/SVG/1.1/DTD/svg11.dtd">
<!-- Generated by graphviz version 2.26.3 (20100126.1600)
 -->
<!-- Title: amazon Pages: 1 -->
<svg width="1552pt" height="548pt"
 viewBox="0.00 0.00 1552.00 548.00" xmlns="http://www.w3.org/2000/svg" xmlns:xlink="http://www.w3.org/1999/xlink">
<g id="graph1" class="graph" transform="scale(1 1) rotate(0) translate(4 544)">
<title>amazon</title>
<polygon fill="white" stroke="white" points="-4,5 -4,-544 1549,-544 1549,5 -4,5"/>
<g id="graph2" class="cluster"><title>cluster_oscied_transform</title>
<polygon fill="#dedede" stroke="black" points="8,-8 8,-172 374,-172 374,-8 8,-8"/>
<text text-anchor="middle" x="191" y="-155.4" font-family="Times Roman,serif" font-size="14.00">oscied&#45;transform service</text>
</g>
<g id="graph3" class="cluster"><title>cluster_oscied_publisher</title>
<polygon fill="#dedede" stroke="black" points="942,-8 942,-172 1308,-172 1308,-8 942,-8"/>
<text text-anchor="middle" x="1125" y="-155.4" font-family="Times Roman,serif" font-size="14.00">oscied&#45;publisher service</text>
</g>
<g id="graph4" class="cluster"><title>cluster_oscied_storage</title>
<polygon fill="#dedede" stroke="black" points="382,-88 382,-292 756,-292 756,-88 382,-88"/>
<text text-anchor="middle" x="569" y="-275.4" font-family="Times Roman,serif" font-size="14.00">oscied&#45;storage service</text>
</g>
<g id="graph5" class="cluster"><title>cluster_oscied_webui</title>
<polygon fill="#dedede" stroke="black" points="764,-208 764,-412 1112,-412 1112,-208 764,-208"/>
<text text-anchor="middle" x="938" y="-395.4" font-family="Times Roman,serif" font-size="14.00">oscied&#45;webui service</text>
</g>
<g id="graph6" class="cluster"><title>cluster_oscied_orchestra</title>
<polygon fill="#dedede" stroke="black" points="1120,-328 1120,-532 1486,-532 1486,-328 1120,-328"/>
<text text-anchor="middle" x="1303" y="-515.4" font-family="Times Roman,serif" font-size="14.00">oscied&#45;orchestra service</text>
</g>
<!-- oscied_transform -->
<g id="node2" class="node"><title>oscied_transform</title>
<polygon fill="#772953" stroke="#772953" points="366,-138 100,-138 100,-134 96,-134 96,-130 100,-130 100,-104 96,-104 96,-100 100,-100 100,-96 366,-96 366,-138"/>
<polyline fill="none" stroke="#772953" points="100,-134 104,-134 104,-130 100,-130 "/>
<polyline fill="none" stroke="#772953" points="100,-104 104,-104 104,-100 100,-100 "/>
<text text-anchor="start" x="175.5" y="-123.733" font-family="Times Roman,serif" font-size="14.00" fill="#ffffff">oscied&#45;transform</text>
<text text-anchor="start" x="108.5" y="-106.933" font-family="Times Roman,serif" font-size="14.00" fill="#ffffff">local:quantal/oscied&#45;transform&#45;1055</text>
</g>
<!-- oscied_transform/0 -->
<g id="node3" class="node"><title>oscied_transform/0</title>
<polygon fill="#dd4814" stroke="#dd4814" points="366,-58 16,-58 16,-16 366,-16 366,-58"/>
<text text-anchor="start" x="126.5" y="-43.7333" font-family="Times Roman,serif" font-size="14.00" fill="#ffffff">oscied&#45;transform/0</text>
<text text-anchor="start" x="24.5" y="-26.9333" font-family="Times Roman,serif" font-size="14.00" fill="#ffffff">ec2&#45;54&#45;243&#45;16&#45;104.compute&#45;1.amazonaws.com</text>
</g>
<!-- oscied_transform&#45;&gt;oscied_transform/0 -->
<g id="edge3" class="edge"><title>oscied_transform&#45;&gt;oscied_transform/0</title>
<path fill="none" stroke="black" d="M221.965,-95.9809C217.324,-87.1402 211.837,-76.6891 206.781,-67.0588"/>
<polygon fill="black" stroke="black" points="209.854,-65.3835 202.107,-58.1564 203.657,-68.6374 209.854,-65.3835"/>
</g>
<!-- oscied_storage -->
<g id="node5" class="node"><title>oscied_storage</title>
<polygon fill="#772953" stroke="#772953" points="748,-258 498,-258 498,-254 494,-254 494,-250 498,-250 498,-224 494,-224 494,-220 498,-220 498,-216 748,-216 748,-258"/>
<polyline fill="none" stroke="#772953" points="498,-254 502,-254 502,-250 498,-250 "/>
<polyline fill="none" stroke="#772953" points="498,-224 502,-224 502,-220 498,-220 "/>
<text text-anchor="start" x="573" y="-243.733" font-family="Times Roman,serif" font-size="14.00" fill="#ffffff">oscied&#45;storage</text>
<text text-anchor="start" x="506.5" y="-226.933" font-family="Times Roman,serif" font-size="14.00" fill="#ffffff">local:quantal/oscied&#45;storage&#45;1055</text>
</g>
<!-- oscied_storage&#45;&gt;oscied_transform -->
<g id="edge5" class="edge"><title>oscied_storage&#45;&gt;oscied_transform</title>
<path fill="none" stroke="black" d="M534.767,-215.934C487.865,-204.149 429.427,-188.527 378,-172 346.6,-161.909 312.049,-148.882 284.553,-138.039"/>
<text text-anchor="middle" x="491" y="-185.4" font-family="Times Roman,serif" font-size="14.00">storage</text>
</g>
<!-- oscied_publisher -->
<g id="node10" class="node"><title>oscied_publisher</title>
<polygon fill="#772953" stroke="#772953" points="1255,-138 995,-138 995,-134 991,-134 991,-130 995,-130 995,-104 991,-104 991,-100 995,-100 995,-96 1255,-96 1255,-138"/>
<polyline fill="none" stroke="#772953" points="995,-134 999,-134 999,-130 995,-130 "/>
<polyline fill="none" stroke="#772953" points="995,-104 999,-104 999,-100 995,-100 "/>
<text text-anchor="start" x="1069.5" y="-123.733" font-family="Times Roman,serif" font-size="14.00" fill="#ffffff">oscied&#45;publisher</text>
<text text-anchor="start" x="1003" y="-106.933" font-family="Times Roman,serif" font-size="14.00" fill="#ffffff">local:quantal/oscied&#45;publisher&#45;1055</text>
</g>
<!-- oscied_storage&#45;&gt;oscied_publisher -->
<g id="edge14" class="edge"><title>oscied_storage&#45;&gt;oscied_publisher</title>
<path fill="none" stroke="black" d="M711.016,-215.96C802.685,-194.047 945.453,-159.92 1037.08,-138.016"/>
<text text-anchor="middle" x="885" y="-185.4" font-family="Times Roman,serif" font-size="14.00">storage</text>
</g>
<!-- oscied_storage/0 -->
<g id="node16" class="node"><title>oscied_storage/0</title>
<polygon fill="#dd4814" stroke="#dd4814" points="748,-138 390,-138 390,-96 748,-96 748,-138"/>
<text text-anchor="start" x="512.5" y="-123.733" font-family="Times Roman,serif" font-size="14.00" fill="#ffffff">oscied&#45;storage/0</text>
<text text-anchor="start" x="398" y="-106.933" font-family="Times Roman,serif" font-size="14.00" fill="#ffffff">ec2&#45;54&#45;235&#45;224&#45;221.compute&#45;1.amazonaws.com</text>
</g>
<!-- oscied_storage&#45;&gt;oscied_storage/0 -->
<g id="edge17" class="edge"><title>oscied_storage&#45;&gt;oscied_storage/0</title>
<path fill="none" stroke="black" d="M613.47,-215.823C604.963,-196.918 592.401,-169.002 582.796,-147.658"/>
<polygon fill="black" stroke="black" points="585.912,-146.052 578.616,-138.369 579.528,-148.925 585.912,-146.052"/>
</g>
<!-- oscied_orchestra -->
<g id="node7" class="node"><title>oscied_orchestra</title>
<polygon fill="#772953" stroke="#772953" points="1392,-498 1128,-498 1128,-494 1124,-494 1124,-490 1128,-490 1128,-464 1124,-464 1124,-460 1128,-460 1128,-456 1392,-456 1392,-498"/>
<polyline fill="none" stroke="#772953" points="1128,-494 1132,-494 1132,-490 1128,-490 "/>
<polyline fill="none" stroke="#772953" points="1128,-464 1132,-464 1132,-460 1128,-460 "/>
<text text-anchor="start" x="1203.5" y="-483.733" font-family="Times Roman,serif" font-size="14.00" fill="#ffffff">oscied&#45;orchestra</text>
<text text-anchor="start" x="1136.5" y="-466.933" font-family="Times Roman,serif" font-size="14.00" fill="#ffffff">local:quantal/oscied&#45;orchestra&#45;1056</text>
</g>
<!-- oscied_orchestra&#45;&gt;oscied_transform -->
<g id="edge7" class="edge"><title>oscied_orchestra&#45;&gt;oscied_transform</title>
<path fill="none" stroke="black" d="M1127.81,-471.04C994.613,-464.377 798.451,-452.584 724,-438 607.983,-415.274 384.711,-297.116 378,-292 319.166,-247.15 268.73,-174.121 245.952,-138.25"/>
<text text-anchor="middle" x="461" y="-305.4" font-family="Times Roman,serif" font-size="14.00">transform</text>
</g>
<!-- oscied_orchestra&#45;&gt;oscied_storage -->
<g id="edge19" class="edge"><title>oscied_orchestra&#45;&gt;oscied_storage</title>
<path fill="none" stroke="black" d="M1127.96,-468.091C975.591,-456.78 741.55,-435.847 708,-412 655.555,-374.723 634.094,-296.019 626.546,-258.185"/>
<text text-anchor="middle" x="734" y="-353.4" font-family="Times Roman,serif" font-size="14.00">storage</text>
</g>
<!-- oscied_orchestra&#45;&gt;oscied_publisher -->
<g id="edge12" class="edge"><title>oscied_orchestra&#45;&gt;oscied_publisher</title>
<path fill="none" stroke="black" d="M1380.93,-455.982C1427.6,-445.196 1473.12,-430.413 1487,-412 1509.47,-382.188 1505.6,-360.37 1487,-328 1426.84,-223.299 1292.49,-165.662 1205.46,-138.078"/>
<text text-anchor="middle" x="1512" y="-305.4" font-family="Times Roman,serif" font-size="14.00">publisher</text>
</g>
<!-- oscied_webui -->
<g id="node19" class="node"><title>oscied_webui</title>
<polygon fill="#772953" stroke="#772953" points="1058,-378 818,-378 818,-374 814,-374 814,-370 818,-370 818,-344 814,-344 814,-340 818,-340 818,-336 1058,-336 1058,-378"/>
<polyline fill="none" stroke="#772953" points="818,-374 822,-374 822,-370 818,-370 "/>
<polyline fill="none" stroke="#772953" points="818,-344 822,-344 822,-340 818,-340 "/>
<text text-anchor="start" x="893" y="-363.733" font-family="Times Roman,serif" font-size="14.00" fill="#ffffff">oscied&#45;webui</text>
<text text-anchor="start" x="826.5" y="-346.933" font-family="Times Roman,serif" font-size="14.00" fill="#ffffff">local:quantal/oscied&#45;webui&#45;1056</text>
</g>
<!-- oscied_orchestra&#45;&gt;oscied_webui -->
<g id="edge26" class="edge"><title>oscied_orchestra&#45;&gt;oscied_webui</title>
<path fill="none" stroke="black" d="M1203.54,-455.96C1144.74,-434.047 1053.17,-399.92 994.392,-378.016"/>
<text text-anchor="middle" x="1156.5" y="-425.4" font-family="Times Roman,serif" font-size="14.00">api</text>
</g>
<!-- oscied_orchestra/0 -->
<g id="node26" class="node"><title>oscied_orchestra/0</title>
<polygon fill="#dd4814" stroke="#dd4814" points="1478,-378 1128,-378 1128,-336 1478,-336 1478,-378"/>
<text text-anchor="start" x="1239.5" y="-363.733" font-family="Times Roman,serif" font-size="14.00" fill="#ffffff">oscied&#45;orchestra/0</text>
<text text-anchor="start" x="1136.5" y="-346.933" font-family="Times Roman,serif" font-size="14.00" fill="#ffffff">ec2&#45;54&#45;243&#45;17&#45;171.compute&#45;1.amazonaws.com</text>
</g>
<!-- oscied_orchestra&#45;&gt;oscied_orchestra/0 -->
<g id="edge29" class="edge"><title>oscied_orchestra&#45;&gt;oscied_orchestra/0</title>
<path fill="none" stroke="black" d="M1267.59,-455.823C1274.33,-437.003 1284.28,-409.253 1291.91,-387.946"/>
<polygon fill="black" stroke="black" points="1295.26,-388.964 1295.34,-378.369 1288.67,-386.602 1295.26,-388.964"/>
</g>
<!-- oscied_publisher/0 -->
<g id="node11" class="node"><title>oscied_publisher/0</title>
<polygon fill="#dd4814" stroke="#dd4814" points="1300,-58 950,-58 950,-16 1300,-16 1300,-58"/>
<text text-anchor="start" x="1063" y="-43.7333" font-family="Times Roman,serif" font-size="14.00" fill="#ffffff">oscied&#45;publisher/0</text>
<text text-anchor="start" x="958.5" y="-26.9333" font-family="Times Roman,serif" font-size="14.00" fill="#ffffff">ec2&#45;50&#45;17&#45;101&#45;184.compute&#45;1.amazonaws.com</text>
</g>
<!-- oscied_publisher&#45;&gt;oscied_publisher/0 -->
<g id="edge10" class="edge"><title>oscied_publisher&#45;&gt;oscied_publisher/0</title>
<path fill="none" stroke="black" d="M1125,-95.9809C1125,-87.5048 1125,-77.5483 1125,-68.2541"/>
<polygon fill="black" stroke="black" points="1128.5,-68.1564 1125,-58.1564 1121.5,-68.1565 1128.5,-68.1564"/>
</g>
<!-- oscied_webui&#45;&gt;oscied_storage -->
<g id="edge21" class="edge"><title>oscied_webui&#45;&gt;oscied_storage</title>
<path fill="none" stroke="black" d="M878.897,-335.947C844.17,-323.445 799.476,-307.127 760,-292 731.52,-281.086 699.915,-268.435 674.243,-258.019"/>
<text text-anchor="middle" x="855" y="-305.4" font-family="Times Roman,serif" font-size="14.00">storage</text>
</g>
<!-- oscied_webui/0 -->
<g id="node22" class="node"><title>oscied_webui/0</title>
<polygon fill="#dd4814" stroke="#dd4814" points="1104,-258 772,-258 772,-216 1104,-216 1104,-258"/>
<text text-anchor="start" x="886.5" y="-243.733" font-family="Times Roman,serif" font-size="14.00" fill="#ffffff">oscied&#45;webui/0</text>
<text text-anchor="start" x="780.5" y="-226.933" font-family="Times Roman,serif" font-size="14.00" fill="#ffffff">ec2&#45;50&#45;17&#45;72&#45;31.compute&#45;1.amazonaws.com</text>
</g>
<!-- oscied_webui&#45;&gt;oscied_webui/0 -->
<g id="edge24" class="edge"><title>oscied_webui&#45;&gt;oscied_webui/0</title>
<path fill="none" stroke="black" d="M938,-335.823C938,-317.173 938,-289.755 938,-268.526"/>
<polygon fill="black" stroke="black" points="941.5,-268.369 938,-258.369 934.5,-268.369 941.5,-268.369"/>
</g>
</g>
</svg>
