<?xml version="1.0" encoding="UTF-8" standalone="no"?>
<!DOCTYPE svg PUBLIC "-//W3C//DTD SVG 1.1//EN"
 "http://www.w3.org/Graphics/SVG/1.1/DTD/svg11.dtd">
<!-- Generated by graphviz version 2.26.3 (20100126.1600)
 -->
<!-- Title: amazon Pages: 1 -->
<svg width="2160pt" height="308pt"
 viewBox="0.00 0.00 2160.00 308.00" xmlns="http://www.w3.org/2000/svg" xmlns:xlink="http://www.w3.org/1999/xlink">
<g id="graph1" class="graph" transform="scale(1 1) rotate(0) translate(4 304)">
<title>amazon</title>
<polygon fill="white" stroke="white" points="-4,5 -4,-304 2157,-304 2157,5 -4,5"/>
<g id="graph2" class="cluster"><title>cluster_haproxy</title>
<polygon fill="#dedede" stroke="black" points="534,-8 534,-172 716,-172 716,-8 534,-8"/>
<text text-anchor="middle" x="625" y="-155.4" font-family="Times Roman,serif" font-size="14.00">haproxy service</text>
</g>
<g id="graph3" class="cluster"><title>cluster_ceph</title>
<polygon fill="#dedede" stroke="black" points="724,-8 724,-172 1808,-172 1808,-8 724,-8"/>
<text text-anchor="middle" x="1266" y="-155.4" font-family="Times Roman,serif" font-size="14.00">ceph service</text>
</g>
<g id="graph4" class="cluster"><title>cluster_ceph_radosgw</title>
<polygon fill="#dedede" stroke="black" points="8,-88 8,-292 526,-292 526,-88 8,-88"/>
<text text-anchor="middle" x="267" y="-275.4" font-family="Times Roman,serif" font-size="14.00">ceph&#45;radosgw service</text>
</g>
<g id="graph5" class="cluster"><title>cluster_ceph_osd</title>
<polygon fill="#dedede" stroke="black" points="1816,-88 1816,-292 2144,-292 2144,-88 1816,-88"/>
<text text-anchor="middle" x="1980" y="-275.4" font-family="Times Roman,serif" font-size="14.00">ceph&#45;osd service</text>
</g>
<!-- haproxy -->
<g id="node2" class="node"><title>haproxy</title>
<polygon fill="#772953" stroke="#772953" points="708,-138 542,-138 542,-134 538,-134 538,-130 542,-130 542,-104 538,-104 538,-100 542,-100 542,-96 708,-96 708,-138"/>
<polyline fill="none" stroke="#772953" points="542,-134 546,-134 546,-130 542,-130 "/>
<polyline fill="none" stroke="#772953" points="542,-104 546,-104 546,-100 542,-100 "/>
<text text-anchor="start" x="597" y="-123.733" font-family="Times Roman,serif" font-size="14.00" fill="#ffffff">haproxy</text>
<text text-anchor="start" x="550" y="-106.933" font-family="Times Roman,serif" font-size="14.00" fill="#ffffff">cs:precise/haproxy&#45;13</text>
</g>
<!-- haproxy/0 -->
<g id="node3" class="node"><title>haproxy/0</title>
<polygon fill="#dd4814" stroke="#dd4814" points="668,-58 582,-58 582,-16 668,-16 668,-58"/>
<text text-anchor="start" x="590" y="-43.7333" font-family="Times Roman,serif" font-size="14.00" fill="#ffffff">haproxy/0</text>
<text text-anchor="start" x="606.5" y="-26.9333" font-family="Times Roman,serif" font-size="14.00" fill="#ffffff">None</text>
</g>
<!-- haproxy&#45;&gt;haproxy/0 -->
<g id="edge3" class="edge"><title>haproxy&#45;&gt;haproxy/0</title>
<path fill="none" stroke="black" d="M625,-95.9809C625,-87.5048 625,-77.5483 625,-68.2541"/>
<polygon fill="black" stroke="black" points="628.5,-68.1564 625,-58.1564 621.5,-68.1565 628.5,-68.1564"/>
</g>
<!-- ceph_radosgw -->
<g id="node5" class="node"><title>ceph_radosgw</title>
<polygon fill="#772953" stroke="#772953" points="509,-258 213,-258 213,-254 209,-254 209,-250 213,-250 213,-224 209,-224 209,-220 213,-220 213,-216 509,-216 509,-258"/>
<polyline fill="none" stroke="#772953" points="213,-254 217,-254 217,-250 213,-250 "/>
<polyline fill="none" stroke="#772953" points="213,-224 217,-224 217,-220 213,-220 "/>
<text text-anchor="start" x="312.5" y="-243.733" font-family="Times Roman,serif" font-size="14.00" fill="#ffffff">ceph&#45;radosgw</text>
<text text-anchor="start" x="221" y="-226.933" font-family="Times Roman,serif" font-size="14.00" fill="#ffffff">cs:~james&#45;page/quantal/ceph&#45;radosgw&#45;4</text>
</g>
<!-- ceph_radosgw&#45;&gt;haproxy -->
<g id="edge5" class="edge"><title>ceph_radosgw&#45;&gt;haproxy</title>
<path fill="none" stroke="black" d="M422.599,-215.958C455.068,-204.208 495.258,-188.611 530,-172 550.976,-161.971 573.535,-149.01 591.404,-138.189"/>
<text text-anchor="middle" x="558.5" y="-185.4" font-family="Times Roman,serif" font-size="14.00">reverseproxy</text>
</g>
<!-- ceph -->
<g id="node8" class="node"><title>ceph</title>
<polygon fill="#772953" stroke="#772953" points="1387,-138 1145,-138 1145,-134 1141,-134 1141,-130 1145,-130 1145,-104 1141,-104 1141,-100 1145,-100 1145,-96 1387,-96 1387,-138"/>
<polyline fill="none" stroke="#772953" points="1145,-134 1149,-134 1149,-130 1145,-130 "/>
<polyline fill="none" stroke="#772953" points="1145,-104 1149,-104 1149,-100 1145,-100 "/>
<text text-anchor="start" x="1249.5" y="-123.733" font-family="Times Roman,serif" font-size="14.00" fill="#ffffff">ceph</text>
<text text-anchor="start" x="1153" y="-106.933" font-family="Times Roman,serif" font-size="14.00" fill="#ffffff">cs:~james&#45;page/quantal/ceph&#45;13</text>
</g>
<!-- ceph_radosgw&#45;&gt;ceph -->
<g id="edge16" class="edge"><title>ceph_radosgw&#45;&gt;ceph</title>
<path fill="none" stroke="black" d="M509.176,-217.352C686.64,-193.821 980.498,-154.857 1144.96,-133.049"/>
<text text-anchor="middle" x="816.5" y="-185.4" font-family="Times Roman,serif" font-size="14.00">radosgw</text>
</g>
<!-- ceph_radosgw/1 -->
<g id="node20" class="node"><title>ceph_radosgw/1</title>
<polygon fill="#dd4814" stroke="#dd4814" points="142,-138 16,-138 16,-96 142,-96 142,-138"/>
<text text-anchor="start" x="24" y="-123.733" font-family="Times Roman,serif" font-size="14.00" fill="#ffffff">ceph&#45;radosgw/1</text>
<text text-anchor="start" x="60.5" y="-106.933" font-family="Times Roman,serif" font-size="14.00" fill="#ffffff">None</text>
</g>
<!-- ceph_radosgw&#45;&gt;ceph_radosgw/1 -->
<g id="edge21" class="edge"><title>ceph_radosgw&#45;&gt;ceph_radosgw/1</title>
<path fill="none" stroke="black" d="M268.582,-215.965C230.93,-205.485 187.716,-190.94 151,-172 136.689,-164.617 122.309,-154.344 110.205,-144.672"/>
<polygon fill="black" stroke="black" points="112.167,-141.755 102.217,-138.115 107.726,-147.165 112.167,-141.755"/>
</g>
<!-- ceph_radosgw/0 -->
<g id="node22" class="node"><title>ceph_radosgw/0</title>
<polygon fill="#dd4814" stroke="#dd4814" points="518,-138 160,-138 160,-96 518,-96 518,-138"/>
<text text-anchor="start" x="284" y="-123.733" font-family="Times Roman,serif" font-size="14.00" fill="#ffffff">ceph&#45;radosgw/0</text>
<text text-anchor="start" x="168" y="-106.933" font-family="Times Roman,serif" font-size="14.00" fill="#ffffff">ec2&#45;174&#45;129&#45;48&#45;140.compute&#45;1.amazonaws.com</text>
</g>
<!-- ceph_radosgw&#45;&gt;ceph_radosgw/0 -->
<g id="edge23" class="edge"><title>ceph_radosgw&#45;&gt;ceph_radosgw/0</title>
<path fill="none" stroke="black" d="M355.787,-215.599C354.473,-209.897 353.119,-203.729 352,-198 348.813,-181.69 345.831,-163.421 343.528,-148.367"/>
<polygon fill="black" stroke="black" points="346.925,-147.417 341.979,-138.048 340.003,-148.456 346.925,-147.417"/>
</g>
<!-- ceph&#45;&gt;ceph -->
<g id="edge14" class="edge"><title>ceph&#45;&gt;ceph</title>
<path fill="none" stroke="black" d="M1387.06,-122.96C1398.07,-121.721 1405,-119.734 1405,-117 1405,-114.266 1398.07,-112.279 1387.06,-111.04"/>
<text text-anchor="middle" x="1420.5" y="-113.4" font-family="Times Roman,serif" font-size="14.00">mon</text>
</g>
<!-- ceph/2 -->
<g id="node9" class="node"><title>ceph/2</title>
<polygon fill="#dd4814" stroke="#dd4814" points="1082,-58 732,-58 732,-16 1082,-16 1082,-58"/>
<text text-anchor="start" x="884" y="-43.7333" font-family="Times Roman,serif" font-size="14.00" fill="#ffffff">ceph/2</text>
<text text-anchor="start" x="740.5" y="-26.9333" font-family="Times Roman,serif" font-size="14.00" fill="#ffffff">ec2&#45;54&#45;242&#45;82&#45;159.compute&#45;1.amazonaws.com</text>
</g>
<!-- ceph&#45;&gt;ceph/2 -->
<g id="edge8" class="edge"><title>ceph&#45;&gt;ceph/2</title>
<path fill="none" stroke="black" d="M1171.68,-95.9809C1122.4,-85.0005 1061.98,-71.5359 1011.31,-60.2452"/>
<polygon fill="black" stroke="black" points="1011.84,-56.7764 1001.32,-58.0174 1010.31,-63.6088 1011.84,-56.7764"/>
</g>
<!-- ceph/1 -->
<g id="node11" class="node"><title>ceph/1</title>
<polygon fill="#dd4814" stroke="#dd4814" points="1432,-58 1100,-58 1100,-16 1432,-16 1432,-58"/>
<text text-anchor="start" x="1243" y="-43.7333" font-family="Times Roman,serif" font-size="14.00" fill="#ffffff">ceph/1</text>
<text text-anchor="start" x="1108.5" y="-26.9333" font-family="Times Roman,serif" font-size="14.00" fill="#ffffff">ec2&#45;23&#45;23&#45;53&#45;65.compute&#45;1.amazonaws.com</text>
</g>
<!-- ceph&#45;&gt;ceph/1 -->
<g id="edge10" class="edge"><title>ceph&#45;&gt;ceph/1</title>
<path fill="none" stroke="black" d="M1266,-95.9809C1266,-87.5048 1266,-77.5483 1266,-68.2541"/>
<polygon fill="black" stroke="black" points="1269.5,-68.1564 1266,-58.1564 1262.5,-68.1565 1269.5,-68.1564"/>
</g>
<!-- ceph/0 -->
<g id="node13" class="node"><title>ceph/0</title>
<polygon fill="#dd4814" stroke="#dd4814" points="1800,-58 1450,-58 1450,-16 1800,-16 1800,-58"/>
<text text-anchor="start" x="1602" y="-43.7333" font-family="Times Roman,serif" font-size="14.00" fill="#ffffff">ceph/0</text>
<text text-anchor="start" x="1458.5" y="-26.9333" font-family="Times Roman,serif" font-size="14.00" fill="#ffffff">ec2&#45;23&#45;22&#45;245&#45;148.compute&#45;1.amazonaws.com</text>
</g>
<!-- ceph&#45;&gt;ceph/0 -->
<g id="edge12" class="edge"><title>ceph&#45;&gt;ceph/0</title>
<path fill="none" stroke="black" d="M1360.32,-95.9809C1409.6,-85.0005 1470.02,-71.5359 1520.69,-60.2452"/>
<polygon fill="black" stroke="black" points="1521.69,-63.6088 1530.68,-58.0174 1520.16,-56.7764 1521.69,-63.6088"/>
</g>
<!-- ceph_osd -->
<g id="node17" class="node"><title>ceph_osd</title>
<polygon fill="#772953" stroke="#772953" points="2098,-258 1836,-258 1836,-254 1832,-254 1832,-250 1836,-250 1836,-224 1832,-224 1832,-220 1836,-220 1836,-216 2098,-216 2098,-258"/>
<polyline fill="none" stroke="#772953" points="1836,-254 1840,-254 1840,-250 1836,-250 "/>
<polyline fill="none" stroke="#772953" points="1836,-224 1840,-224 1840,-220 1836,-220 "/>
<text text-anchor="start" x="1936.5" y="-243.733" font-family="Times Roman,serif" font-size="14.00" fill="#ffffff">ceph&#45;osd</text>
<text text-anchor="start" x="1844.5" y="-226.933" font-family="Times Roman,serif" font-size="14.00" fill="#ffffff">cs:~james&#45;page/quantal/ceph&#45;osd&#45;8</text>
</g>
<!-- ceph_osd&#45;&gt;ceph -->
<g id="edge18" class="edge"><title>ceph_osd&#45;&gt;ceph</title>
<path fill="none" stroke="black" d="M1844.09,-215.96C1715.5,-193.946 1514.89,-159.605 1387,-137.714"/>
<text text-anchor="middle" x="1733" y="-185.4" font-family="Times Roman,serif" font-size="14.00">osd</text>
</g>
<!-- ceph_osd/2 -->
<g id="node25" class="node"><title>ceph_osd/2</title>
<polygon fill="#dd4814" stroke="#dd4814" points="1916,-138 1824,-138 1824,-96 1916,-96 1916,-138"/>
<text text-anchor="start" x="1832.5" y="-123.733" font-family="Times Roman,serif" font-size="14.00" fill="#ffffff">ceph&#45;osd/2</text>
<text text-anchor="start" x="1851.5" y="-106.933" font-family="Times Roman,serif" font-size="14.00" fill="#ffffff">None</text>
</g>
<!-- ceph_osd&#45;&gt;ceph_osd/2 -->
<g id="edge26" class="edge"><title>ceph_osd&#45;&gt;ceph_osd/2</title>
<path fill="none" stroke="black" d="M1949.88,-215.823C1934.26,-196.492 1911.01,-167.74 1893.62,-146.226"/>
<polygon fill="black" stroke="black" points="1896.28,-143.946 1887.27,-138.369 1890.84,-148.347 1896.28,-143.946"/>
</g>
<!-- ceph_osd/0 -->
<g id="node27" class="node"><title>ceph_osd/0</title>
<polygon fill="#dd4814" stroke="#dd4814" points="2026,-138 1934,-138 1934,-96 2026,-96 2026,-138"/>
<text text-anchor="start" x="1942.5" y="-123.733" font-family="Times Roman,serif" font-size="14.00" fill="#ffffff">ceph&#45;osd/0</text>
<text text-anchor="start" x="1961.5" y="-106.933" font-family="Times Roman,serif" font-size="14.00" fill="#ffffff">None</text>
</g>
<!-- ceph_osd&#45;&gt;ceph_osd/0 -->
<g id="edge28" class="edge"><title>ceph_osd&#45;&gt;ceph_osd/0</title>
<path fill="none" stroke="black" d="M1969.29,-215.823C1971.31,-197.173 1974.28,-169.755 1976.58,-148.526"/>
<polygon fill="black" stroke="black" points="1980.09,-148.688 1977.68,-138.369 1973.13,-147.934 1980.09,-148.688"/>
</g>
<!-- ceph_osd/1 -->
<g id="node29" class="node"><title>ceph_osd/1</title>
<polygon fill="#dd4814" stroke="#dd4814" points="2136,-138 2044,-138 2044,-96 2136,-96 2136,-138"/>
<text text-anchor="start" x="2052.5" y="-123.733" font-family="Times Roman,serif" font-size="14.00" fill="#ffffff">ceph&#45;osd/1</text>
<text text-anchor="start" x="2071.5" y="-106.933" font-family="Times Roman,serif" font-size="14.00" fill="#ffffff">None</text>
</g>
<!-- ceph_osd&#45;&gt;ceph_osd/1 -->
<g id="edge30" class="edge"><title>ceph_osd&#45;&gt;ceph_osd/1</title>
<path fill="none" stroke="black" d="M1989.48,-215.755C2002.79,-203.118 2019.94,-186.728 2035,-172 2043.81,-163.384 2053.33,-153.921 2061.93,-145.31"/>
<polygon fill="black" stroke="black" points="2064.64,-147.558 2069.22,-138.005 2059.68,-142.616 2064.64,-147.558"/>
</g>
</g>
</svg>
