<?xml version="1.0" encoding="UTF-8" standalone="no"?>
<!DOCTYPE svg PUBLIC "-//W3C//DTD SVG 1.1//EN"
 "http://www.w3.org/Graphics/SVG/1.1/DTD/svg11.dtd">
<!-- Generated by graphviz version 2.26.3 (20100126.1600)
 -->
<!-- Title: local Pages: 1 -->
<svg width="1318pt" height="548pt"
 viewBox="0.00 0.00 1318.00 548.00" xmlns="http://www.w3.org/2000/svg" xmlns:xlink="http://www.w3.org/1999/xlink">
<g id="graph1" class="graph" transform="scale(1 1) rotate(0) translate(4 544)">
<title>local</title>
<polygon fill="white" stroke="white" points="-4,5 -4,-544 1315,-544 1315,5 -4,5"/>
<g id="graph2" class="cluster"><title>cluster_haproxy</title>
<polygon fill="#dedede" stroke="black" points="8,-8 8,-172 190,-172 190,-8 8,-8"/>
<text text-anchor="middle" x="99" y="-155.4" font-family="Times Roman,serif" font-size="14.00">haproxy service</text>
</g>
<g id="graph3" class="cluster"><title>cluster_oscied_transform</title>
<polygon fill="#dedede" stroke="black" points="1020,-88 1020,-292 1302,-292 1302,-88 1020,-88"/>
<text text-anchor="middle" x="1161" y="-275.4" font-family="Times Roman,serif" font-size="14.00">oscied&#45;transform service</text>
</g>
<g id="graph4" class="cluster"><title>cluster_oscied_publisher</title>
<polygon fill="#dedede" stroke="black" points="462,-88 462,-292 738,-292 738,-88 462,-88"/>
<text text-anchor="middle" x="600" y="-275.4" font-family="Times Roman,serif" font-size="14.00">oscied&#45;publisher service</text>
</g>
<g id="graph5" class="cluster"><title>cluster_oscied_webui</title>
<polygon fill="#dedede" stroke="black" points="198,-88 198,-292 454,-292 454,-88 198,-88"/>
<text text-anchor="middle" x="326" y="-275.4" font-family="Times Roman,serif" font-size="14.00">oscied&#45;webui service</text>
</g>
<g id="graph6" class="cluster"><title>cluster_oscied_storage</title>
<polygon fill="#dedede" stroke="black" points="746,-208 746,-412 1012,-412 1012,-208 746,-208"/>
<text text-anchor="middle" x="879" y="-395.4" font-family="Times Roman,serif" font-size="14.00">oscied&#45;storage service</text>
</g>
<g id="graph7" class="cluster"><title>cluster_oscied_orchestra</title>
<polygon fill="#dedede" stroke="black" points="458,-328 458,-532 738,-532 738,-328 458,-328"/>
<text text-anchor="middle" x="598" y="-515.4" font-family="Times Roman,serif" font-size="14.00">oscied&#45;orchestra service</text>
</g>
<!-- haproxy -->
<g id="node2" class="node"><title>haproxy</title>
<polygon fill="#772953" stroke="#772953" points="182,-138 16,-138 16,-134 12,-134 12,-130 16,-130 16,-104 12,-104 12,-100 16,-100 16,-96 182,-96 182,-138"/>
<polyline fill="none" stroke="#772953" points="16,-134 20,-134 20,-130 16,-130 "/>
<polyline fill="none" stroke="#772953" points="16,-104 20,-104 20,-100 16,-100 "/>
<text text-anchor="start" x="71" y="-123.733" font-family="Times Roman,serif" font-size="14.00" fill="#ffffff">haproxy</text>
<text text-anchor="start" x="24" y="-106.933" font-family="Times Roman,serif" font-size="14.00" fill="#ffffff">cs:precise/haproxy&#45;14</text>
</g>
<!-- haproxy/0 -->
<g id="node3" class="node"><title>haproxy/0</title>
<polygon fill="#dd4814" stroke="#dd4814" points="146,-58 52,-58 52,-16 146,-16 146,-58"/>
<text text-anchor="start" x="64" y="-43.7333" font-family="Times Roman,serif" font-size="14.00" fill="#ffffff">haproxy/0</text>
<text text-anchor="start" x="60.5" y="-26.9333" font-family="Times Roman,serif" font-size="14.00" fill="#ffffff">10.0.3.205</text>
</g>
<!-- haproxy&#45;&gt;haproxy/0 -->
<g id="edge3" class="edge"><title>haproxy&#45;&gt;haproxy/0</title>
<path fill="none" stroke="black" d="M99,-95.9809C99,-87.5048 99,-77.5483 99,-68.2541"/>
<polygon fill="black" stroke="black" points="102.5,-68.1564 99,-58.1564 95.5001,-68.1565 102.5,-68.1564"/>
</g>
<!-- oscied_webui -->
<g id="node5" class="node"><title>oscied_webui</title>
<polygon fill="#772953" stroke="#772953" points="446,-258 206,-258 206,-254 202,-254 202,-250 206,-250 206,-224 202,-224 202,-220 206,-220 206,-216 446,-216 446,-258"/>
<polyline fill="none" stroke="#772953" points="206,-254 210,-254 210,-250 206,-250 "/>
<polyline fill="none" stroke="#772953" points="206,-224 210,-224 210,-220 206,-220 "/>
<text text-anchor="start" x="281" y="-243.733" font-family="Times Roman,serif" font-size="14.00" fill="#ffffff">oscied&#45;webui</text>
<text text-anchor="start" x="214.5" y="-226.933" font-family="Times Roman,serif" font-size="14.00" fill="#ffffff">local:quantal/oscied&#45;webui&#45;1054</text>
</g>
<!-- oscied_webui&#45;&gt;haproxy -->
<g id="edge5" class="edge"><title>oscied_webui&#45;&gt;haproxy</title>
<path fill="none" stroke="black" d="M270.566,-215.997C257.412,-210.534 243.558,-204.378 231,-198 195.281,-179.858 156.425,-155.395 130.184,-138.114"/>
<text text-anchor="middle" x="276.5" y="-185.4" font-family="Times Roman,serif" font-size="14.00">reverseproxy</text>
</g>
<!-- oscied_webui/0 -->
<g id="node22" class="node"><title>oscied_webui/0</title>
<polygon fill="#dd4814" stroke="#dd4814" points="386,-138 266,-138 266,-96 386,-96 386,-138"/>
<text text-anchor="start" x="274.5" y="-123.733" font-family="Times Roman,serif" font-size="14.00" fill="#ffffff">oscied&#45;webui/0</text>
<text text-anchor="start" x="287.5" y="-106.933" font-family="Times Roman,serif" font-size="14.00" fill="#ffffff">10.0.3.203</text>
</g>
<!-- oscied_webui&#45;&gt;oscied_webui/0 -->
<g id="edge22" class="edge"><title>oscied_webui&#45;&gt;oscied_webui/0</title>
<path fill="none" stroke="black" d="M326,-215.823C326,-197.173 326,-169.755 326,-148.526"/>
<polygon fill="black" stroke="black" points="329.5,-148.369 326,-138.369 322.5,-148.369 329.5,-148.369"/>
</g>
<!-- oscied_transform -->
<g id="node8" class="node"><title>oscied_transform</title>
<polygon fill="#772953" stroke="#772953" points="1294,-258 1028,-258 1028,-254 1024,-254 1024,-250 1028,-250 1028,-224 1024,-224 1024,-220 1028,-220 1028,-216 1294,-216 1294,-258"/>
<polyline fill="none" stroke="#772953" points="1028,-254 1032,-254 1032,-250 1028,-250 "/>
<polyline fill="none" stroke="#772953" points="1028,-224 1032,-224 1032,-220 1028,-220 "/>
<text text-anchor="start" x="1103.5" y="-243.733" font-family="Times Roman,serif" font-size="14.00" fill="#ffffff">oscied&#45;transform</text>
<text text-anchor="start" x="1036.5" y="-226.933" font-family="Times Roman,serif" font-size="14.00" fill="#ffffff">local:quantal/oscied&#45;transform&#45;1054</text>
</g>
<!-- oscied_transform/0 -->
<g id="node9" class="node"><title>oscied_transform/0</title>
<polygon fill="#dd4814" stroke="#dd4814" points="1234,-138 1088,-138 1088,-96 1234,-96 1234,-138"/>
<text text-anchor="start" x="1096.5" y="-123.733" font-family="Times Roman,serif" font-size="14.00" fill="#ffffff">oscied&#45;transform/0</text>
<text text-anchor="start" x="1122.5" y="-106.933" font-family="Times Roman,serif" font-size="14.00" fill="#ffffff">10.0.3.195</text>
</g>
<!-- oscied_transform&#45;&gt;oscied_transform/0 -->
<g id="edge8" class="edge"><title>oscied_transform&#45;&gt;oscied_transform/0</title>
<path fill="none" stroke="black" d="M1161,-215.823C1161,-197.173 1161,-169.755 1161,-148.526"/>
<polygon fill="black" stroke="black" points="1164.5,-148.369 1161,-138.369 1157.5,-148.369 1164.5,-148.369"/>
</g>
<!-- oscied_storage -->
<g id="node11" class="node"><title>oscied_storage</title>
<polygon fill="#772953" stroke="#772953" points="1004,-378 754,-378 754,-374 750,-374 750,-370 754,-370 754,-344 750,-344 750,-340 754,-340 754,-336 1004,-336 1004,-378"/>
<polyline fill="none" stroke="#772953" points="754,-374 758,-374 758,-370 754,-370 "/>
<polyline fill="none" stroke="#772953" points="754,-344 758,-344 758,-340 754,-340 "/>
<text text-anchor="start" x="829" y="-363.733" font-family="Times Roman,serif" font-size="14.00" fill="#ffffff">oscied&#45;storage</text>
<text text-anchor="start" x="762.5" y="-346.933" font-family="Times Roman,serif" font-size="14.00" fill="#ffffff">local:quantal/oscied&#45;storage&#45;1054</text>
</g>
<!-- oscied_storage&#45;&gt;oscied_webui -->
<g id="edge26" class="edge"><title>oscied_storage&#45;&gt;oscied_webui</title>
<path fill="none" stroke="black" d="M784.492,-335.932C770.287,-333.074 755.784,-330.328 742,-328 616.545,-306.808 580.942,-324.763 458,-292 427.054,-283.753 393.778,-269.852 368.378,-258.089"/>
<text text-anchor="middle" x="686" y="-305.4" font-family="Times Roman,serif" font-size="14.00">storage</text>
</g>
<!-- oscied_storage&#45;&gt;oscied_transform -->
<g id="edge10" class="edge"><title>oscied_storage&#45;&gt;oscied_transform</title>
<path fill="none" stroke="black" d="M928.443,-335.96C979.939,-314.047 1060.14,-279.92 1111.61,-258.016"/>
<text text-anchor="middle" x="1038" y="-305.4" font-family="Times Roman,serif" font-size="14.00">storage</text>
</g>
<!-- oscied_publisher -->
<g id="node16" class="node"><title>oscied_publisher</title>
<polygon fill="#772953" stroke="#772953" points="730,-258 470,-258 470,-254 466,-254 466,-250 470,-250 470,-224 466,-224 466,-220 470,-220 470,-216 730,-216 730,-258"/>
<polyline fill="none" stroke="#772953" points="470,-254 474,-254 474,-250 470,-250 "/>
<polyline fill="none" stroke="#772953" points="470,-224 474,-224 474,-220 470,-220 "/>
<text text-anchor="start" x="544.5" y="-243.733" font-family="Times Roman,serif" font-size="14.00" fill="#ffffff">oscied&#45;publisher</text>
<text text-anchor="start" x="478" y="-226.933" font-family="Times Roman,serif" font-size="14.00" fill="#ffffff">local:quantal/oscied&#45;publisher&#45;1054</text>
</g>
<!-- oscied_storage&#45;&gt;oscied_publisher -->
<g id="edge19" class="edge"><title>oscied_storage&#45;&gt;oscied_publisher</title>
<path fill="none" stroke="black" d="M830.083,-335.96C779.135,-314.047 699.788,-279.92 648.861,-258.016"/>
<text text-anchor="middle" x="807" y="-305.4" font-family="Times Roman,serif" font-size="14.00">storage</text>
</g>
<!-- oscied_storage/0 -->
<g id="node27" class="node"><title>oscied_storage/0</title>
<polygon fill="#dd4814" stroke="#dd4814" points="944,-258 814,-258 814,-216 944,-216 944,-258"/>
<text text-anchor="start" x="822.5" y="-243.733" font-family="Times Roman,serif" font-size="14.00" fill="#ffffff">oscied&#45;storage/0</text>
<text text-anchor="start" x="840.5" y="-226.933" font-family="Times Roman,serif" font-size="14.00" fill="#ffffff">10.0.3.253</text>
</g>
<!-- oscied_storage&#45;&gt;oscied_storage/0 -->
<g id="edge29" class="edge"><title>oscied_storage&#45;&gt;oscied_storage/0</title>
<path fill="none" stroke="black" d="M879,-335.823C879,-317.173 879,-289.755 879,-268.526"/>
<polygon fill="black" stroke="black" points="882.5,-268.369 879,-258.369 875.5,-268.369 882.5,-268.369"/>
</g>
<!-- oscied_orchestra -->
<g id="node13" class="node"><title>oscied_orchestra</title>
<polygon fill="#772953" stroke="#772953" points="730,-498 466,-498 466,-494 462,-494 462,-490 466,-490 466,-464 462,-464 462,-460 466,-460 466,-456 730,-456 730,-498"/>
<polyline fill="none" stroke="#772953" points="466,-494 470,-494 470,-490 466,-490 "/>
<polyline fill="none" stroke="#772953" points="466,-464 470,-464 470,-460 466,-460 "/>
<text text-anchor="start" x="541.5" y="-483.733" font-family="Times Roman,serif" font-size="14.00" fill="#ffffff">oscied&#45;orchestra</text>
<text text-anchor="start" x="474.5" y="-466.933" font-family="Times Roman,serif" font-size="14.00" fill="#ffffff">local:quantal/oscied&#45;orchestra&#45;1055</text>
</g>
<!-- oscied_orchestra&#45;&gt;oscied_webui -->
<g id="edge24" class="edge"><title>oscied_orchestra&#45;&gt;oscied_webui</title>
<path fill="none" stroke="black" d="M547.766,-455.857C536.416,-450.485 524.595,-444.405 514,-438 434.674,-390.044 367.612,-299.341 339.782,-258.22"/>
<text text-anchor="middle" x="487.5" y="-353.4" font-family="Times Roman,serif" font-size="14.00">api</text>
</g>
<!-- oscied_orchestra&#45;&gt;oscied_transform -->
<g id="edge12" class="edge"><title>oscied_orchestra&#45;&gt;oscied_transform</title>
<path fill="none" stroke="black" d="M730.053,-466.689C833.73,-456.727 968.266,-439.114 1016,-412 1081.36,-374.877 1129.74,-296.098 1150.22,-258.216"/>
<text text-anchor="middle" x="1138" y="-353.4" font-family="Times Roman,serif" font-size="14.00">transform</text>
</g>
<!-- oscied_orchestra&#45;&gt;oscied_storage -->
<g id="edge31" class="edge"><title>oscied_orchestra&#45;&gt;oscied_storage</title>
<path fill="none" stroke="black" d="M647.268,-455.96C698.581,-434.047 778.497,-399.92 829.789,-378.016"/>
<text text-anchor="middle" x="757" y="-425.4" font-family="Times Roman,serif" font-size="14.00">storage</text>
</g>
<!-- oscied_orchestra&#45;&gt;oscied_publisher -->
<g id="edge17" class="edge"><title>oscied_orchestra&#45;&gt;oscied_publisher</title>
<path fill="none" stroke="black" d="M555.875,-455.856C539.329,-445.162 522.136,-430.487 513,-412 496.46,-378.53 509.706,-365.188 513,-328 514.115,-315.408 511.434,-310.802 518,-300 528.444,-282.819 545.445,-268.612 561.267,-258.067"/>
<text text-anchor="middle" x="545" y="-353.4" font-family="Times Roman,serif" font-size="14.00">publisher</text>
</g>
<!-- oscied_orchestra/0 -->
<g id="node31" class="node"><title>oscied_orchestra/0</title>
<polygon fill="#dd4814" stroke="#dd4814" points="730,-378 586,-378 586,-336 730,-336 730,-378"/>
<text text-anchor="start" x="594.5" y="-363.733" font-family="Times Roman,serif" font-size="14.00" fill="#ffffff">oscied&#45;orchestra/0</text>
<text text-anchor="start" x="624" y="-346.933" font-family="Times Roman,serif" font-size="14.00" fill="#ffffff">10.0.3.42</text>
</g>
<!-- oscied_orchestra&#45;&gt;oscied_orchestra/0 -->
<g id="edge34" class="edge"><title>oscied_orchestra&#45;&gt;oscied_orchestra/0</title>
<path fill="none" stroke="black" d="M608.589,-455.823C618.084,-436.833 632.125,-408.75 642.815,-387.37"/>
<polygon fill="black" stroke="black" points="645.974,-388.879 647.315,-378.369 639.713,-385.748 645.974,-388.879"/>
</g>
<!-- oscied_publisher/0 -->
<g id="node17" class="node"><title>oscied_publisher/0</title>
<polygon fill="#dd4814" stroke="#dd4814" points="670,-138 530,-138 530,-96 670,-96 670,-138"/>
<text text-anchor="start" x="538" y="-123.733" font-family="Times Roman,serif" font-size="14.00" fill="#ffffff">oscied&#45;publisher/0</text>
<text text-anchor="start" x="566" y="-106.933" font-family="Times Roman,serif" font-size="14.00" fill="#ffffff">10.0.3.80</text>
</g>
<!-- oscied_publisher&#45;&gt;oscied_publisher/0 -->
<g id="edge15" class="edge"><title>oscied_publisher&#45;&gt;oscied_publisher/0</title>
<path fill="none" stroke="black" d="M600,-215.823C600,-197.173 600,-169.755 600,-148.526"/>
<polygon fill="black" stroke="black" points="603.5,-148.369 600,-138.369 596.5,-148.369 603.5,-148.369"/>
</g>
</g>
</svg>
