<?xml version="1.0" encoding="UTF-8" standalone="no"?>
<!DOCTYPE svg PUBLIC "-//W3C//DTD SVG 1.1//EN"
 "http://www.w3.org/Graphics/SVG/1.1/DTD/svg11.dtd">
<!-- Generated by graphviz version 2.26.3 (20100126.1600)
 -->
<!-- Title: amazon Pages: 1 -->
<svg width="764pt" height="186pt"
 viewBox="0.00 0.00 764.00 186.00" xmlns="http://www.w3.org/2000/svg" xmlns:xlink="http://www.w3.org/1999/xlink">
<g id="graph1" class="graph" transform="scale(1 1) rotate(0) translate(4 182)">
<title>amazon</title>
<polygon fill="white" stroke="white" points="-4,5 -4,-182 761,-182 761,5 -4,5"/>
<g id="graph2" class="cluster"><title>cluster_oscied_transform</title>
<polygon fill="#dedede" stroke="black" points="8,-8 8,-170 374,-170 374,-8 8,-8"/>
<text text-anchor="middle" x="191" y="-153.4" font-family="Times Roman,serif" font-size="14.00">oscied&#45;transform service</text>
</g>
<g id="graph3" class="cluster"><title>cluster_oscied_publisher</title>
<polygon fill="#dedede" stroke="black" points="382,-8 382,-170 748,-170 748,-8 382,-8"/>
<text text-anchor="middle" x="565" y="-153.4" font-family="Times Roman,serif" font-size="14.00">oscied&#45;publisher service</text>
</g>
<!-- oscied_transform -->
<g id="node2" class="node"><title>oscied_transform</title>
<polygon fill="#772953" stroke="#772953" points="321,-136 61,-136 61,-132 57,-132 57,-128 61,-128 61,-102 57,-102 57,-98 61,-98 61,-94 321,-94 321,-136"/>
<polyline fill="none" stroke="#772953" points="61,-132 65,-132 65,-128 61,-128 "/>
<polyline fill="none" stroke="#772953" points="61,-102 65,-102 65,-98 61,-98 "/>
<text text-anchor="start" x="133.5" y="-121.733" font-family="Times Roman,serif" font-size="14.00" fill="#ffffff">oscied&#45;transform</text>
<text text-anchor="start" x="69" y="-104.933" font-family="Times Roman,serif" font-size="14.00" fill="#ffffff">local:precise/oscied&#45;transform&#45;1276</text>
</g>
<!-- oscied_transform/0 -->
<g id="node3" class="node"><title>oscied_transform/0</title>
<polygon fill="#dd4814" stroke="#dd4814" points="366,-58 16,-58 16,-16 366,-16 366,-58"/>
<text text-anchor="start" x="126.5" y="-43.7333" font-family="Times Roman,serif" font-size="14.00" fill="#ffffff">oscied&#45;transform/0</text>
<text text-anchor="start" x="24.5" y="-26.9333" font-family="Times Roman,serif" font-size="14.00" fill="#ffffff">ec2&#45;107&#45;22&#45;145&#45;50.compute&#45;1.amazonaws.com</text>
</g>
<!-- oscied_transform&#45;&gt;oscied_transform/0 -->
<g id="edge3" class="edge"><title>oscied_transform&#45;&gt;oscied_transform/0</title>
<path fill="none" stroke="black" d="M191,-93.6862C191,-85.7975 191,-76.684 191,-68.1029"/>
<polygon fill="black" stroke="black" points="194.5,-68.018 191,-58.018 187.5,-68.018 194.5,-68.018"/>
</g>
<!-- oscied_publisher -->
<g id="node6" class="node"><title>oscied_publisher</title>
<polygon fill="#772953" stroke="#772953" points="693,-136 437,-136 437,-132 433,-132 433,-128 437,-128 437,-102 433,-102 433,-98 437,-98 437,-94 693,-94 693,-136"/>
<polyline fill="none" stroke="#772953" points="437,-132 441,-132 441,-128 437,-128 "/>
<polyline fill="none" stroke="#772953" points="437,-102 441,-102 441,-98 437,-98 "/>
<text text-anchor="start" x="509.5" y="-121.733" font-family="Times Roman,serif" font-size="14.00" fill="#ffffff">oscied&#45;publisher</text>
<text text-anchor="start" x="445.5" y="-104.933" font-family="Times Roman,serif" font-size="14.00" fill="#ffffff">local:precise/oscied&#45;publisher&#45;1275</text>
</g>
<!-- oscied_publisher/0 -->
<g id="node7" class="node"><title>oscied_publisher/0</title>
<polygon fill="#dd4814" stroke="#dd4814" points="740,-58 390,-58 390,-16 740,-16 740,-58"/>
<text text-anchor="start" x="503" y="-43.7333" font-family="Times Roman,serif" font-size="14.00" fill="#ffffff">oscied&#45;publisher/0</text>
<text text-anchor="start" x="398.5" y="-26.9333" font-family="Times Roman,serif" font-size="14.00" fill="#ffffff">ec2&#45;54&#45;235&#45;52&#45;202.compute&#45;1.amazonaws.com</text>
</g>
<!-- oscied_publisher&#45;&gt;oscied_publisher/0 -->
<g id="edge6" class="edge"><title>oscied_publisher&#45;&gt;oscied_publisher/0</title>
<path fill="none" stroke="black" d="M565,-93.6862C565,-85.7975 565,-76.684 565,-68.1029"/>
<polygon fill="black" stroke="black" points="568.5,-68.018 565,-58.018 561.5,-68.018 568.5,-68.018"/>
</g>
</g>
</svg>
