<?xml version="1.0" encoding="UTF-8" standalone="no"?>
<!DOCTYPE svg PUBLIC "-//W3C//DTD SVG 1.1//EN"
 "http://www.w3.org/Graphics/SVG/1.1/DTD/svg11.dtd">
<!-- Generated by graphviz version 2.26.3 (20100126.1600)
 -->
<!-- Title: maas Pages: 1 -->
<svg width="1121pt" height="548pt"
 viewBox="0.00 0.00 1121.00 548.00" xmlns="http://www.w3.org/2000/svg" xmlns:xlink="http://www.w3.org/1999/xlink">
<g id="graph1" class="graph" transform="scale(1 1) rotate(0) translate(4 544)">
<title>maas</title>
<polygon fill="white" stroke="white" points="-4,5 -4,-544 1118,-544 1118,5 -4,5"/>
<g id="graph2" class="cluster"><title>cluster_oscied_transform</title>
<polygon fill="#dedede" stroke="black" points="8,-8 8,-172 284,-172 284,-8 8,-8"/>
<text text-anchor="middle" x="146" y="-155.4" font-family="Times Roman,serif" font-size="14.00">oscied&#45;transform service</text>
</g>
<g id="graph3" class="cluster"><title>cluster_oscied_publisher</title>
<polygon fill="#dedede" stroke="black" points="693,-8 693,-172 965,-172 965,-8 693,-8"/>
<text text-anchor="middle" x="829" y="-155.4" font-family="Times Roman,serif" font-size="14.00">oscied&#45;publisher service</text>
</g>
<g id="graph4" class="cluster"><title>cluster_oscied_storage</title>
<polygon fill="#dedede" stroke="black" points="292,-88 292,-292 554,-292 554,-88 292,-88"/>
<text text-anchor="middle" x="423" y="-275.4" font-family="Times Roman,serif" font-size="14.00">oscied&#45;storage service</text>
</g>
<g id="graph5" class="cluster"><title>cluster_oscied_webui</title>
<polygon fill="#dedede" stroke="black" points="562,-208 562,-412 814,-412 814,-208 562,-208"/>
<text text-anchor="middle" x="688" y="-395.4" font-family="Times Roman,serif" font-size="14.00">oscied&#45;webui service</text>
</g>
<g id="graph6" class="cluster"><title>cluster_oscied_orchestra</title>
<polygon fill="#dedede" stroke="black" points="822,-328 822,-532 1096,-532 1096,-328 822,-328"/>
<text text-anchor="middle" x="959" y="-515.4" font-family="Times Roman,serif" font-size="14.00">oscied&#45;orchestra service</text>
</g>
<!-- oscied_transform -->
<g id="node2" class="node"><title>oscied_transform</title>
<polygon fill="#772953" stroke="#772953" points="276,-138 16,-138 16,-134 12,-134 12,-130 16,-130 16,-104 12,-104 12,-100 16,-100 16,-96 276,-96 276,-138"/>
<polyline fill="none" stroke="#772953" points="16,-134 20,-134 20,-130 16,-130 "/>
<polyline fill="none" stroke="#772953" points="16,-104 20,-104 20,-100 16,-100 "/>
<text text-anchor="start" x="88.5" y="-123.733" font-family="Times Roman,serif" font-size="14.00" fill="#ffffff">oscied&#45;transform</text>
<text text-anchor="start" x="24" y="-106.933" font-family="Times Roman,serif" font-size="14.00" fill="#ffffff">local:precise/oscied&#45;transform&#45;1251</text>
</g>
<!-- oscied_transform/0 -->
<g id="node3" class="node"><title>oscied_transform/0</title>
<polygon fill="#dd4814" stroke="#dd4814" points="254,-58 38,-58 38,-16 254,-16 254,-58"/>
<text text-anchor="start" x="81.5" y="-43.7333" font-family="Times Roman,serif" font-size="14.00" fill="#ffffff">oscied&#45;transform/0</text>
<text text-anchor="start" x="46.5" y="-26.9333" font-family="Times Roman,serif" font-size="14.00" fill="#ffffff">OSCIED&#45;Node02.localdomain</text>
</g>
<!-- oscied_transform&#45;&gt;oscied_transform/0 -->
<g id="edge3" class="edge"><title>oscied_transform&#45;&gt;oscied_transform/0</title>
<path fill="none" stroke="black" d="M146,-95.9809C146,-87.5048 146,-77.5483 146,-68.2541"/>
<polygon fill="black" stroke="black" points="149.5,-68.1564 146,-58.1564 142.5,-68.1565 149.5,-68.1564"/>
</g>
<!-- oscied_storage -->
<g id="node5" class="node"><title>oscied_storage</title>
<polygon fill="#772953" stroke="#772953" points="546,-258 300,-258 300,-254 296,-254 296,-250 300,-250 300,-224 296,-224 296,-220 300,-220 300,-216 546,-216 546,-258"/>
<polyline fill="none" stroke="#772953" points="300,-254 304,-254 304,-250 300,-250 "/>
<polyline fill="none" stroke="#772953" points="300,-224 304,-224 304,-220 300,-220 "/>
<text text-anchor="start" x="373" y="-243.733" font-family="Times Roman,serif" font-size="14.00" fill="#ffffff">oscied&#45;storage</text>
<text text-anchor="start" x="308.5" y="-226.933" font-family="Times Roman,serif" font-size="14.00" fill="#ffffff">local:precise/oscied&#45;storage&#45;1251</text>
</g>
<!-- oscied_storage&#45;&gt;oscied_transform -->
<g id="edge5" class="edge"><title>oscied_storage&#45;&gt;oscied_transform</title>
<path fill="none" stroke="black" d="M374.433,-215.96C323.851,-194.047 245.073,-159.92 194.511,-138.016"/>
<text text-anchor="middle" x="352" y="-185.4" font-family="Times Roman,serif" font-size="14.00">storage</text>
</g>
<!-- oscied_publisher -->
<g id="node10" class="node"><title>oscied_publisher</title>
<polygon fill="#772953" stroke="#772953" points="957,-138 701,-138 701,-134 697,-134 697,-130 701,-130 701,-104 697,-104 697,-100 701,-100 701,-96 957,-96 957,-138"/>
<polyline fill="none" stroke="#772953" points="701,-134 705,-134 705,-130 701,-130 "/>
<polyline fill="none" stroke="#772953" points="701,-104 705,-104 705,-100 701,-100 "/>
<text text-anchor="start" x="773.5" y="-123.733" font-family="Times Roman,serif" font-size="14.00" fill="#ffffff">oscied&#45;publisher</text>
<text text-anchor="start" x="709.5" y="-106.933" font-family="Times Roman,serif" font-size="14.00" fill="#ffffff">local:precise/oscied&#45;publisher&#45;1251</text>
</g>
<!-- oscied_storage&#45;&gt;oscied_publisher -->
<g id="edge14" class="edge"><title>oscied_storage&#45;&gt;oscied_publisher</title>
<path fill="none" stroke="black" d="M494.184,-215.96C568.323,-194.047 683.789,-159.92 757.897,-138.016"/>
<text text-anchor="middle" x="640" y="-185.4" font-family="Times Roman,serif" font-size="14.00">storage</text>
</g>
<!-- oscied_storage/0 -->
<g id="node16" class="node"><title>oscied_storage/0</title>
<polygon fill="#dd4814" stroke="#dd4814" points="531,-138 315,-138 315,-96 531,-96 531,-138"/>
<text text-anchor="start" x="366.5" y="-123.733" font-family="Times Roman,serif" font-size="14.00" fill="#ffffff">oscied&#45;storage/0</text>
<text text-anchor="start" x="323.5" y="-106.933" font-family="Times Roman,serif" font-size="14.00" fill="#ffffff">OSCIED&#45;Node02.localdomain</text>
</g>
<!-- oscied_storage&#45;&gt;oscied_storage/0 -->
<g id="edge17" class="edge"><title>oscied_storage&#45;&gt;oscied_storage/0</title>
<path fill="none" stroke="black" d="M423,-215.823C423,-197.173 423,-169.755 423,-148.526"/>
<polygon fill="black" stroke="black" points="426.5,-148.369 423,-138.369 419.5,-148.369 426.5,-148.369"/>
</g>
<!-- oscied_orchestra -->
<g id="node7" class="node"><title>oscied_orchestra</title>
<polygon fill="#772953" stroke="#772953" points="1088,-498 830,-498 830,-494 826,-494 826,-490 830,-490 830,-464 826,-464 826,-460 830,-460 830,-456 1088,-456 1088,-498"/>
<polyline fill="none" stroke="#772953" points="830,-494 834,-494 834,-490 830,-490 "/>
<polyline fill="none" stroke="#772953" points="830,-464 834,-464 834,-460 830,-460 "/>
<text text-anchor="start" x="902.5" y="-483.733" font-family="Times Roman,serif" font-size="14.00" fill="#ffffff">oscied&#45;orchestra</text>
<text text-anchor="start" x="838" y="-466.933" font-family="Times Roman,serif" font-size="14.00" fill="#ffffff">local:precise/oscied&#45;orchestra&#45;1251</text>
</g>
<!-- oscied_orchestra&#45;&gt;oscied_transform -->
<g id="edge7" class="edge"><title>oscied_orchestra&#45;&gt;oscied_transform</title>
<path fill="none" stroke="black" d="M829.974,-469.016C721.869,-461.688 576.296,-450.153 519,-438 484.077,-430.592 474.428,-428.934 443,-412 366.304,-370.675 350.304,-352.896 288,-292 236.236,-241.406 185.13,-172.546 160.764,-138.241"/>
<text text-anchor="middle" x="348" y="-305.4" font-family="Times Roman,serif" font-size="14.00">transform</text>
</g>
<!-- oscied_orchestra&#45;&gt;oscied_storage -->
<g id="edge19" class="edge"><title>oscied_orchestra&#45;&gt;oscied_storage</title>
<path fill="none" stroke="black" d="M829.853,-471.91C714.45,-464.993 556.084,-448.919 506,-412 454.438,-373.991 433.654,-295.645 426.394,-258.042"/>
<text text-anchor="middle" x="532" y="-353.4" font-family="Times Roman,serif" font-size="14.00">storage</text>
</g>
<!-- oscied_orchestra&#45;&gt;oscied_publisher -->
<g id="edge12" class="edge"><title>oscied_orchestra&#45;&gt;oscied_publisher</title>
<path fill="none" stroke="black" d="M1008.45,-455.908C1026.48,-445.501 1044.91,-431.025 1055,-412 1072.5,-379.021 1069.88,-362.241 1055,-328 1016.39,-239.135 919.875,-170.688 866.303,-138.044"/>
<text text-anchor="middle" x="1081" y="-305.4" font-family="Times Roman,serif" font-size="14.00">publisher</text>
</g>
<!-- oscied_webui -->
<g id="node19" class="node"><title>oscied_webui</title>
<polygon fill="#772953" stroke="#772953" points="806,-378 570,-378 570,-374 566,-374 566,-370 570,-370 570,-344 566,-344 566,-340 570,-340 570,-336 806,-336 806,-378"/>
<polyline fill="none" stroke="#772953" points="570,-374 574,-374 574,-370 570,-370 "/>
<polyline fill="none" stroke="#772953" points="570,-344 574,-344 574,-340 570,-340 "/>
<text text-anchor="start" x="643" y="-363.733" font-family="Times Roman,serif" font-size="14.00" fill="#ffffff">oscied&#45;webui</text>
<text text-anchor="start" x="578.5" y="-346.933" font-family="Times Roman,serif" font-size="14.00" fill="#ffffff">local:precise/oscied&#45;webui&#45;1251</text>
</g>
<!-- oscied_orchestra&#45;&gt;oscied_webui -->
<g id="edge26" class="edge"><title>oscied_orchestra&#45;&gt;oscied_webui</title>
<path fill="none" stroke="black" d="M911.485,-455.96C861.998,-434.047 784.927,-399.92 735.46,-378.016"/>
<text text-anchor="middle" x="873.5" y="-425.4" font-family="Times Roman,serif" font-size="14.00">api</text>
</g>
<!-- oscied_orchestra/0 -->
<g id="node26" class="node"><title>oscied_orchestra/0</title>
<polygon fill="#dd4814" stroke="#dd4814" points="1046,-378 830,-378 830,-336 1046,-336 1046,-378"/>
<text text-anchor="start" x="874.5" y="-363.733" font-family="Times Roman,serif" font-size="14.00" fill="#ffffff">oscied&#45;orchestra/0</text>
<text text-anchor="start" x="838.5" y="-346.933" font-family="Times Roman,serif" font-size="14.00" fill="#ffffff">OSCIED&#45;Node01.localdomain</text>
</g>
<!-- oscied_orchestra&#45;&gt;oscied_orchestra/0 -->
<g id="edge29" class="edge"><title>oscied_orchestra&#45;&gt;oscied_orchestra/0</title>
<path fill="none" stroke="black" d="M955.294,-455.823C952.015,-437.088 947.188,-409.504 943.466,-388.236"/>
<polygon fill="black" stroke="black" points="946.911,-387.616 941.74,-378.369 940.016,-388.823 946.911,-387.616"/>
</g>
<!-- oscied_publisher/0 -->
<g id="node11" class="node"><title>oscied_publisher/0</title>
<polygon fill="#dd4814" stroke="#dd4814" points="937,-58 721,-58 721,-16 937,-16 937,-58"/>
<text text-anchor="start" x="767" y="-43.7333" font-family="Times Roman,serif" font-size="14.00" fill="#ffffff">oscied&#45;publisher/0</text>
<text text-anchor="start" x="729.5" y="-26.9333" font-family="Times Roman,serif" font-size="14.00" fill="#ffffff">OSCIED&#45;Node02.localdomain</text>
</g>
<!-- oscied_publisher&#45;&gt;oscied_publisher/0 -->
<g id="edge10" class="edge"><title>oscied_publisher&#45;&gt;oscied_publisher/0</title>
<path fill="none" stroke="black" d="M829,-95.9809C829,-87.5048 829,-77.5483 829,-68.2541"/>
<polygon fill="black" stroke="black" points="832.5,-68.1564 829,-58.1564 825.5,-68.1565 832.5,-68.1564"/>
</g>
<!-- oscied_webui&#45;&gt;oscied_storage -->
<g id="edge21" class="edge"><title>oscied_webui&#45;&gt;oscied_storage</title>
<path fill="none" stroke="black" d="M641.537,-335.96C593.146,-314.047 517.781,-279.92 469.409,-258.016"/>
<text text-anchor="middle" x="621" y="-305.4" font-family="Times Roman,serif" font-size="14.00">storage</text>
</g>
<!-- oscied_webui/0 -->
<g id="node22" class="node"><title>oscied_webui/0</title>
<polygon fill="#dd4814" stroke="#dd4814" points="796,-258 580,-258 580,-216 796,-216 796,-258"/>
<text text-anchor="start" x="636.5" y="-243.733" font-family="Times Roman,serif" font-size="14.00" fill="#ffffff">oscied&#45;webui/0</text>
<text text-anchor="start" x="588.5" y="-226.933" font-family="Times Roman,serif" font-size="14.00" fill="#ffffff">OSCIED&#45;Node01.localdomain</text>
</g>
<!-- oscied_webui&#45;&gt;oscied_webui/0 -->
<g id="edge24" class="edge"><title>oscied_webui&#45;&gt;oscied_webui/0</title>
<path fill="none" stroke="black" d="M688,-335.823C688,-317.173 688,-289.755 688,-268.526"/>
<polygon fill="black" stroke="black" points="691.5,-268.369 688,-258.369 684.5,-268.369 691.5,-268.369"/>
</g>
</g>
</svg>
