<?xml version="1.0" encoding="UTF-8" standalone="no"?>
<!DOCTYPE svg PUBLIC "-//W3C//DTD SVG 1.1//EN"
 "http://www.w3.org/Graphics/SVG/1.1/DTD/svg11.dtd">
<!-- Generated by graphviz version 2.26.3 (20100126.1600)
 -->
<!-- Title: amazon Pages: 1 -->
<svg width="2566pt" height="548pt"
 viewBox="0.00 0.00 2566.00 548.00" xmlns="http://www.w3.org/2000/svg" xmlns:xlink="http://www.w3.org/1999/xlink">
<g id="graph1" class="graph" transform="scale(1 1) rotate(0) translate(4 544)">
<title>amazon</title>
<polygon fill="white" stroke="white" points="-4,5 -4,-544 2563,-544 2563,5 -4,5"/>
<g id="graph2" class="cluster"><title>cluster_haproxy</title>
<polygon fill="#dedede" stroke="black" points="8,-8 8,-172 356,-172 356,-8 8,-8"/>
<text text-anchor="middle" x="182" y="-155.4" font-family="Times Roman,serif" font-size="14.00">haproxy service</text>
</g>
<g id="graph3" class="cluster"><title>cluster_oscied_transform</title>
<polygon fill="#dedede" stroke="black" points="1466,-88 1466,-292 2550,-292 2550,-88 1466,-88"/>
<text text-anchor="middle" x="2008" y="-275.4" font-family="Times Roman,serif" font-size="14.00">oscied&#45;transform service</text>
</g>
<g id="graph4" class="cluster"><title>cluster_oscied_publisher</title>
<polygon fill="#dedede" stroke="black" points="738,-88 738,-292 1094,-292 1094,-88 738,-88"/>
<text text-anchor="middle" x="916" y="-275.4" font-family="Times Roman,serif" font-size="14.00">oscied&#45;publisher service</text>
</g>
<g id="graph5" class="cluster"><title>cluster_oscied_webui</title>
<polygon fill="#dedede" stroke="black" points="364,-88 364,-292 730,-292 730,-88 364,-88"/>
<text text-anchor="middle" x="547" y="-275.4" font-family="Times Roman,serif" font-size="14.00">oscied&#45;webui service</text>
</g>
<g id="graph6" class="cluster"><title>cluster_oscied_transform_demo</title>
<polygon fill="#dedede" stroke="black" points="1719,-328 1719,-532 2093,-532 2093,-328 1719,-328"/>
<text text-anchor="middle" x="1906" y="-515.4" font-family="Times Roman,serif" font-size="14.00">oscied&#45;transform&#45;demo service</text>
</g>
<g id="graph7" class="cluster"><title>cluster_oscied_storage</title>
<polygon fill="#dedede" stroke="black" points="1102,-208 1102,-412 1458,-412 1458,-208 1102,-208"/>
<text text-anchor="middle" x="1280" y="-395.4" font-family="Times Roman,serif" font-size="14.00">oscied&#45;storage service</text>
</g>
<g id="graph8" class="cluster"><title>cluster_oscied_publisher_demo</title>
<polygon fill="#dedede" stroke="black" points="2138,-328 2138,-532 2512,-532 2512,-328 2138,-328"/>
<text text-anchor="middle" x="2325" y="-515.4" font-family="Times Roman,serif" font-size="14.00">oscied&#45;publisher&#45;demo service</text>
</g>
<g id="graph9" class="cluster"><title>cluster_oscied_orchestra</title>
<polygon fill="#dedede" stroke="black" points="738,-328 738,-532 1094,-532 1094,-328 738,-328"/>
<text text-anchor="middle" x="916" y="-515.4" font-family="Times Roman,serif" font-size="14.00">oscied&#45;orchestra service</text>
</g>
<!-- haproxy -->
<g id="node2" class="node"><title>haproxy</title>
<polygon fill="#772953" stroke="#772953" points="327,-138 161,-138 161,-134 157,-134 157,-130 161,-130 161,-104 157,-104 157,-100 161,-100 161,-96 327,-96 327,-138"/>
<polyline fill="none" stroke="#772953" points="161,-134 165,-134 165,-130 161,-130 "/>
<polyline fill="none" stroke="#772953" points="161,-104 165,-104 165,-100 161,-100 "/>
<text text-anchor="start" x="216" y="-123.733" font-family="Times Roman,serif" font-size="14.00" fill="#ffffff">haproxy</text>
<text text-anchor="start" x="169" y="-106.933" font-family="Times Roman,serif" font-size="14.00" fill="#ffffff">cs:precise/haproxy&#45;16</text>
</g>
<!-- haproxy/0 -->
<g id="node3" class="node"><title>haproxy/0</title>
<polygon fill="#dd4814" stroke="#dd4814" points="348,-58 16,-58 16,-16 348,-16 348,-58"/>
<text text-anchor="start" x="147" y="-43.7333" font-family="Times Roman,serif" font-size="14.00" fill="#ffffff">haproxy/0</text>
<text text-anchor="start" x="24.5" y="-26.9333" font-family="Times Roman,serif" font-size="14.00" fill="#ffffff">ec2&#45;23&#45;22&#45;107&#45;2.compute&#45;1.amazonaws.com</text>
</g>
<!-- haproxy&#45;&gt;haproxy/0 -->
<g id="edge3" class="edge"><title>haproxy&#45;&gt;haproxy/0</title>
<path fill="none" stroke="black" d="M227.71,-95.9809C220.647,-86.8668 212.257,-76.0411 204.605,-66.1676"/>
<polygon fill="black" stroke="black" points="207.288,-63.9166 198.396,-58.1564 201.756,-68.2046 207.288,-63.9166"/>
</g>
<!-- oscied_webui -->
<g id="node5" class="node"><title>oscied_webui</title>
<polygon fill="#772953" stroke="#772953" points="694,-258 458,-258 458,-254 454,-254 454,-250 458,-250 458,-224 454,-224 454,-220 458,-220 458,-216 694,-216 694,-258"/>
<polyline fill="none" stroke="#772953" points="458,-254 462,-254 462,-250 458,-250 "/>
<polyline fill="none" stroke="#772953" points="458,-224 462,-224 462,-220 458,-220 "/>
<text text-anchor="start" x="531" y="-243.733" font-family="Times Roman,serif" font-size="14.00" fill="#ffffff">oscied&#45;webui</text>
<text text-anchor="start" x="466.5" y="-226.933" font-family="Times Roman,serif" font-size="14.00" fill="#ffffff">local:precise/oscied&#45;webui&#45;1294</text>
</g>
<!-- oscied_webui&#45;&gt;haproxy -->
<g id="edge5" class="edge"><title>oscied_webui&#45;&gt;haproxy</title>
<path fill="none" stroke="black" d="M495.786,-215.969C454.685,-204.414 404.129,-188.991 360,-172 334.313,-162.11 306.413,-148.962 284.413,-138.001"/>
<text text-anchor="middle" x="476.5" y="-185.4" font-family="Times Roman,serif" font-size="14.00">reverseproxy</text>
</g>
<!-- oscied_webui/0 -->
<g id="node26" class="node"><title>oscied_webui/0</title>
<polygon fill="#dd4814" stroke="#dd4814" points="722,-138 372,-138 372,-96 722,-96 722,-138"/>
<text text-anchor="start" x="495.5" y="-123.733" font-family="Times Roman,serif" font-size="14.00" fill="#ffffff">oscied&#45;webui/0</text>
<text text-anchor="start" x="380.5" y="-106.933" font-family="Times Roman,serif" font-size="14.00" fill="#ffffff">ec2&#45;54&#45;235&#45;51&#45;164.compute&#45;1.amazonaws.com</text>
</g>
<!-- oscied_webui&#45;&gt;oscied_webui/0 -->
<g id="edge26" class="edge"><title>oscied_webui&#45;&gt;oscied_webui/0</title>
<path fill="none" stroke="black" d="M570.882,-215.823C566.355,-197.088 559.688,-169.504 554.549,-148.236"/>
<polygon fill="black" stroke="black" points="557.915,-147.267 552.164,-138.369 551.111,-148.912 557.915,-147.267"/>
</g>
<!-- oscied_transform -->
<g id="node8" class="node"><title>oscied_transform</title>
<polygon fill="#772953" stroke="#772953" points="1779,-258 1519,-258 1519,-254 1515,-254 1515,-250 1519,-250 1519,-224 1515,-224 1515,-220 1519,-220 1519,-216 1779,-216 1779,-258"/>
<polyline fill="none" stroke="#772953" points="1519,-254 1523,-254 1523,-250 1519,-250 "/>
<polyline fill="none" stroke="#772953" points="1519,-224 1523,-224 1523,-220 1519,-220 "/>
<text text-anchor="start" x="1591.5" y="-243.733" font-family="Times Roman,serif" font-size="14.00" fill="#ffffff">oscied&#45;transform</text>
<text text-anchor="start" x="1527" y="-226.933" font-family="Times Roman,serif" font-size="14.00" fill="#ffffff">local:precise/oscied&#45;transform&#45;1294</text>
</g>
<!-- oscied_transform/1 -->
<g id="node9" class="node"><title>oscied_transform/1</title>
<polygon fill="#dd4814" stroke="#dd4814" points="1824,-138 1474,-138 1474,-96 1824,-96 1824,-138"/>
<text text-anchor="start" x="1584.5" y="-123.733" font-family="Times Roman,serif" font-size="14.00" fill="#ffffff">oscied&#45;transform/1</text>
<text text-anchor="start" x="1482.5" y="-106.933" font-family="Times Roman,serif" font-size="14.00" fill="#ffffff">ec2&#45;184&#45;72&#45;145&#45;28.compute&#45;1.amazonaws.com</text>
</g>
<!-- oscied_transform&#45;&gt;oscied_transform/1 -->
<g id="edge8" class="edge"><title>oscied_transform&#45;&gt;oscied_transform/1</title>
<path fill="none" stroke="black" d="M1649,-215.823C1649,-197.173 1649,-169.755 1649,-148.526"/>
<polygon fill="black" stroke="black" points="1652.5,-148.369 1649,-138.369 1645.5,-148.369 1652.5,-148.369"/>
</g>
<!-- oscied_transform/0 -->
<g id="node11" class="node"><title>oscied_transform/0</title>
<polygon fill="#dd4814" stroke="#dd4814" points="2174,-138 1842,-138 1842,-96 2174,-96 2174,-138"/>
<text text-anchor="start" x="1943.5" y="-123.733" font-family="Times Roman,serif" font-size="14.00" fill="#ffffff">oscied&#45;transform/0</text>
<text text-anchor="start" x="1850.5" y="-106.933" font-family="Times Roman,serif" font-size="14.00" fill="#ffffff">ec2&#45;50&#45;17&#45;0&#45;156.compute&#45;1.amazonaws.com</text>
</g>
<!-- oscied_transform&#45;&gt;oscied_transform/0 -->
<g id="edge10" class="edge"><title>oscied_transform&#45;&gt;oscied_transform/0</title>
<path fill="none" stroke="black" d="M1711.94,-215.96C1774.3,-195.117 1869.72,-163.223 1935.28,-141.309"/>
<polygon fill="black" stroke="black" points="1936.75,-144.505 1945.13,-138.016 1934.53,-137.866 1936.75,-144.505"/>
</g>
<!-- oscied_transform/2 -->
<g id="node13" class="node"><title>oscied_transform/2</title>
<polygon fill="#dd4814" stroke="#dd4814" points="2542,-138 2192,-138 2192,-96 2542,-96 2542,-138"/>
<text text-anchor="start" x="2302.5" y="-123.733" font-family="Times Roman,serif" font-size="14.00" fill="#ffffff">oscied&#45;transform/2</text>
<text text-anchor="start" x="2200.5" y="-106.933" font-family="Times Roman,serif" font-size="14.00" fill="#ffffff">ec2&#45;23&#45;20&#45;159&#45;143.compute&#45;1.amazonaws.com</text>
</g>
<!-- oscied_transform&#45;&gt;oscied_transform/2 -->
<g id="edge12" class="edge"><title>oscied_transform&#45;&gt;oscied_transform/2</title>
<path fill="none" stroke="black" d="M1779.22,-227.353C1887.97,-217.819 2046.67,-200.459 2183,-172 2220.87,-164.094 2262.22,-152.054 2296.11,-141.253"/>
<polygon fill="black" stroke="black" points="2297.47,-144.491 2305.91,-138.095 2295.32,-137.828 2297.47,-144.491"/>
</g>
<!-- oscied_storage -->
<g id="node15" class="node"><title>oscied_storage</title>
<polygon fill="#772953" stroke="#772953" points="1356,-378 1110,-378 1110,-374 1106,-374 1106,-370 1110,-370 1110,-344 1106,-344 1106,-340 1110,-340 1110,-336 1356,-336 1356,-378"/>
<polyline fill="none" stroke="#772953" points="1110,-374 1114,-374 1114,-370 1110,-370 "/>
<polyline fill="none" stroke="#772953" points="1110,-344 1114,-344 1114,-340 1110,-340 "/>
<text text-anchor="start" x="1183" y="-363.733" font-family="Times Roman,serif" font-size="14.00" fill="#ffffff">oscied&#45;storage</text>
<text text-anchor="start" x="1118.5" y="-346.933" font-family="Times Roman,serif" font-size="14.00" fill="#ffffff">local:precise/oscied&#45;storage&#45;1294</text>
</g>
<!-- oscied_storage&#45;&gt;oscied_webui -->
<g id="edge30" class="edge"><title>oscied_storage&#45;&gt;oscied_webui</title>
<path fill="none" stroke="black" d="M1141.76,-335.939C1127.18,-332.995 1112.21,-330.222 1098,-328 937.384,-302.888 892.762,-326.966 734,-292 697.267,-283.91 657.266,-269.931 626.704,-258.09"/>
<text text-anchor="middle" x="1040" y="-305.4" font-family="Times Roman,serif" font-size="14.00">storage</text>
</g>
<!-- oscied_storage&#45;&gt;oscied_transform -->
<g id="edge14" class="edge"><title>oscied_storage&#45;&gt;oscied_transform</title>
<path fill="none" stroke="black" d="M1307.82,-335.955C1352.59,-323.317 1410.58,-306.858 1462,-292 1500.36,-280.914 1543.09,-268.363 1578.01,-258.052"/>
<text text-anchor="middle" x="1457" y="-305.4" font-family="Times Roman,serif" font-size="14.00">storage</text>
</g>
<!-- oscied_publisher -->
<g id="node20" class="node"><title>oscied_publisher</title>
<polygon fill="#772953" stroke="#772953" points="1044,-258 788,-258 788,-254 784,-254 784,-250 788,-250 788,-224 784,-224 784,-220 788,-220 788,-216 1044,-216 1044,-258"/>
<polyline fill="none" stroke="#772953" points="788,-254 792,-254 792,-250 788,-250 "/>
<polyline fill="none" stroke="#772953" points="788,-224 792,-224 792,-220 788,-220 "/>
<text text-anchor="start" x="860.5" y="-243.733" font-family="Times Roman,serif" font-size="14.00" fill="#ffffff">oscied&#45;publisher</text>
<text text-anchor="start" x="796.5" y="-226.933" font-family="Times Roman,serif" font-size="14.00" fill="#ffffff">local:precise/oscied&#45;publisher&#45;1294</text>
</g>
<!-- oscied_storage&#45;&gt;oscied_publisher -->
<g id="edge23" class="edge"><title>oscied_storage&#45;&gt;oscied_publisher</title>
<path fill="none" stroke="black" d="M1177.42,-335.96C1119.53,-314.047 1029.38,-279.92 971.516,-258.016"/>
<text text-anchor="middle" x="1148" y="-305.4" font-family="Times Roman,serif" font-size="14.00">storage</text>
</g>
<!-- oscied_storage/0 -->
<g id="node35" class="node"><title>oscied_storage/0</title>
<polygon fill="#dd4814" stroke="#dd4814" points="1450,-258 1110,-258 1110,-216 1450,-216 1450,-258"/>
<text text-anchor="start" x="1223.5" y="-243.733" font-family="Times Roman,serif" font-size="14.00" fill="#ffffff">oscied&#45;storage/0</text>
<text text-anchor="start" x="1118" y="-226.933" font-family="Times Roman,serif" font-size="14.00" fill="#ffffff">ec2&#45;23&#45;22&#45;49&#45;200.compute&#45;1.amazonaws.com</text>
</g>
<!-- oscied_storage&#45;&gt;oscied_storage/0 -->
<g id="edge36" class="edge"><title>oscied_storage&#45;&gt;oscied_storage/0</title>
<path fill="none" stroke="black" d="M1241.29,-335.823C1248.67,-317.003 1259.53,-289.253 1267.88,-267.946"/>
<polygon fill="black" stroke="black" points="1271.24,-268.957 1271.63,-258.369 1264.72,-266.404 1271.24,-268.957"/>
</g>
<!-- oscied_orchestra -->
<g id="node17" class="node"><title>oscied_orchestra</title>
<polygon fill="#772953" stroke="#772953" points="1045,-498 787,-498 787,-494 783,-494 783,-490 787,-490 787,-464 783,-464 783,-460 787,-460 787,-456 1045,-456 1045,-498"/>
<polyline fill="none" stroke="#772953" points="787,-494 791,-494 791,-490 787,-490 "/>
<polyline fill="none" stroke="#772953" points="787,-464 791,-464 791,-460 787,-460 "/>
<text text-anchor="start" x="859.5" y="-483.733" font-family="Times Roman,serif" font-size="14.00" fill="#ffffff">oscied&#45;orchestra</text>
<text text-anchor="start" x="795" y="-466.933" font-family="Times Roman,serif" font-size="14.00" fill="#ffffff">local:precise/oscied&#45;orchestra&#45;1294</text>
</g>
<!-- oscied_orchestra&#45;&gt;oscied_webui -->
<g id="edge28" class="edge"><title>oscied_orchestra&#45;&gt;oscied_webui</title>
<path fill="none" stroke="black" d="M786.705,-462.848C721.614,-452.82 652.265,-436.674 632,-412 594.139,-365.903 581.71,-293.773 577.76,-258.24"/>
<text text-anchor="middle" x="642.5" y="-353.4" font-family="Times Roman,serif" font-size="14.00">api</text>
</g>
<!-- oscied_orchestra&#45;&gt;oscied_transform -->
<g id="edge16" class="edge"><title>oscied_orchestra&#45;&gt;oscied_transform</title>
<path fill="none" stroke="black" d="M1045.3,-470.883C1182.85,-462.748 1390.32,-445.341 1462,-412 1539,-376.182 1605.2,-296.396 1633.85,-258.189"/>
<text text-anchor="middle" x="1607" y="-353.4" font-family="Times Roman,serif" font-size="14.00">transform</text>
</g>
<!-- oscied_orchestra&#45;&gt;oscied_storage -->
<g id="edge38" class="edge"><title>oscied_orchestra&#45;&gt;oscied_storage</title>
<path fill="none" stroke="black" d="M976.911,-455.996C1012.38,-443.578 1057.88,-427.328 1098,-412 1126.25,-401.206 1157.54,-388.505 1182.88,-378.029"/>
<text text-anchor="middle" x="1100" y="-425.4" font-family="Times Roman,serif" font-size="14.00">storage</text>
</g>
<!-- oscied_orchestra&#45;&gt;oscied_publisher -->
<g id="edge21" class="edge"><title>oscied_orchestra&#45;&gt;oscied_publisher</title>
<path fill="none" stroke="black" d="M786.972,-457.064C736.914,-446.464 687.992,-431.529 673,-412 650.267,-382.386 651.728,-358.68 673,-328 683.508,-312.845 779.996,-279.845 848.172,-258.03"/>
<text text-anchor="middle" x="705" y="-353.4" font-family="Times Roman,serif" font-size="14.00">publisher</text>
</g>
<!-- oscied_orchestra/0 -->
<g id="node43" class="node"><title>oscied_orchestra/0</title>
<polygon fill="#dd4814" stroke="#dd4814" points="1086,-378 746,-378 746,-336 1086,-336 1086,-378"/>
<text text-anchor="start" x="852.5" y="-363.733" font-family="Times Roman,serif" font-size="14.00" fill="#ffffff">oscied&#45;orchestra/0</text>
<text text-anchor="start" x="754" y="-346.933" font-family="Times Roman,serif" font-size="14.00" fill="#ffffff">ec2&#45;23&#45;20&#45;210&#45;29.compute&#45;1.amazonaws.com</text>
</g>
<!-- oscied_orchestra&#45;&gt;oscied_orchestra/0 -->
<g id="edge44" class="edge"><title>oscied_orchestra&#45;&gt;oscied_orchestra/0</title>
<path fill="none" stroke="black" d="M916,-455.823C916,-437.173 916,-409.755 916,-388.526"/>
<polygon fill="black" stroke="black" points="919.5,-388.369 916,-378.369 912.5,-388.369 919.5,-388.369"/>
</g>
<!-- oscied_publisher/0 -->
<g id="node21" class="node"><title>oscied_publisher/0</title>
<polygon fill="#dd4814" stroke="#dd4814" points="1086,-138 746,-138 746,-96 1086,-96 1086,-138"/>
<text text-anchor="start" x="854" y="-123.733" font-family="Times Roman,serif" font-size="14.00" fill="#ffffff">oscied&#45;publisher/0</text>
<text text-anchor="start" x="754" y="-106.933" font-family="Times Roman,serif" font-size="14.00" fill="#ffffff">ec2&#45;54&#45;234&#45;17&#45;18.compute&#45;1.amazonaws.com</text>
</g>
<!-- oscied_publisher&#45;&gt;oscied_publisher/0 -->
<g id="edge19" class="edge"><title>oscied_publisher&#45;&gt;oscied_publisher/0</title>
<path fill="none" stroke="black" d="M916,-215.823C916,-197.173 916,-169.755 916,-148.526"/>
<polygon fill="black" stroke="black" points="919.5,-148.369 916,-138.369 912.5,-148.369 919.5,-148.369"/>
</g>
<!-- oscied_transform_demo -->
<g id="node31" class="node"><title>oscied_transform_demo</title>
<polygon fill="#772953" stroke="#772953" points="2036,-498 1776,-498 1776,-494 1772,-494 1772,-490 1776,-490 1776,-464 1772,-464 1772,-460 1776,-460 1776,-456 2036,-456 2036,-498"/>
<polyline fill="none" stroke="#772953" points="1776,-494 1780,-494 1780,-490 1776,-490 "/>
<polyline fill="none" stroke="#772953" points="1776,-464 1780,-464 1780,-460 1776,-460 "/>
<text text-anchor="start" x="1827" y="-483.733" font-family="Times Roman,serif" font-size="14.00" fill="#ffffff">oscied&#45;transform&#45;demo</text>
<text text-anchor="start" x="1784" y="-466.933" font-family="Times Roman,serif" font-size="14.00" fill="#ffffff">local:precise/oscied&#45;transform&#45;1294</text>
</g>
<!-- oscied_transform_demo/0 -->
<g id="node32" class="node"><title>oscied_transform_demo/0</title>
<polygon fill="#dd4814" stroke="#dd4814" points="2085,-378 1727,-378 1727,-336 2085,-336 2085,-378"/>
<text text-anchor="start" x="1820" y="-363.733" font-family="Times Roman,serif" font-size="14.00" fill="#ffffff">oscied&#45;transform&#45;demo/0</text>
<text text-anchor="start" x="1735" y="-346.933" font-family="Times Roman,serif" font-size="14.00" fill="#ffffff">ec2&#45;54&#45;242&#45;112&#45;228.compute&#45;1.amazonaws.com</text>
</g>
<!-- oscied_transform_demo&#45;&gt;oscied_transform_demo/0 -->
<g id="edge33" class="edge"><title>oscied_transform_demo&#45;&gt;oscied_transform_demo/0</title>
<path fill="none" stroke="black" d="M1906,-455.823C1906,-437.173 1906,-409.755 1906,-388.526"/>
<polygon fill="black" stroke="black" points="1909.5,-388.369 1906,-378.369 1902.5,-388.369 1909.5,-388.369"/>
</g>
<!-- oscied_publisher_demo -->
<g id="node39" class="node"><title>oscied_publisher_demo</title>
<polygon fill="#772953" stroke="#772953" points="2453,-498 2197,-498 2197,-494 2193,-494 2193,-490 2197,-490 2197,-464 2193,-464 2193,-460 2197,-460 2197,-456 2453,-456 2453,-498"/>
<polyline fill="none" stroke="#772953" points="2197,-494 2201,-494 2201,-490 2197,-490 "/>
<polyline fill="none" stroke="#772953" points="2197,-464 2201,-464 2201,-460 2197,-460 "/>
<text text-anchor="start" x="2248.5" y="-483.733" font-family="Times Roman,serif" font-size="14.00" fill="#ffffff">oscied&#45;publisher&#45;demo</text>
<text text-anchor="start" x="2205.5" y="-466.933" font-family="Times Roman,serif" font-size="14.00" fill="#ffffff">local:precise/oscied&#45;publisher&#45;1294</text>
</g>
<!-- oscied_publisher_demo/0 -->
<g id="node40" class="node"><title>oscied_publisher_demo/0</title>
<polygon fill="#dd4814" stroke="#dd4814" points="2504,-378 2146,-378 2146,-336 2504,-336 2504,-378"/>
<text text-anchor="start" x="2242" y="-363.733" font-family="Times Roman,serif" font-size="14.00" fill="#ffffff">oscied&#45;publisher&#45;demo/0</text>
<text text-anchor="start" x="2154" y="-346.933" font-family="Times Roman,serif" font-size="14.00" fill="#ffffff">ec2&#45;184&#45;73&#45;104&#45;227.compute&#45;1.amazonaws.com</text>
</g>
<!-- oscied_publisher_demo&#45;&gt;oscied_publisher_demo/0 -->
<g id="edge41" class="edge"><title>oscied_publisher_demo&#45;&gt;oscied_publisher_demo/0</title>
<path fill="none" stroke="black" d="M2325,-455.823C2325,-437.173 2325,-409.755 2325,-388.526"/>
<polygon fill="black" stroke="black" points="2328.5,-388.369 2325,-378.369 2321.5,-388.369 2328.5,-388.369"/>
</g>
</g>
</svg>
