<?xml version="1.0" encoding="UTF-8" standalone="no"?>
<!DOCTYPE svg PUBLIC "-//W3C//DTD SVG 1.1//EN"
 "http://www.w3.org/Graphics/SVG/1.1/DTD/svg11.dtd">
<!-- Generated by graphviz version 2.26.3 (20100126.1600)
 -->
<!-- Title: maas Pages: 1 -->
<svg width="1256pt" height="548pt"
 viewBox="0.00 0.00 1256.00 548.00" xmlns="http://www.w3.org/2000/svg" xmlns:xlink="http://www.w3.org/1999/xlink">
<g id="graph1" class="graph" transform="scale(1 1) rotate(0) translate(4 544)">
<title>maas</title>
<polygon fill="white" stroke="white" points="-4,5 -4,-544 1253,-544 1253,5 -4,5"/>
<g id="graph2" class="cluster"><title>cluster_oscied_publisher</title>
<polygon fill="#dedede" stroke="black" points="8,-8 8,-172 280,-172 280,-8 8,-8"/>
<text text-anchor="middle" x="144" y="-155.4" font-family="Times Roman,serif" font-size="14.00">oscied&#45;publisher service</text>
</g>
<g id="graph3" class="cluster"><title>cluster_oscied_orchestra</title>
<polygon fill="#dedede" stroke="black" points="412,-88 412,-292 686,-292 686,-88 412,-88"/>
<text text-anchor="middle" x="549" y="-275.4" font-family="Times Roman,serif" font-size="14.00">oscied&#45;orchestra service</text>
</g>
<g id="graph4" class="cluster"><title>cluster_oscied_webui</title>
<polygon fill="#dedede" stroke="black" points="152,-208 152,-412 404,-412 404,-208 152,-208"/>
<text text-anchor="middle" x="278" y="-395.4" font-family="Times Roman,serif" font-size="14.00">oscied&#45;webui service</text>
</g>
<g id="graph5" class="cluster"><title>cluster_oscied_transform</title>
<polygon fill="#dedede" stroke="black" points="694,-208 694,-412 970,-412 970,-208 694,-208"/>
<text text-anchor="middle" x="832" y="-395.4" font-family="Times Roman,serif" font-size="14.00">oscied&#45;transform service</text>
</g>
<g id="graph6" class="cluster"><title>cluster_oscied_storage</title>
<polygon fill="#dedede" stroke="black" points="978,-328 978,-532 1240,-532 1240,-328 978,-328"/>
<text text-anchor="middle" x="1109" y="-515.4" font-family="Times Roman,serif" font-size="14.00">oscied&#45;storage service</text>
</g>
<!-- oscied_publisher -->
<g id="node2" class="node"><title>oscied_publisher</title>
<polygon fill="#772953" stroke="#772953" points="272,-138 16,-138 16,-134 12,-134 12,-130 16,-130 16,-104 12,-104 12,-100 16,-100 16,-96 272,-96 272,-138"/>
<polyline fill="none" stroke="#772953" points="16,-134 20,-134 20,-130 16,-130 "/>
<polyline fill="none" stroke="#772953" points="16,-104 20,-104 20,-100 16,-100 "/>
<text text-anchor="start" x="88.5" y="-123.733" font-family="Times Roman,serif" font-size="14.00" fill="#ffffff">oscied&#45;publisher</text>
<text text-anchor="start" x="24.5" y="-106.933" font-family="Times Roman,serif" font-size="14.00" fill="#ffffff">local:precise/oscied&#45;publisher&#45;1294</text>
</g>
<!-- oscied_publisher/1 -->
<g id="node3" class="node"><title>oscied_publisher/1</title>
<polygon fill="#dd4814" stroke="#dd4814" points="252,-58 36,-58 36,-16 252,-16 252,-58"/>
<text text-anchor="start" x="82" y="-43.7333" font-family="Times Roman,serif" font-size="14.00" fill="#ffffff">oscied&#45;publisher/1</text>
<text text-anchor="start" x="44.5" y="-26.9333" font-family="Times Roman,serif" font-size="14.00" fill="#ffffff">OSCIED&#45;Node02.localdomain</text>
</g>
<!-- oscied_publisher&#45;&gt;oscied_publisher/1 -->
<g id="edge3" class="edge"><title>oscied_publisher&#45;&gt;oscied_publisher/1</title>
<path fill="none" stroke="black" d="M144,-95.9809C144,-87.5048 144,-77.5483 144,-68.2541"/>
<polygon fill="black" stroke="black" points="147.5,-68.1564 144,-58.1564 140.5,-68.1565 147.5,-68.1564"/>
</g>
<!-- oscied_orchestra -->
<g id="node5" class="node"><title>oscied_orchestra</title>
<polygon fill="#772953" stroke="#772953" points="678,-258 420,-258 420,-254 416,-254 416,-250 420,-250 420,-224 416,-224 416,-220 420,-220 420,-216 678,-216 678,-258"/>
<polyline fill="none" stroke="#772953" points="420,-254 424,-254 424,-250 420,-250 "/>
<polyline fill="none" stroke="#772953" points="420,-224 424,-224 424,-220 420,-220 "/>
<text text-anchor="start" x="492.5" y="-243.733" font-family="Times Roman,serif" font-size="14.00" fill="#ffffff">oscied&#45;orchestra</text>
<text text-anchor="start" x="428" y="-226.933" font-family="Times Roman,serif" font-size="14.00" fill="#ffffff">local:precise/oscied&#45;orchestra&#45;1294</text>
</g>
<!-- oscied_orchestra&#45;&gt;oscied_publisher -->
<g id="edge5" class="edge"><title>oscied_orchestra&#45;&gt;oscied_publisher</title>
<path fill="none" stroke="black" d="M477.991,-215.96C404.035,-194.047 288.854,-159.92 214.928,-138.016"/>
<text text-anchor="middle" x="439" y="-185.4" font-family="Times Roman,serif" font-size="14.00">publisher</text>
</g>
<!-- oscied_orchestra/0 -->
<g id="node10" class="node"><title>oscied_orchestra/0</title>
<polygon fill="#dd4814" stroke="#dd4814" points="657,-138 441,-138 441,-96 657,-96 657,-138"/>
<text text-anchor="start" x="485.5" y="-123.733" font-family="Times Roman,serif" font-size="14.00" fill="#ffffff">oscied&#45;orchestra/0</text>
<text text-anchor="start" x="449.5" y="-106.933" font-family="Times Roman,serif" font-size="14.00" fill="#ffffff">OSCIED&#45;Node01.localdomain</text>
</g>
<!-- oscied_orchestra&#45;&gt;oscied_orchestra/0 -->
<g id="edge10" class="edge"><title>oscied_orchestra&#45;&gt;oscied_orchestra/0</title>
<path fill="none" stroke="black" d="M549,-215.823C549,-197.173 549,-169.755 549,-148.526"/>
<polygon fill="black" stroke="black" points="552.5,-148.369 549,-138.369 545.5,-148.369 552.5,-148.369"/>
</g>
<!-- oscied_storage -->
<g id="node7" class="node"><title>oscied_storage</title>
<polygon fill="#772953" stroke="#772953" points="1232,-498 986,-498 986,-494 982,-494 982,-490 986,-490 986,-464 982,-464 982,-460 986,-460 986,-456 1232,-456 1232,-498"/>
<polyline fill="none" stroke="#772953" points="986,-494 990,-494 990,-490 986,-490 "/>
<polyline fill="none" stroke="#772953" points="986,-464 990,-464 990,-460 986,-460 "/>
<text text-anchor="start" x="1059" y="-483.733" font-family="Times Roman,serif" font-size="14.00" fill="#ffffff">oscied&#45;storage</text>
<text text-anchor="start" x="994.5" y="-466.933" font-family="Times Roman,serif" font-size="14.00" fill="#ffffff">local:precise/oscied&#45;storage&#45;1294</text>
</g>
<!-- oscied_storage&#45;&gt;oscied_publisher -->
<g id="edge7" class="edge"><title>oscied_storage&#45;&gt;oscied_publisher</title>
<path fill="none" stroke="black" d="M985.774,-475.294C742.201,-470.966 216.656,-456.533 148,-412 107.944,-386.019 107.934,-364.229 96,-318 79.1401,-252.692 112.93,-174.905 132.07,-138.188"/>
<text text-anchor="middle" x="122" y="-305.4" font-family="Times Roman,serif" font-size="14.00">storage</text>
</g>
<!-- oscied_storage&#45;&gt;oscied_orchestra -->
<g id="edge14" class="edge"><title>oscied_storage&#45;&gt;oscied_orchestra</title>
<path fill="none" stroke="black" d="M985.758,-472.757C865.27,-466.387 692.257,-450.63 638,-412 585.105,-374.339 561.649,-295.823 553.109,-258.11"/>
<text text-anchor="middle" x="664" y="-353.4" font-family="Times Roman,serif" font-size="14.00">storage</text>
</g>
<!-- oscied_webui -->
<g id="node12" class="node"><title>oscied_webui</title>
<polygon fill="#772953" stroke="#772953" points="396,-378 160,-378 160,-374 156,-374 156,-370 160,-370 160,-344 156,-344 156,-340 160,-340 160,-336 396,-336 396,-378"/>
<polyline fill="none" stroke="#772953" points="160,-374 164,-374 164,-370 160,-370 "/>
<polyline fill="none" stroke="#772953" points="160,-344 164,-344 164,-340 160,-340 "/>
<text text-anchor="start" x="233" y="-363.733" font-family="Times Roman,serif" font-size="14.00" fill="#ffffff">oscied&#45;webui</text>
<text text-anchor="start" x="168.5" y="-346.933" font-family="Times Roman,serif" font-size="14.00" fill="#ffffff">local:precise/oscied&#45;webui&#45;1294</text>
</g>
<!-- oscied_storage&#45;&gt;oscied_webui -->
<g id="edge21" class="edge"><title>oscied_storage&#45;&gt;oscied_webui</title>
<path fill="none" stroke="black" d="M985.86,-472.394C841.19,-466.346 610.101,-454.524 525,-438 455.668,-424.538 378.796,-397.264 329.514,-378.096"/>
<text text-anchor="middle" x="551" y="-425.4" font-family="Times Roman,serif" font-size="14.00">storage</text>
</g>
<!-- oscied_transform -->
<g id="node15" class="node"><title>oscied_transform</title>
<polygon fill="#772953" stroke="#772953" points="962,-378 702,-378 702,-374 698,-374 698,-370 702,-370 702,-344 698,-344 698,-340 702,-340 702,-336 962,-336 962,-378"/>
<polyline fill="none" stroke="#772953" points="702,-374 706,-374 706,-370 702,-370 "/>
<polyline fill="none" stroke="#772953" points="702,-344 706,-344 706,-340 702,-340 "/>
<text text-anchor="start" x="774.5" y="-363.733" font-family="Times Roman,serif" font-size="14.00" fill="#ffffff">oscied&#45;transform</text>
<text text-anchor="start" x="710" y="-346.933" font-family="Times Roman,serif" font-size="14.00" fill="#ffffff">local:precise/oscied&#45;transform&#45;1294</text>
</g>
<!-- oscied_storage&#45;&gt;oscied_transform -->
<g id="edge26" class="edge"><title>oscied_storage&#45;&gt;oscied_transform</title>
<path fill="none" stroke="black" d="M1060.43,-455.96C1009.85,-434.047 931.073,-399.92 880.511,-378.016"/>
<text text-anchor="middle" x="1037" y="-425.4" font-family="Times Roman,serif" font-size="14.00">storage</text>
</g>
<!-- oscied_storage/2 -->
<g id="node26" class="node"><title>oscied_storage/2</title>
<polygon fill="#dd4814" stroke="#dd4814" points="1217,-378 1001,-378 1001,-336 1217,-336 1217,-378"/>
<text text-anchor="start" x="1052.5" y="-363.733" font-family="Times Roman,serif" font-size="14.00" fill="#ffffff">oscied&#45;storage/2</text>
<text text-anchor="start" x="1009.5" y="-346.933" font-family="Times Roman,serif" font-size="14.00" fill="#ffffff">OSCIED&#45;Node02.localdomain</text>
</g>
<!-- oscied_storage&#45;&gt;oscied_storage/2 -->
<g id="edge29" class="edge"><title>oscied_storage&#45;&gt;oscied_storage/2</title>
<path fill="none" stroke="black" d="M1109,-455.823C1109,-437.173 1109,-409.755 1109,-388.526"/>
<polygon fill="black" stroke="black" points="1112.5,-388.369 1109,-378.369 1105.5,-388.369 1112.5,-388.369"/>
</g>
<!-- oscied_webui&#45;&gt;oscied_orchestra -->
<g id="edge12" class="edge"><title>oscied_webui&#45;&gt;oscied_orchestra</title>
<path fill="none" stroke="black" d="M325.515,-335.96C375.002,-314.047 452.073,-279.92 501.54,-258.016"/>
<text text-anchor="middle" x="416.5" y="-305.4" font-family="Times Roman,serif" font-size="14.00">api</text>
</g>
<!-- oscied_webui/1 -->
<g id="node18" class="node"><title>oscied_webui/1</title>
<polygon fill="#dd4814" stroke="#dd4814" points="386,-258 170,-258 170,-216 386,-216 386,-258"/>
<text text-anchor="start" x="226.5" y="-243.733" font-family="Times Roman,serif" font-size="14.00" fill="#ffffff">oscied&#45;webui/1</text>
<text text-anchor="start" x="178.5" y="-226.933" font-family="Times Roman,serif" font-size="14.00" fill="#ffffff">OSCIED&#45;Node01.localdomain</text>
</g>
<!-- oscied_webui&#45;&gt;oscied_webui/1 -->
<g id="edge19" class="edge"><title>oscied_webui&#45;&gt;oscied_webui/1</title>
<path fill="none" stroke="black" d="M278,-335.823C278,-317.173 278,-289.755 278,-268.526"/>
<polygon fill="black" stroke="black" points="281.5,-268.369 278,-258.369 274.5,-268.369 281.5,-268.369"/>
</g>
<!-- oscied_transform&#45;&gt;oscied_orchestra -->
<g id="edge16" class="edge"><title>oscied_transform&#45;&gt;oscied_orchestra</title>
<path fill="none" stroke="black" d="M782.381,-335.96C730.703,-314.047 650.219,-279.92 598.562,-258.016"/>
<text text-anchor="middle" x="767" y="-305.4" font-family="Times Roman,serif" font-size="14.00">transform</text>
</g>
<!-- oscied_transform/1 -->
<g id="node22" class="node"><title>oscied_transform/1</title>
<polygon fill="#dd4814" stroke="#dd4814" points="940,-258 724,-258 724,-216 940,-216 940,-258"/>
<text text-anchor="start" x="767.5" y="-243.733" font-family="Times Roman,serif" font-size="14.00" fill="#ffffff">oscied&#45;transform/1</text>
<text text-anchor="start" x="732.5" y="-226.933" font-family="Times Roman,serif" font-size="14.00" fill="#ffffff">OSCIED&#45;Node02.localdomain</text>
</g>
<!-- oscied_transform&#45;&gt;oscied_transform/1 -->
<g id="edge24" class="edge"><title>oscied_transform&#45;&gt;oscied_transform/1</title>
<path fill="none" stroke="black" d="M832,-335.823C832,-317.173 832,-289.755 832,-268.526"/>
<polygon fill="black" stroke="black" points="835.5,-268.369 832,-258.369 828.5,-268.369 835.5,-268.369"/>
</g>
</g>
</svg>
