<?xml version="1.0" encoding="UTF-8" standalone="no"?>
<!-- Created with Inkscape (http://www.inkscape.org/) -->
<svg
   xmlns:dc="http://purl.org/dc/elements/1.1/"
   xmlns:cc="http://web.resource.org/cc/"
   xmlns:rdf="http://www.w3.org/1999/02/22-rdf-syntax-ns#"
   xmlns:svg="http://www.w3.org/2000/svg"
   xmlns="http://www.w3.org/2000/svg"
   xmlns:sodipodi="http://sodipodi.sourceforge.net/DTD/sodipodi-0.dtd"
   xmlns:inkscape="http://www.inkscape.org/namespaces/inkscape"
   id="svg1988"
   sodipodi:version="0.32"
   inkscape:version="0.44.1"
   width="1000"
   height="908"
   version="1.0"
   sodipodi:docbase="C:\Documents and Settings\Sigurd\Skrivebord\BILDER TIL WIKIPEDIA"
   sodipodi:docname="EBU logo.svg">
  <metadata
     id="metadata1993">
    <rdf:RDF>
      <cc:Work
         rdf:about="">
        <dc:format>image/svg+xml</dc:format>
        <dc:type
           rdf:resource="http://purl.org/dc/dcmitype/StillImage" />
      </cc:Work>
    </rdf:RDF>
  </metadata>
  <defs
     id="defs1991" />
  <sodipodi:namedview
     inkscape:window-height="975"
     inkscape:window-width="1280"
     inkscape:pageshadow="2"
     inkscape:pageopacity="0.0"
     guidetolerance="10.0"
     gridtolerance="10.0"
     objecttolerance="10.0"
     borderopacity="1.0"
     bordercolor="#666666"
     pagecolor="#ffffff"
     id="base"
     inkscape:zoom="0.88999691"
     inkscape:cx="349.55085"
     inkscape:cy="242.08758"
     inkscape:window-x="-4"
     inkscape:window-y="-4"
     inkscape:current-layer="svg1988" />
  <path
     sodipodi:type="arc"
     style="opacity:1;fill:none;fill-opacity:1;stroke:#ffda26;stroke-width:38.07600021;stroke-linecap:square;stroke-linejoin:bevel;stroke-miterlimit:4;stroke-dasharray:none;stroke-opacity:1"
     id="path2021"
     sodipodi:cx="229.21428"
     sodipodi:cy="194.51437"
     sodipodi:rx="257.30426"
     sodipodi:ry="267.41666"
     d="M 486.51854 194.51437 A 257.30426 267.41666 0 1 1  -28.089981,194.51437 A 257.30426 267.41666 0 1 1  486.51854 194.51437 z"
     transform="matrix(0.876799,0.124213,-0.533475,0.818822,478.0766,309.3102)" />
  <path
     sodipodi:type="arc"
     style="opacity:1;fill:none;fill-opacity:1;stroke:#ffda26;stroke-width:38.07600021;stroke-linecap:square;stroke-linejoin:bevel;stroke-miterlimit:4;stroke-dasharray:none;stroke-opacity:1"
     id="path2908"
     sodipodi:cx="229.21428"
     sodipodi:cy="194.51437"
     sodipodi:rx="257.30426"
     sodipodi:ry="267.41666"
     d="M 486.51854 194.51437 A 257.30426 267.41666 0 1 1  -28.089981,194.51437 A 257.30426 267.41666 0 1 1  486.51854 194.51437 z"
     transform="matrix(0.890159,0.118714,-0.534212,0.83475,479.0315,307.1811)" />
  <path
     style="fill:#0e3f96;fill-rule:evenodd;stroke:none;stroke-width:1px;stroke-linecap:butt;stroke-linejoin:miter;stroke-opacity:1;fill-opacity:1"
     d="M 770.71618,1.204244 C 770.71618,1.204244 727.3634,78.275862 717.72944,85.501326 C 713.82769,88.427637 687.30703,115.4521 662.01026,148.25519 C 624.84583,196.44745 583.33136,257.11212 575.44958,272.15915 C 569.6918,283.15127 561.95851,293.12223 562.26124,292.70601 C 562.70117,292.10118 553.01146,274.99191 545.52255,250.48276 C 541.96921,238.85364 534.78428,232.50558 531.23298,226.40538 C 521.54523,209.76435 516.62069,208.33422 516.62069,208.33422 C 516.62069,208.33422 485.31034,231.21485 479.28912,234.82759 C 473.2679,238.44032 475.67639,270.95491 479.28912,276.97613 C 482.90186,282.99735 488.92308,323.94164 497.35279,349.23077 C 505.78249,374.51989 502.16976,357.66048 502.16976,357.66048 C 502.16976,357.66048 504.06969,342.94294 503.73473,367.04865 C 503.63894,373.94247 526.27437,381.72563 529.94361,405.31362 C 531.30948,414.09418 545.1121,418.22289 553.38157,421.62901 C 567.3271,427.37304 578.29034,428.51137 580.26467,427.85326 C 583.40974,426.80491 614.8604,413.17629 618.52964,396.4026 C 622.19888,379.62892 675.14083,274.69668 676.71336,268.93072 C 678.28589,263.16477 747.68075,57.954076 757.36394,52.420824 C 767.04714,46.887571 732.46431,60.720703 770.71618,1.204244 z "
     id="path1997"
     sodipodi:nodetypes="csssssscssscsssssssc" />
  <path
     style="fill:#5d7db9;fill-rule:evenodd;stroke:none;stroke-width:1px;stroke-linecap:butt;stroke-linejoin:miter;stroke-opacity:1;fill-opacity:1"
     d="M 924.05318,428.682 C 924.05318,428.682 896.7275,438.01412 885.32041,426.60703 C 881.734,423.02062 736.57343,435.75183 678.26617,452.64625 C 653.29956,459.88028 602.01339,490.54136 598.97459,499.92262 C 593.23638,517.63737 601.11567,536.53672 611.27147,552.15119 C 628.01421,577.89301 643.93227,593.29626 643.93227,593.29626 C 643.93227,593.29626 652.23214,605.05442 664.68196,613.3543 C 677.13178,621.65418 702.23089,635.59346 704.10639,643.09553 C 704.79804,645.86216 730.38934,650.70376 745.60578,663.84523 C 760.82223,676.98671 757.36394,669.37848 758.74726,673.52842 C 760.13057,677.67836 791.25512,688.74487 803.70493,697.04475 C 816.15475,705.34463 878.40384,743.38574 906.07011,755.1439 C 933.73637,766.90206 970.39417,788.34341 972.46914,791.8017 C 974.54411,795.25998 955.17772,765.51875 994.60215,798.71826 C 1019.2218,819.45058 900.41118,720.04573 859.16514,679.66571 C 818.06504,639.42856 782.18478,601.0131 776.73033,590.52963 C 776.43276,589.9577 768.63135,588.96353 758.90806,579.94032 C 747.76875,569.60304 734.53928,551.10521 734.53928,551.10521 C 734.53928,551.10521 827.91291,486.78115 836.21279,486.08949 C 844.51267,485.39784 913.67833,428.682 924.05318,428.682 z "
     id="path2017"
     sodipodi:nodetypes="csssscssssssssssscsc" />
  <path
     style="fill:#0f257b;fill-rule:evenodd;stroke:none;stroke-width:1px;stroke-linecap:butt;stroke-linejoin:miter;stroke-opacity:1;fill-opacity:1"
     d="M 210.95525,391.33254 C 210.95525,391.33254 202.3054,397.07835 192.24872,404.2359 C 168.76764,420.94788 156.06904,441.71565 220.63845,486.78115 C 222.68343,488.20842 288.42079,517.21404 288.42079,517.21404 C 288.42079,517.21404 282.19588,517.21404 266.97944,528.28054 C 251.76299,539.34705 105.82346,656.23701 91.990324,671.45345 C 78.157192,686.6699 0,748.91899 0,748.91899 C 0,748.91899 16.599758,753.76059 41.499394,733.70254 C 66.399031,713.6445 60.174122,732.31923 61.557435,731.62757 C 62.940748,730.93592 74.007253,721.25273 78.848849,719.17776 C 83.690445,717.10279 80.232162,713.6445 82.998788,712.95285 C 85.765415,712.26119 87.148728,712.95285 87.148728,712.95285 C 87.148728,712.95285 158.38935,667.99517 161.84764,669.37848 C 165.30592,670.7618 157.25777,655.46114 179.83071,659.00364 C 181.38386,659.24738 206.80531,640.32891 206.80531,640.32891 C 206.80531,640.32891 240.69649,637.56228 244.15477,632.02903 C 247.61305,626.49578 231.70495,627.87909 262.8295,627.87909 C 277.35428,627.87909 247.05776,623.59356 340.98669,593.29626 C 341.91761,592.99599 499.45614,524.15349 518.74243,529.66386 C 523.58403,531.04717 542.25875,518.59735 497.30107,468.79808 C 471.06132,439.77534 455.11005,425.22377 437.81861,437.67353 C 437.2039,438.11612 418.52792,426.25944 397.5122,420.39715 C 375.61804,414.28982 351.36154,414.15721 351.36154,414.15721 L 322.31196,401.01573 C 322.31196,401.01573 215.10519,397.55745 210.95525,391.33254 z "
     id="path2019"
     sodipodi:nodetypes="csscsscsssscsscsssssssccc" />
  <path
     sodipodi:type="arc"
     style="opacity:1;fill:black;fill-opacity:1;stroke:none;stroke-width:38.07600021;stroke-linecap:square;stroke-linejoin:bevel;stroke-miterlimit:4;stroke-dasharray:none;stroke-opacity:1"
     id="path4731"
     sodipodi:cx="494.38373"
     sodipodi:cy="849.57281"
     sodipodi:rx="15.730392"
     sodipodi:ry="15.730392"
     d="M 510.11412 849.57281 A 15.730392 15.730392 0 1 1  478.65334,849.57281 A 15.730392 15.730392 0 1 1  510.11412 849.57281 z" />
  <text
     xml:space="preserve"
     style="font-size:141.72080994px;fill:black;fill-opacity:1"
     x="204.53812"
     y="849.04102"
     id="text5618"
     transform="scale(0.936619,1.06767)"><tspan
       sodipodi:role="line"
       id="tspan5620"
       x="204.53812"
       y="849.04102"
       style="font-family:Arial"><tspan
         x="204.53812"
         y="849.04102"
         id="tspan5622"
         style="font-family:Arial">E</tspan></tspan></text>
  <text
     xml:space="preserve"
     style="font-size:137.63217163px;fill:black;fill-opacity:1"
     x="300.12387"
     y="832.70844"
     id="text5624"
     transform="scale(0.919132,1.087982)"><tspan
       sodipodi:role="line"
       id="tspan5626"
       x="300.12387"
       y="832.70844"
       style="font-family:Arial"><tspan
         x="300.12387"
         y="832.70844"
         id="tspan5628"
         style="font-family:Arial">B</tspan></tspan></text>
  <text
     xml:space="preserve"
     style="font-size:151.00541687px;fill:black;fill-opacity:1"
     x="361.22998"
     y="904.14453"
     id="text5630"
     transform="scale(0.99798,1.002024)"><tspan
       sodipodi:role="line"
       id="tspan5632"
       x="361.22998"
       y="904.14453"
       style="font-family:Arial"><tspan
         x="361.22998"
         y="904.14453"
         id="tspan5634"
         style="font-family:Arial">U</tspan></tspan></text>
  <text
     xml:space="preserve"
     style="font-size:148.99217224px;fill:black;fill-opacity:1"
     x="528.30151"
     y="892.28821"
     id="text5636"
     transform="scale(0.984674,1.015564)"><tspan
       sodipodi:role="line"
       id="tspan5638"
       x="528.30151"
       y="892.28821"
       style="font-family:Arial"><tspan
         x="528.30151"
         y="892.28821"
         id="tspan5640"
         style="font-family:Arial">U</tspan></tspan></text>
  <text
     xml:space="preserve"
     style="font-size:142.83924866px;fill:black;fill-opacity:1"
     x="663.1712"
     y="856.31171"
     id="text5642"
     transform="scale(0.94401,1.059311)"><tspan
       sodipodi:role="line"
       id="tspan5644"
       x="663.1712"
       y="856.31171"
       style="font-family:Arial"><tspan
         x="663.1712"
         y="856.31171"
         id="tspan5646"
         style="font-family:Arial">E</tspan></tspan></text>
  <text
     xml:space="preserve"
     style="font-size:139.01463318px;fill:black;fill-opacity:1"
     x="771.6452"
     y="833.38336"
     id="text5648"
     transform="scale(0.918734,1.088455)"><tspan
       sodipodi:role="line"
       id="tspan5650"
       x="771.6452"
       y="833.38336"
       style="font-family:Arial"><tspan
         x="771.6452"
         y="833.38336"
         id="tspan5652"
         style="font-family:Arial">R</tspan></tspan></text>
</svg>
