<?xml version="1.0" encoding="UTF-8" standalone="no"?>
<!-- Created with Inkscape (http://www.inkscape.org/) -->

<svg
   xmlns:dc="http://purl.org/dc/elements/1.1/"
   xmlns:cc="http://creativecommons.org/ns#"
   xmlns:rdf="http://www.w3.org/1999/02/22-rdf-syntax-ns#"
   xmlns:svg="http://www.w3.org/2000/svg"
   xmlns="http://www.w3.org/2000/svg"
   xmlns:sodipodi="http://sodipodi.sourceforge.net/DTD/sodipodi-0.dtd"
   xmlns:inkscape="http://www.inkscape.org/namespaces/inkscape"
   id="svg2"
   version="1.1"
   inkscape:version="0.48.4 r9939"
   width="1539.8484"
   height="418.52832"
   sodipodi:docname="HES-SO.jpg">
  <metadata
     id="metadata8">
    <rdf:RDF>
      <cc:Work
         rdf:about="">
        <dc:format>image/svg+xml</dc:format>
        <dc:type
           rdf:resource="http://purl.org/dc/dcmitype/StillImage" />
        <dc:title></dc:title>
      </cc:Work>
    </rdf:RDF>
  </metadata>
  <defs
     id="defs6" />
  <sodipodi:namedview
     pagecolor="#ffffff"
     bordercolor="#666666"
     borderopacity="1"
     objecttolerance="10"
     gridtolerance="10"
     guidetolerance="10"
     inkscape:pageopacity="0"
     inkscape:pageshadow="2"
     inkscape:window-width="1535"
     inkscape:window-height="876"
     id="namedview4"
     showgrid="false"
     fit-margin-top="0"
     fit-margin-left="0"
     fit-margin-right="0"
     fit-margin-bottom="0"
     inkscape:zoom="0.5538179"
     inkscape:cx="1106.1504"
     inkscape:cy="176.58517"
     inkscape:window-x="65"
     inkscape:window-y="24"
     inkscape:window-maximized="1"
     inkscape:current-layer="svg2" />
  <g
     id="g3001"
     transform="translate(-22.640396,-268.03382)">
    <path
       style="fill:#d4d0cc"
       d="m 210.88393,685.1705 c -6.23352,-2.88555 -9.5,-8.52215 -9.5,-16.3931 0,-10.38424 6.91632,-17.51813 18.27854,-18.85354 l 5.72146,-0.67244 0,-6.73988 c 0,-7.72134 1.10265,-9.2908 6.18468,-8.80299 l 3.31532,0.31823 0,25.5 0,25.5 -5.5,0.24892 c -3.025,0.1369 -7.75,0.4817 -10.5,0.76622 -3.18585,0.32961 -6.08849,0.0134 -8,-0.87142 z m 11.95295,-7.80424 c 2.46475,-1.12301 2.54705,-1.46229 2.54705,-10.5 l 0,-9.33948 -2.95295,0 c -6.7722,0 -11.04705,4.45635 -11.04705,11.51608 0,7.53264 5.0822,11.22611 11.45295,8.3234 z m 32.46062,8.2048 c -4.5878,-1.39034 -7.76808,-4.11229 -9.86446,-8.44284 -3.84238,-7.93729 -2.23727,-17.39184 3.89284,-22.93003 8.13792,-7.35212 20.9039,-5.67154 25.57803,3.36723 2.03078,3.92708 1.9679,11.56017 -0.10177,12.35437 -0.86998,0.33385 -6.04498,0.60699 -11.5,0.60699 -11.05731,0 -12.16361,0.84551 -7.3737,5.63542 2.25211,2.25211 3.14272,2.48565 7.75,2.03229 2.86302,-0.28173 6.70067,-0.82808 8.52811,-1.21413 3.28633,-0.69423 3.31909,-0.66504 3,2.67226 -0.25907,2.70956 -1.01201,3.71855 -3.82262,5.12261 -3.63444,1.8156 -11.44615,2.20206 -16.08643,0.79583 z m 10.90268,-24.75991 c -0.18172,-0.94359 -1.56472,-2.40609 -3.07333,-3.25 -2.46546,-1.37916 -3.02038,-1.37916 -5.48584,0 -1.50861,0.84391 -2.89161,2.30641 -3.07333,3.25 -0.28321,1.4706 0.54749,1.71563 5.81625,1.71563 5.26876,0 6.09946,-0.24503 5.81625,-1.71563 z m 43.18375,23.96408 c -3.9243,-1.96041 -5.18905,-6.01673 -2.55708,-8.20108 1.26575,-1.05048 2.15822,-0.98999 4.95169,0.3356 4.87257,2.31218 12.09974,2.12268 14.60539,-0.38297 3.96808,-3.96808 2.2564,-6.50826 -7.40124,-10.98363 -4.45432,-2.06414 -9.16338,-4.90922 -10.46458,-6.32241 -3.31056,-3.59548 -3.87535,-10.18833 -1.23321,-14.39541 3.21389,-5.11747 7.37409,-6.80169 16.59903,-6.71997 9.99227,0.0885 12.73195,1.36569 12.3084,5.73786 -0.2874,2.96683 -0.54668,3.16732 -3.8084,2.94499 -12.95213,-0.88287 -14.13699,-0.79031 -15.60797,1.21923 -0.79741,1.08936 -1.32433,2.66436 -1.17093,3.5 0.15339,0.83564 4.63875,3.62573 9.96747,6.2002 11.34192,5.47965 13.3352,8.01632 12.56857,15.99487 -0.52449,5.45848 -2.46694,8.12341 -7.9673,10.93068 -4.91705,2.50956 -15.90037,2.5846 -20.78984,0.14204 z m 44.0964,0.54382 c -1.32198,-0.71075 -3.34698,-2.56162 -4.5,-4.11304 -1.88889,-2.54157 -2.0964,-4.17479 -2.0964,-16.5 l 0,-13.67923 4.5,0 4.5,0 0.5,12.5 c 0.275,6.875 0.86406,13.0625 1.30902,13.75 1.14545,1.76982 6.81659,1.55075 9.55771,-0.3692 2.21998,-1.55494 2.29928,-2.06994 1.99805,-12.97556 -0.20206,-7.31558 0.0768,-11.74678 0.78361,-12.45363 0.60351,-0.60351 2.61702,-0.95202 4.47445,-0.77445 l 3.37716,0.32284 0.54597,16 c 0.30029,8.8 0.35505,16.58749 0.1217,17.30554 -0.28751,0.8847 -2.23637,1.27524 -6.04597,1.21155 -3.09193,-0.0517 -8.0967,0.16734 -11.1217,0.48674 -3.61845,0.38206 -6.32227,0.13863 -7.9036,-0.71156 z m 56.69938,0.0607 c -3.1859,-1.16531 -4.34213,-3.96359 -2.816,-6.81521 1.284,-2.39916 1.37042,-2.4079 6.42145,-0.64964 4.81628,1.67654 8.98547,0.74691 9.40409,-2.09688 0.25547,-1.73546 -0.85064,-2.51584 -6.77433,-4.77941 -9.25568,-3.53679 -11.97138,-8.15904 -8.8363,-15.03978 2.33811,-5.1316 12.71585,-7.84125 20.30531,-5.30176 3.47862,1.16397 4,1.72889 4,4.33406 l 0,2.99564 -7.24374,-0.34811 c -6.09582,-0.29295 -7.34705,-0.0789 -7.89571,1.35092 -0.79476,2.0711 0.55526,3.00123 7.18575,4.95083 5.70944,1.67878 8.94987,4.65258 9.85745,9.04636 0.84919,4.1111 -2.03123,9.37094 -6.38815,11.66519 -3.82504,2.01419 -12.63184,2.36594 -17.21982,0.68779 z m 32.20422,-0.14088 c -1.61037,-0.81062 -2.61678,-2.27213 -2.82818,-4.10708 -0.49123,-4.26398 0.91819,-4.99327 6.19057,-3.20325 3.20291,1.08742 5.33768,1.28257 7.02257,0.64198 5.60021,-2.1292 4.15781,-4.82461 -3.99133,-7.45858 -6.66913,-2.1556 -9.61686,-5.32152 -9.75196,-10.4738 -0.19369,-7.38683 7.36504,-11.97551 17.71421,-10.75376 5.89793,0.69627 7.84108,2.14666 7.44468,5.5568 -0.2913,2.50593 -0.51626,2.5856 -7.30056,2.5856 -6.21642,0 -7,0.2132 -7,1.90457 0,1.41876 1.40294,2.37418 5.5,3.74557 6.82055,2.28302 11,6.55015 11,11.23078 0,4.11101 -3.18308,8.3798 -7.63578,10.24026 -4.10782,1.71636 -13.03656,1.76596 -16.36422,0.0909 z m 39.5,-0.5388 c -5.7502,-2.74494 -8.38107,-6.08714 -9.64812,-12.25676 -2.03039,-9.88656 2.08895,-18.20091 10.6346,-21.46452 8.99376,-3.43474 18.79434,0.8665 21.34085,9.36599 2.72167,9.08414 1.34567,10.182 -12.76159,10.182 -5.53616,0 -10.06574,0.24735 -10.06574,0.54966 0,2.12627 3.48208,6.53323 5.5777,7.0592 2.46604,0.61893 8.04768,0.13151 13.6723,-1.19396 2.52684,-0.59547 2.75,-0.40773 2.75,2.31354 0,4.59465 -2.89819,6.47141 -10.72424,6.94461 -5.23031,0.31625 -7.6881,-0.0258 -10.77576,-1.49976 z m 13.5,-22.73903 c 0,-1.81664 -2.29678,-4.29193 -4.49414,-4.84343 -3.45116,-0.86619 -8.43356,1.86789 -8.49055,4.65917 -0.008,0.4125 2.90969,0.75 6.48469,0.75 3.575,0 6.5,-0.25458 6.5,-0.56574 z m 47.31886,22.49452 c -2.29963,-1.13831 -4.87884,-3.13447 -5.73158,-4.43592 -4.0002,-6.10508 -3.94308,-17.78661 0.11423,-23.36102 2.6512,-3.64252 9.90439,-7.13629 14.76038,-7.10988 5.51197,0.03 11.7469,3.05926 14.63704,7.11151 2.0632,2.89281 2.40107,4.51392 2.40107,11.52053 0,7.62045 -0.20252,8.40567 -3.09491,12 -5.14885,6.39841 -15.08075,8.23745 -23.08623,4.27478 z m 12.6037,-6.38873 c 3.11839,-1.61259 4.04332,-3.94392 4.06379,-10.243 0.0247,-7.61048 -3.28713,-11.25519 -9.48635,-10.43977 -7.34263,0.96581 -8.40274,18.24234 -1.29443,21.09512 3.15865,1.26766 3.50989,1.2461 6.71699,-0.41235 z m 30.09787,6.20995 c -6.45043,-3.29601 -8.38503,-6.51082 -8.84793,-14.70297 -0.32801,-5.80489 -0.0241,-7.53873 1.93103,-11.01744 1.27616,-2.27062 3.76891,-5.0237 5.53944,-6.11795 4.54072,-2.80632 11.98587,-3.51139 16.62231,-1.57416 3.12344,1.30506 3.73472,2.0462 3.73472,4.52816 0,3.486 -1.32879,4.15316 -5.63786,2.83067 -6.16682,-1.89265 -10.59022,0.72327 -12.36441,7.31213 -0.81995,3.04506 -0.73327,4.68875 0.38891,7.3745 1.82573,4.36957 4.78928,5.99038 9.47721,5.18323 8.21627,-1.41465 8.63615,-1.32063 8.63615,1.93383 0,6.06689 -11.15909,8.50155 -19.47957,4.25 z m 33.81975,0.22818 c -4.61973,-2.44053 -7.53206,-6.1202 -8.91821,-11.26795 -1.99382,-7.4045 1.45431,-16.92556 7.478,-20.64841 7.5334,-4.6559 20.60003,-3.21939 20.60003,2.26471 0,3.10925 -1.92515,4.658 -4.5,3.62017 -3.27121,-1.31851 -7.90494,-1.0518 -10.24881,0.58991 -3.07646,2.15484 -4.68201,8.62795 -3.23073,13.02538 1.97064,5.9711 6.65799,7.76855 13.65789,5.23736 4.11322,-1.48736 5.72235,-0.24406 4.74159,3.66361 -1.33492,5.31877 -12.40405,7.30604 -19.57976,3.51522 z m 54.77912,0.99594 c -8.39643,-2.53891 -13.11606,-14.22148 -9.55797,-23.65902 2.54088,-6.73947 11.65023,-12.3151 20.12017,-12.3151 l 2.8185,0 0,-6.96482 c 0,-7.72657 1.00432,-9.03518 6.93426,-9.03518 l 3.06574,0 0,25.53138 c 0,19.5519 -0.29275,25.62209 -1.25,25.91866 -2.98794,0.9257 -19.50867,1.31693 -22.1307,0.52408 z m 10.8156,-7.94937 c 2.50567,-0.95265 2.5651,-1.19594 2.5651,-10.5 l 0,-9.52475 -2.95295,0 c -6.8607,0 -11.04705,4.45622 -11.04705,11.75921 0,4.08604 1.23103,6.29807 4.5,8.08606 2.50814,1.37185 3.71649,1.40312 6.9349,0.17948 z m 33.5651,8.33574 c -5.8115,-2.33818 -8.21633,-3.97445 -9.93983,-6.76313 -2.72433,-4.40807 -3.51289,-10.54172 -2.10811,-16.39752 4.00564,-16.6974 28.44847,-17.54798 31.97322,-1.11263 1.32343,6.17092 1.37058,5.47408 -0.49671,7.34136 -1.22895,1.22895 -3.85894,1.57143 -12.06739,1.57143 -10.41189,0 -10.49071,0.018 -9.84167,2.25 0.35985,1.2375 1.6097,3.07367 2.77743,4.08037 2.16079,1.86283 7.12193,1.90581 15.45306,0.13387 3.09008,-0.65723 3.25,-0.54566 3.25,2.26727 0,4.61925 -2.89549,6.4774 -10.72424,6.88216 -3.72667,0.19268 -7.45076,0.0788 -8.27576,-0.25318 z m 11,-24.28791 c 0,-1.3845 -5.02571,-5.07258 -6.91235,-5.07258 -2.30647,0 -6.08765,2.83028 -6.08765,4.5567 0,1.1097 1.50239,1.4433 6.5,1.4433 3.575,0 6.5,-0.41734 6.5,-0.92742 z m 65.24239,23.43335 c -4.32168,-1.87823 -5.24239,-4.74694 -5.24239,-16.3339 0,-9.0978 -0.1392,-9.75884 -2.25,-10.6849 -1.4701,-0.64497 -2.25,-1.85369 -2.25,-3.48713 0,-1.63344 0.7799,-2.84216 2.25,-3.48713 1.68211,-0.73798 2.25,-1.82354 2.25,-4.30103 0,-2.85746 0.4941,-3.52034 3.58738,-4.8128 4.58923,-1.9175 6.41262,-0.59245 6.41262,4.66005 0,3.57225 0.20616,3.83407 3.25,4.12755 2.83731,0.27357 3.28898,0.71519 3.55698,3.47789 0.3116,3.21203 -1.62196,4.82027 -4.95342,4.11999 -1.06674,-0.22423 -1.35356,1.8324 -1.35356,9.70566 l 0,9.99018 3,0.51625 c 2.23429,0.38449 3.08805,1.1384 3.34497,2.95379 0.65744,4.64543 -5.06201,6.39812 -11.60258,3.55553 z m 22.85401,0.26387 c -8.2,-4.33198 -8.5706,-16.37438 -0.63176,-20.52887 1.66945,-0.87364 5.51036,-2.09118 8.53536,-2.70563 3.64316,-0.74002 5.5,-1.60978 5.5,-2.57625 0,-1.17169 -1.50674,-1.41362 -7.65043,-1.22839 -8.17778,0.24656 -9.94916,-0.80754 -7.87376,-4.68545 1.23323,-2.30432 3.03033,-2.972 9.94447,-3.69467 7.55652,-0.78981 12.62611,1.31956 14.61571,6.08135 1.55836,3.72969 2.1595,28.04765 0.71401,28.88404 -0.4125,0.23869 -5.25,0.72415 -10.75,1.07882 -7.23723,0.46669 -10.66406,0.29403 -12.4036,-0.62495 z m 12.32181,-7.37679 c 2.06641,-0.79295 2.27792,-9.39301 0.23101,-9.39301 -2.86754,0 -7.73753,2.2965 -8.70551,4.10518 -2.25414,4.2119 2.89906,7.42733 8.4745,5.28783 z m 48.60222,6.35699 c -6.15119,-3.1431 -8.30229,-6.49854 -8.82833,-13.77105 -0.83538,-11.54896 4.41639,-18.96035 14.57276,-20.56535 5.58196,-0.88211 12.46665,1.69842 15.35563,5.75562 2.60043,3.65195 3.66598,11.17822 1.88621,13.32271 -0.96837,1.16681 -3.59992,1.50807 -11.62914,1.50807 -9.38062,0 -10.37756,0.17539 -10.37756,1.82569 0,1.00412 1.08811,2.84791 2.41802,4.0973 2.07035,1.94499 3.18469,2.20036 7.75,1.77604 2.93259,-0.27257 6.50587,-0.80665 7.94063,-1.18686 3.12387,-0.82782 4.32685,1.21219 2.91092,4.93636 -1.82029,4.78771 -14.53107,6.11747 -21.99914,2.30147 z m 13.97957,-23.1933 c 0,-1.72642 -3.78118,-4.5567 -6.08765,-4.5567 -1.88664,0 -6.91235,3.68808 -6.91235,5.07258 0,0.51008 2.925,0.92742 6.5,0.92742 4.99761,0 6.5,-0.3336 6.5,-1.4433 z m -503.08192,23.6933 c -0.045,-0.4125 -0.19144,-7.86374 -0.32531,-16.55831 -0.26898,-17.47029 -0.19022,-17.69169 6.29374,-17.69169 l 3.018,0 0.29774,15.86019 c 0.16376,8.7231 0.15225,16.5981 -0.0256,17.5 -0.24136,1.2241 -1.44555,1.63981 -4.75,1.63981 -2.43468,0 -4.46354,-0.3375 -4.5086,-0.75 z m 256.79564,0.13039 c -0.39255,-0.39255 -0.71372,-8.05515 -0.71372,-17.028 l 0,-16.31429 2.39829,-0.60193 c 1.31906,-0.33106 3.45656,-0.45213 4.75,-0.26905 l 2.35171,0.33288 0,17 0,17 -4.03628,0.29705 c -2.21995,0.16338 -4.35745,-0.0241 -4.75,-0.41666 z m 101.23967,-0.13039 c -0.0256,-0.4125 -0.23232,-7.82226 -0.45931,-16.46613 -0.30406,-11.57915 -0.0944,-15.92248 0.79661,-16.5 1.1019,-0.71425 10.23845,-1.36781 20.10495,-1.43816 9.17802,-0.0654 11.08046,3.6478 11.09434,21.65429 l 0.01,13 -4.5,0 -4.5,0 -0.5,-12.33387 c -0.43437,-10.71496 -0.75479,-12.51974 -2.44113,-13.75 -2.41708,-1.76336 -2.80124,-1.75953 -7.18385,0.0716 l -3.56074,1.48778 0.20193,11.26222 c 0.11106,6.19423 0.15284,11.82473 0.0929,12.51223 -0.11783,1.35043 -9.07244,1.83945 -9.15568,0.5 z m 104.0356,-20 c -0.006,-11.4125 -0.27722,-22.35919 -0.6026,-24.32597 -0.43081,-2.60411 -0.13663,-4.03093 1.08244,-5.25 1.64779,-1.64779 8.50076,-2.38728 8.56315,-0.92403 0.0559,1.31081 0.0754,48.69524 0.0205,50 -0.0339,0.80703 -1.64719,1.25 -4.55252,1.25 l -4.5,0 -0.011,-20.75 z M 389.0506,642.86011 c -0.36667,-0.36666 -0.66667,-1.92583 -0.66667,-3.46481 0,-3.23988 2.74056,-5.15466 6.69859,-4.68017 3.28604,0.39393 4.78613,2.74425 3.92961,6.15687 -0.59228,2.35985 -1.1456,2.65478 -4.98059,2.65478 -2.37285,0 -4.61428,-0.3 -4.98094,-0.66667 z m 256.33333,-3.25949 c 0,-3.42515 0.36285,-4.1268 2.39829,-4.63767 1.31906,-0.33106 3.45656,-0.45213 4.75,-0.26905 2.02152,0.28614 2.35171,0.8945 2.35171,4.33288 l 0,4 -4.75,0.30479 -4.75,0.30479 0,-4.03574 z m -58.33041,-14.79944 c -1.12239,-1.81606 -1.01352,-47.33047 0.1159,-48.45989 0.63916,-0.63916 5.8725,-1.29636 12.14673,-1.5254 l 11.02375,-0.40242 4.07503,3.80665 c 8.50271,7.94275 7.28787,21.43823 -2.53577,28.16949 -1.75182,1.20037 -5.93609,2.66706 -9.29838,3.25931 l -6.11325,1.07683 -0.2918,7.15052 -0.2918,7.15051 -4.15822,0.30301 c -2.28702,0.16666 -4.38951,-0.0712 -4.67219,-0.52861 z m 19.36588,-24.8065 c 4.3791,-3.96303 4.83517,-12.46502 0.86156,-16.06108 -2.59059,-2.34446 -8.82033,-2.2322 -10.59212,0.19086 -1.59846,2.18603 -1.77905,16.52818 -0.22765,18.07958 1.4034,1.4034 7.44804,0.0623 9.95821,-2.20936 z m -52.03547,10.88115 c -1.375,-0.25329 -3.9625,-0.92034 -5.75,-1.48234 -2.92953,-0.92106 -3.25,-1.40277 -3.25,-4.88525 0,-2.12488 0.34912,-4.0792 0.77583,-4.34292 0.42671,-0.26372 3.40619,0.40852 6.62107,1.49385 6.43825,2.17354 10.41582,1.83702 13.07977,-1.10661 3.38827,-3.74399 1.67132,-6.21358 -7.33751,-10.55398 -10.53302,-5.07474 -13.13916,-7.92952 -13.13916,-14.39271 0,-5.65249 2.56386,-9.58109 7.63578,-11.70027 3.97456,-1.66067 14.8331,-1.80853 19.26842,-0.26237 2.90645,1.01319 3.17458,1.45249 2.89922,4.75 -0.26875,3.21835 -0.58909,3.60146 -2.80342,3.35274 -15.32349,-1.72121 -17,-1.38577 -17,3.40143 0,2.01391 1.42533,3.05526 9.35874,6.8375 10.80589,5.15168 13.10465,7.72924 13.12658,14.71855 0.0165,5.26357 -2.3452,9.25805 -7.08985,11.99136 -3.04251,1.75273 -12.1462,2.96376 -16.39547,2.18102 z m -420.5288,-1.39565 c -0.49033,-0.79337 -0.94348,-38.1016 -0.5416,-44.5899 0.093,-1.50131 6.09439,-2.37305 8.3204,-1.20859 1.44001,0.7533 1.75,2.30419 1.75,8.75527 l 0,7.83982 3.125,0.625 c 3.9695,0.7939 8.76595,0.79681 12.71145,0.008 l 3.08646,-0.61729 0.28854,-8.07187 0.28855,-8.07187 3.39748,-0.87765 c 5.79216,-1.49625 5.97173,-0.81129 6.18952,23.60984 0.20802,23.3253 0.15351,23.59615 -4.75521,23.63082 -5.07552,0.0356 -5.33179,-0.52159 -5.33179,-11.59197 l 0,-10.39301 -9.5,0 -9.5,0 0,9.8 c 0,6.28889 -0.42993,10.22993 -1.2,11 -1.4765,1.4765 -7.44316,1.58639 -8.3288,0.1534 z m 52.63887,-0.371 c -3.28022,-1.78776 -5.03254,-5.30907 -5.07463,-10.19754 -0.0601,-6.97761 4.92717,-11.0567 15.71456,-12.85297 4.57065,-0.76108 5.15028,-1.53983 2.6751,-3.59405 -1.28428,-1.06586 -2.69558,-1.07558 -7.64788,-0.0527 -4.98182,1.02898 -6.22333,1.01723 -6.90978,-0.0654 -1.18686,-1.87181 -1.06602,-3.16591 0.49494,-5.30066 1.09038,-1.49118 3.05749,-1.95215 9.85254,-2.30879 8.31531,-0.43645 8.56012,-0.38316 11.88762,2.58751 l 3.39746,3.03313 0.32847,13.63752 c 0.20762,8.62017 -0.0615,14.10741 -0.7315,14.9147 -1.4922,1.79799 -20.75983,1.95803 -23.9869,0.19924 z m 12.32483,-6.55765 c 2.1417,-0.81427 2.5651,-1.61207 2.5651,-4.83333 0,-2.12195 -0.25535,-4.11343 -0.56744,-4.42553 -0.96005,-0.96005 -7.85829,1.29712 -9.18256,3.00463 -1.68899,2.17778 -1.58641,2.89307 0.75,5.22948 2.27948,2.27948 2.88224,2.37547 6.4349,1.02475 z m 26.65614,5.3984 c -3.41033,-2.8696 -3.73229,-4.23654 -4.60319,-19.54352 -0.69153,-12.15442 0.20435,-14.23658 5.88758,-13.68363 l 3.12457,0.304 0.5,12.8338 c 0.44045,11.30534 0.73587,13.00589 2.48054,14.27882 2.06693,1.50804 6.89113,1.06539 9.26946,-0.85054 0.87738,-0.70679 1.25,-4.6648 1.25,-13.27754 0,-10.26666 0.25832,-12.36969 1.58179,-12.87755 2.54872,-0.97804 5.9245,-0.7007 7.21821,0.59301 1.72651,1.72651 1.68105,32.18944 -0.05,33.50529 -0.6875,0.5226 -6.28683,1.02025 -12.44296,1.10588 -10.64308,0.14805 -11.34149,0.0307 -14.216,-2.38802 z m 41.23714,0.18272 c -2.85387,-2.4548 -3.08706,-4.20082 -3.31973,-24.85587 -0.005,-0.4125 -0.66109,-0.75 -1.45876,-0.75 -3.55609,0 -3.93284,-6.42623 -0.44172,-7.53427 1.1147,-0.35379 1.89203,-1.5214 1.89203,-2.84199 0,-3.45841 2.14386,-5.61055 6.25328,-6.27742 l 3.74672,-0.608 0,4.56748 c 0,4.39005 0.12234,4.57966 3.14915,4.88084 6.20565,0.6175 6.3965,6.73896 0.24391,7.82318 l -2.89306,0.50982 0,9.49018 0,9.49018 2.67682,0.30936 c 3.77574,0.43636 5.09756,2.33877 3.86943,5.569 -0.89096,2.34339 -1.52414,2.62164 -5.96574,2.62164 -3.79994,0 -5.62381,-0.56326 -7.75233,-2.39413 z m 27.69175,0.69369 c -11.41114,-5.90077 -11.88461,-25.53383 -0.77907,-32.30496 4.44654,-2.71109 14.03398,-2.73415 18.44532,-0.0444 3.70507,2.25914 4.88207,4.17304 6.21521,10.10642 1.65852,7.38152 0.81425,7.94335 -11.93657,7.94335 -12.08891,0 -12.9703,0.55697 -8.71326,5.50607 2.96317,3.44488 9.16203,4.36566 13.67595,2.03142 1.78915,-0.92521 3.88739,-1.43876 4.66275,-1.14123 1.8181,0.69767 1.81276,4.67031 -0.01,7.16261 -2.0701,2.83106 -16.55591,3.3287 -21.5607,0.74069 z m 14.37935,-22.13659 c 0.28452,-0.46037 -0.16444,-1.81037 -0.99769,-3 -1.84774,-2.63802 -6.92167,-2.90727 -9.57285,-0.50798 -3.44698,3.11947 -2.2871,4.34501 4.11224,4.34501 3.26754,0 6.17378,-0.37666 6.4583,-0.83703 z m 41.98758,22.65397 c -0.74658,-1.20799 -1.02538,-44.52944 -0.29104,-45.22444 0.2223,-0.2104 6.50966,-0.70466 13.97191,-1.09837 12.08164,-0.63742 13.7557,-0.52784 15.28394,1.0004 1.54668,1.54667 1.51106,4.82474 -0.0707,6.50547 -0.2588,0.275 -4.5904,0.5 -9.62577,0.5 l -9.15522,0 -0.30226,5.25 -0.30226,5.25 8.42982,0 c 9.35219,0 11.37337,1.08015 10.26732,5.48701 -0.60931,2.42769 -0.91012,2.51351 -8.86167,2.5283 -4.52702,0.008 -8.81939,0.38852 -9.5386,0.84465 -0.88233,0.55959 -1.20758,2.58744 -1,6.23469 l 0.30767,5.40535 9.96497,0.2888 c 9.71177,0.28147 11.4806,0.87874 11.51972,3.88977 0.008,0.64822 -0.69183,1.88572 -1.55612,2.75 -1.27185,1.27186 -4.12017,1.57143 -14.94098,1.57143 -9.21349,0 -13.59685,-0.36777 -14.10073,-1.18306 z m 44.63694,-1.00543 c -1.91192,-1.29751 -4.5378,-3.92339 -5.83531,-5.83531 -2.04241,-3.00955 -2.31255,-4.42837 -2.0123,-10.56912 0.28905,-5.91164 0.8115,-7.70216 3.137,-10.75105 3.72436,-4.88289 7.47311,-6.65603 14.07205,-6.65603 7.95988,0 10.61476,1.25222 10.61476,5.00663 0,3.66364 -1.82272,4.59942 -6.07287,3.11781 -2.37079,-0.82646 -3.88045,-0.75296 -6.43202,0.31316 -4.1364,1.72829 -5.49511,4.16671 -5.49511,9.8618 0,8.04679 5.75599,12.08288 12.94688,9.07833 4.21511,-1.76119 6.05312,-1.18433 6.05312,1.89976 0,4.72251 -2.20971,6.14465 -10.15154,6.53341 -6.41777,0.31416 -7.78873,0.0609 -10.82466,-1.99939 z m 34.04728,0.43694 c -4.52164,-2.30565 -6.86455,-5.7005 -7.93549,-11.49845 -1.73876,-9.41342 1.60258,-17.97428 8.24585,-21.12671 4.67828,-2.21999 14.20591,-2.11737 18.63416,0.2007 10.61095,5.55456 10.5947,26.62531 -0.0249,32.32067 -4.5438,2.43687 -14.23983,2.49006 -18.9196,0.10379 z m 14.85634,-7.88331 c 3.16181,-4.01959 2.94581,-13.58282 -0.38197,-16.91059 -3.10439,-3.1044 -6.65602,-3.12367 -10.22302,-0.0555 -2.4793,2.13261 -2.7891,3.06975 -2.7891,8.43718 0,5.00257 0.41291,6.47761 2.40765,8.60092 3.30817,3.52138 8.18501,3.4894 10.98644,-0.072 z m 21.39461,8.38486 c -0.508,-0.68807 -0.9002,-12.24701 -0.87245,-25.7124 l 0.0504,-24.4624 3.19382,-0.91615 c 6.4371,-1.84648 6.3062,-2.38001 6.3062,25.70258 0,22.26123 -0.1968,25.49991 -1.58179,26.03138 -2.61601,1.00386 -6.11435,0.68686 -7.09618,-0.64301 z m 25.26638,-1.01645 c -10.9592,-6.2578 -10.46173,-26.76953 0.77861,-32.10342 6.67354,-3.1668 16.55885,-1.7318 20.7867,3.01749 2.30439,2.58861 4.23366,9.67281 3.46657,12.72914 -0.63544,2.5318 -0.75686,2.56083 -11.88115,2.84059 -10.60485,0.2667 -11.22075,0.39552 -10.91323,2.28265 0.87203,5.35134 9.17666,8.1418 15.23542,5.11929 5.0877,-2.53808 6.10486,-2.16516 5.74904,2.10772 -0.40469,4.85961 -3.13512,6.24404 -12.31037,6.2418 -5.4076,-10e-4 -7.88983,-0.50981 -10.91159,-2.23526 z m 14.95053,-21.79656 c 1.03541,-1.67533 -2.57933,-4.93699 -5.47142,-4.93699 -3.13121,0 -7.06752,2.53789 -7.06752,4.5567 0,1.09577 1.43051,1.4433 5.94098,1.4433 3.26754,0 6.23663,-0.47836 6.59796,-1.06301 z m 129.44546,22.2114 c -11.97453,-6.36327 -11.80259,-26.12656 0.28404,-32.64839 2.53801,-1.36949 3.5454,-2.50821 3.19544,-3.61204 -0.28109,-0.88662 0.3775,-3.68501 1.46355,-6.21865 2.11554,-4.93537 4.85802,-6.44194 9.57257,-5.25867 3.3072,0.83006 3.1632,1.92737 -1.01637,7.74503 -3.09367,4.30616 -3.30404,4.9604 -1.75,5.44243 7.99277,2.47923 11.56177,6.27196 12.80029,13.60269 1.03651,6.13506 -0.14517,6.79921 -12.09735,6.79921 -6.42474,0 -10.57504,0.41503 -10.99827,1.09983 -1.17082,1.89443 3.06429,6.35227 6.97648,7.34338 2.6613,0.67421 4.63036,0.57401 6.90417,-0.35133 6.59271,-2.68294 7.68255,-2.60594 7.66574,0.54154 -0.0296,5.54102 -3.17304,7.36658 -12.68455,7.36658 -4.72764,0 -7.90436,-0.5702 -10.31574,-1.85161 z m 14.49306,-22.11192 c 0.97057,-1.57042 -3.26092,-5.03647 -6.14872,-5.03647 -2.91083,0 -6.32874,2.51398 -6.32874,4.65499 0,1.59849 11.50786,1.95033 12.47746,0.38148 z m 24.44422,21.68973 c -1.85575,-1.25058 -4.43568,-3.83808 -5.73319,-5.75 -2.05002,-3.02076 -2.31296,-4.41943 -2.00693,-10.67547 0.38989,-7.97011 2.01924,-11.11075 7.80827,-15.05073 2.61135,-1.77727 4.70544,-2.25 9.96692,-2.25 7.95325,0 10.3569,1.35019 9.87904,5.54931 -0.29651,2.60554 -0.68671,2.92139 -3.33579,2.70022 -8.49362,-0.70912 -9.93201,-0.44861 -12.2219,2.21355 -3.24872,3.77686 -3.18736,11.36831 0.12298,15.21682 1.9437,2.25969 3.18053,2.77099 6.49286,2.68413 2.25048,-0.059 4.76426,-0.6654 5.58618,-1.34753 3.10904,-2.58028 6.16811,1.96918 3.75457,5.5838 -2.72487,4.08086 -14.92471,4.75708 -20.31301,1.1259 z m 28.30271,1.43364 c -0.96825,-0.61447 -1.2092,-4.7521 -1,-17.17213 l 0.27561,-16.36259 3.37195,-0.87275 c 6.09062,-1.57642 6.12805,-1.47555 6.12805,16.51625 0,11.36885 -0.36464,16.69602 -1.2,17.53138 -1.36472,1.36472 -5.66995,1.56922 -7.57561,0.35984 z m 20.17714,-2.55831 c -2.62602,-2.62602 -3.40153,-4.23361 -3.40153,-7.05119 0,-7.76425 5.10852,-12.31773 15.75,-14.03878 2.63715,-0.42651 4.25,-1.21601 4.25,-2.08041 0,-2.13761 -4.58159,-2.80822 -9.59531,-1.40446 -5.11585,1.43235 -6.77352,0.59909 -6.23935,-3.13632 0.4652,-3.25313 4.25774,-4.85832 11.51956,-4.87563 12.81983,-0.0306 14.3151,2.20144 14.3151,21.36821 0,15.68704 1.26866,14.30941 -13.34847,14.49503 l -9.84848,0.12507 -3.40152,-3.40152 z m 15.43216,-5.19759 c 1.70776,-1.19617 2.20198,-2.3863 1.9725,-4.75 -0.28583,-2.94423 -0.55433,-3.14646 -4.03799,-3.04149 -4.48132,0.13503 -6.7682,1.81105 -6.7682,4.9603 0,4.07804 4.83924,5.62901 8.83369,2.83119 z m 22.41631,7.93378 c -0.95311,-0.38459 -1.25,-6.42834 -1.25,-25.4458 l 0,-24.94142 2.68446,-1.02063 c 1.47645,-0.56135 3.61395,-0.88771 4.75,-0.72525 2.0158,0.28827 2.07199,0.89436 2.33329,25.17154 0.18849,17.51279 -0.0698,25.28281 -0.87245,26.25 -1.11408,1.34238 -5.15085,1.71809 -7.6453,0.71156 z m 19.35047,-0.17516 c -0.73826,-1.19452 -0.90575,-31.85958 -0.18043,-33.03317 0.33159,-0.53654 1.96617,-1.27494 3.63239,-1.6409 5.53623,-1.21596 5.94757,10e-4 5.94757,17.59877 0,14.63943 -0.14687,15.92098 -1.93426,16.87756 -2.32689,1.24531 -6.7455,1.36235 -7.46527,0.19774 z m 19.14953,-0.24266 c -1.14863,-0.66901 -1.75,-2.24395 -1.75,-4.58309 0,-3.4915 0.0659,-3.55021 3.25,-2.89368 7.60453,1.56802 10.30813,1.64574 12.05443,0.34655 2.80926,-2.09002 1.05359,-4.60588 -4.32983,-6.20458 -7.15283,-2.12417 -8.99131,-3.38084 -10.60851,-7.25135 -1.17309,-2.80761 -1.23524,-4.2002 -0.31225,-6.9969 1.7167,-5.20165 5.92379,-7.32857 14.50503,-7.33311 8.37069,-0.004 10.76168,1.28578 10.27692,5.54557 -0.3623,3.18365 -0.8251,3.27873 -9.09956,1.86962 -7.4203,-1.26365 -8.63612,3.7239 -1.38341,5.67504 8.40228,2.26039 12.64718,6.25654 12.64718,11.90603 0,3.38788 -2.80712,7.8489 -5.96727,9.48307 -3.37446,1.745 -16.52524,2.04292 -19.28273,0.43683 z m 39.2344,-0.77151 c -6.98823,-3.71355 -10.30303,-12.53766 -7.96772,-21.21032 1.62355,-6.0294 4.3033,-9.49335 8.91991,-11.53019 3.14074,-1.3857 3.69972,-2.02236 2.90757,-3.31169 -1.52268,-2.47838 2.58833,-10.91565 5.699,-11.69638 3.05891,-0.76774 7.45684,0.26427 7.45684,1.74981 0,0.61134 -1.58237,3.31406 -3.51637,6.00605 -3.09367,4.30616 -3.30404,4.9604 -1.75,5.44243 8.06516,2.50169 11.49508,6.17705 12.68005,13.58747 0.99587,6.2278 -0.0352,6.81443 -11.97711,6.81443 -6.42474,0 -10.57504,0.41503 -10.99827,1.09983 -1.17082,1.89443 3.06429,6.35227 6.97648,7.34338 2.66667,0.67557 4.62577,0.57391 6.90417,-0.35825 5.80063,-2.37322 7.18105,-2.01076 7.18105,1.88551 0,2.69788 -0.55654,3.75203 -2.5,4.73526 -3.90267,1.97442 -15.87882,1.64094 -20.0156,-0.55734 z m 14.41488,-21.98542 c 0.28452,-0.46037 -0.16444,-1.81037 -0.99769,-3 -1.84774,-2.63802 -6.92167,-2.90727 -9.57285,-0.50798 -3.44698,3.11947 -2.2871,4.34501 4.11224,4.34501 3.26754,0 6.17378,-0.37666 6.4583,-0.83703 z m 26.05114,22.43043 c -6.89189,-3.00192 -10.14864,-9.97512 -9.21189,-19.72407 0.53803,-5.5993 2.78112,-9.22835 7.85342,-12.70584 2.9225,-2.00363 4.36496,-2.28418 10.12453,-1.96921 5.7996,0.31717 7.13364,0.76697 9.77232,3.29499 3.40703,3.26414 5.36258,8.51743 4.85,13.02881 l -0.3388,2.98192 -11.25,0.28275 c -10.42508,0.26202 -11.25,0.427 -11.25,2.25 0,1.08199 0.88855,2.8558 1.97456,3.94181 3.61757,3.61757 7.22866,3.70214 17.13753,0.40132 4.23436,-1.41054 2.61639,7.01646 -1.65926,8.64205 -3.67557,1.39745 -14.40008,1.14455 -18.00241,-0.42453 z m 13.54958,-22.76466 c 0,-4.40206 -7.4984,-6.33034 -11,-2.82874 -3.25026,3.25026 -2.4068,4 4.5,4 4.30028,0 6.5,-0.39638 6.5,-1.17126 z M 701.77797,567.11125 c -0.29875,-0.77854 -0.39713,-2.67503 -0.21861,-4.21443 0.26503,-2.28547 0.95035,-2.92589 3.73592,-3.49117 1.87624,-0.38075 4.01374,-0.46111 4.75,-0.17858 1.66381,0.63846 1.76372,6.47464 0.13865,8.09971 -1.68003,1.68003 -7.73817,1.5247 -8.40596,-0.21553 z m 77.80596,0.21553 c -1.56658,-1.56658 -1.53811,-5.28957 0.05,-6.53684 2.07177,-1.62714 7.36526,-2.2479 8.60417,-1.00899 1.85576,1.85576 1.3755,6.55255 -0.78843,7.71065 -2.59527,1.38894 -6.39152,1.3094 -7.86574,-0.16482 z m 163.72045,-37.87582 c -13.21815,-2.04821 -23.10924,-12.8696 -24.57419,-26.88548 -1.08491,-10.37985 -2.6837,-6.37422 32.14588,-80.5387 67.93413,-144.65578 65.10513,-138.87321 70.81293,-144.74607 7.2027,-7.41102 11.5887,-9.23831 22.1949,-9.24676 8.2207,-0.007 9.4762,0.26114 14.5,3.09161 6.1249,3.45089 12.1212,10.52466 13.8704,16.36285 1.4363,4.79405 1.4456,15.34941 0.018,20.53837 -0.6053,2.2 -6.5171,15.475 -13.1375,29.5 -6.6203,14.025 -15.5113,32.925 -19.7578,42 -12.1679,26.004 -50.15848,106.31872 -57.31497,121.16795 -11.36972,23.59141 -21.85991,31.3746 -38.75765,28.75623 z m 13.00485,-13.88607 c 7.00227,-3.57229 5.33715,-0.36505 56.60987,-109.03811 4.5412,-9.625 16.4575,-34.825 26.4809,-56 20.0103,-42.27341 21.9839,-47.03205 21.9839,-53.00714 0,-13.3127 -13.3763,-21.92281 -24.914,-16.03671 -8.3965,4.28354 -3.8487,-4.61955 -73.06848,143.04385 -8.37922,17.875 -18.94699,40.375 -23.48393,50 -9.09549,19.29582 -10.15605,22.95047 -8.48392,29.23518 3.09384,11.62818 14.55693,17.06715 24.87566,11.80293 z m 67.99507,13.84971 c -9.2785,-1.36408 -17.6228,-7.68193 -22.0768,-16.71535 -1.8831,-3.8191 -2.30666,-6.31621 -2.31927,-13.67247 l -0.0154,-9 9.62367,-20.5 c 5.2931,-11.275 23.6681,-50.425 40.8333,-87 50.1831,-106.92831 49.4656,-105.59888 60.2109,-111.55124 4.7923,-2.65465 6.2209,-2.94804 14.3232,-2.94159 7.3405,0.006 9.759,0.41191 13.1165,2.2022 6.6924,3.56862 10.0825,7.00067 13.3255,13.49042 2.5507,5.10439 3.0571,7.29594 3.0524,13.20993 -0.01,11.09318 2.5564,4.9642 -38.7509,92.59028 -6.6115,14.025 -14.2673,30.225 -17.0129,36 -2.7456,5.775 -10.6169,22.425 -17.4917,37 -22.7135,48.15421 -24.3758,51.37984 -29.303,56.86008 -7.5011,8.34297 -16.5482,11.64011 -27.5155,10.02774 z m 13.1309,-14.03683 c 2.103,-1.18195 5.2385,-4.11917 6.9678,-6.52714 3.3878,-4.71735 4.1401,-6.26018 35.9988,-73.82385 34.4537,-73.06715 37.18,-78.84305 49.5618,-105 11.6322,-24.5734 11.8349,-25.1224 11.8772,-32.17307 0.048,-7.99243 -1.4205,-10.97531 -7.4106,-15.05258 -7.3546,-5.00604 -15.9308,-3.81387 -22.5463,3.13415 -4.5942,4.82515 -7.2893,10.14065 -33.5096,66.0915 -10.5676,22.55 -22.7121,48.425 -26.9878,57.5 -4.2756,9.075 -11.0352,23.475 -15.0212,32 -3.986,8.525 -11.0922,23.6 -15.7915,33.5 -7.7872,16.40524 -8.5435,18.53159 -8.5362,24 0.01,6.17855 1.639,10.64496 4.9962,13.68312 5.7446,5.19884 13.9817,6.27598 20.4014,2.66787 z M 297.04883,500.49392 c -34.0686,-5.35092 -54.84227,-22.46675 -62.89884,-51.82361 -2.84852,-10.37953 -3.10045,-37.05187 -0.45001,-47.64353 6.53283,-26.10648 24.97884,-44.71732 51.18395,-51.64131 11.19276,-2.95738 33.74359,-3.1865 44.5,-0.45212 14.88261,3.78329 25.17373,10.08591 32.69607,20.02416 9.57861,12.65493 13.7663,25.82166 15.56551,48.94045 l 1.15735,14.87117 -2.32025,1.87883 c -2.05592,1.66478 -4.15886,1.87903 -18.45946,1.88066 -8.87657,0.001 -29.30172,0.29852 -45.38922,0.66111 -33.41586,0.75315 -31.5014,0.052 -26.85753,9.83705 2.92221,6.15741 9.62336,12.75625 15.60753,15.36925 15.07424,6.58221 39.76388,4.98575 59.44297,-3.84366 7.45528,-3.34496 10.34055,-3.75331 11.17396,-1.58146 0.30479,0.79426 0.1278,8.25713 -0.3933,16.58414 -0.79786,12.74929 -1.24561,15.42717 -2.83555,16.95849 -2.20401,2.12275 -14.06316,6.50249 -23.38212,8.63533 -7.81134,1.78778 -39.84703,2.67915 -48.34106,1.34505 z m 20.3351,-95.83968 10.5,-0.62746 -0.31678,-4.5 c -1.35167,-19.20091 -22.98937,-27.24648 -36.61957,-13.61628 -4.3519,4.3519 -7.56365,11.4833 -7.56365,16.79442 l 0,2.82186 11.75,-0.12254 c 6.4625,-0.0674 16.475,-0.40489 22.25,-0.75 z m 120.5,95.27772 c -11.20405,-1.98221 -27.35995,-7.27498 -28.45561,-9.32224 -0.82203,-1.53598 0.37465,-26.99168 1.54349,-32.83294 0.60841,-3.04051 4.57554,-2.97772 8.72884,0.13814 13.92773,10.44879 39.4486,15.29805 50.97459,9.68577 5.12821,-2.49705 7.70869,-6.11292 7.70869,-10.80174 0,-6.34005 -5.00677,-9.56121 -26.30859,-16.92593 -16.04068,-5.54578 -23.43051,-9.34116 -30.15624,-15.48809 -9.34842,-8.54393 -13.18052,-19.03274 -12.2723,-33.5904 1.00499,-16.10875 10.30704,-29.19387 26.07045,-36.6731 17.97369,-8.52793 47.10293,-9.85098 75.16668,-3.41405 13.778,3.16023 12.91253,2.0351 12.06241,15.68149 -1.5015,24.10244 -1.70221,24.37168 -13.74097,18.43175 -12.26789,-6.05298 -15.08491,-6.75139 -27.32144,-6.77375 -9.72754,-0.0178 -11.42356,0.2433 -14.66155,2.2568 -6.91427,4.29956 -6.97543,11.50444 -0.1315,15.48956 1.76382,1.02705 11.11157,4.7351 20.77278,8.2401 19.52583,7.08381 27.00998,10.93053 33.08409,17.00464 9.75908,9.75908 13.81429,26.93843 9.90327,41.95385 -6.6931,25.69655 -31.04458,38.70325 -71.96709,38.43933 -7.15,-0.0461 -16.6,-0.72075 -21,-1.49919 z m 225.67627,-0.41821 c -8.62574,-1.20294 -20.97718,-4.4027 -25.7415,-6.66858 l -3.93477,-1.87135 0.30933,-12.44255 c 0.41281,-16.60474 1.44505,-17.66055 11.19067,-11.44618 17.80111,11.35102 46.37008,12.12216 58.35641,1.57518 2.76078,-2.42926 5.64359,-8.63221 5.64359,-12.14331 0,-8.79326 -5.97555,-12.86921 -30.9381,-21.103 -10.20904,-3.36741 -21.20632,-7.45482 -24.4384,-9.08312 -16.19368,-8.15832 -24.45956,-23.67437 -21.70942,-40.7512 2.72855,-16.94274 14.97043,-28.80969 35.62198,-34.53102 9.02153,-2.49933 31.81332,-3.1232 42.97467,-1.17632 10.30405,1.79734 21.15047,4.95504 23.88279,6.95296 1.7746,1.29762 1.79816,1.91275 0.48577,12.68217 -1.76003,14.44277 -2.04171,14.66158 -12.55003,9.74896 -10.10738,-4.72518 -18.7376,-6.69644 -29.39776,-6.71483 -9.94225,-0.0172 -17.52369,1.92974 -21.92,5.62899 -8.85602,7.45186 -7.63989,17.47042 2.76043,22.74066 2.66422,1.35006 13.14295,5.00519 23.28605,8.12252 20.74775,6.37648 28.15099,9.87838 35.01249,16.56169 15.67399,15.26694 15.38604,41.37437 -0.63351,57.43723 -6.26768,6.28462 -18.38757,12.68172 -28.43696,15.00952 -8.63733,2.00072 -30.29175,2.8009 -39.82373,1.47158 z m 163.82373,-0.0403 c -31.67341,-3.90047 -52.85447,-23.04492 -59.13235,-53.44662 -1.753,-8.48918 -1.98624,-12.34177 -1.54384,-25.5 0.59364,-17.65639 1.85762,-23.42421 7.88912,-36 7.57565,-15.79534 22.52274,-27.50448 42.34366,-33.17085 10.74865,-3.0728 36.13202,-3.33416 46.94341,-0.48335 23.3281,6.1513 39.6629,22.33136 45.47081,45.04006 4.45632,17.42406 4.65584,38.76627 0.51601,55.19667 -4.45361,17.67572 -17.11174,33.7248 -32.51719,41.22811 -13.20749,6.43279 -32.87384,9.24126 -49.96963,7.13598 z m 26,-24.53959 c 6.29741,-2.03852 13.56799,-7.65679 17.08809,-13.20464 5.26669,-8.30056 7.11396,-16.07242 7.65411,-32.20239 1.13162,-33.79269 -7.58081,-51.41081 -28.01392,-56.64926 -11.91968,-3.05586 -26.41619,0.10146 -34.94824,7.61168 -9.83666,8.65857 -14.06228,21.8306 -14.12737,44.03758 -0.0462,15.7611 1.29045,23.15571 5.90424,32.66366 7.93247,16.34695 27.57478,23.8512 46.44309,17.74337 z m -827.001871,23.3994 c -1.798203,-0.66797 -1.852864,-2.73144 -1.483425,-56 0.210965,-30.41856 -0.01395,-66.10648 -0.499804,-79.30648 -1.964841,-53.38173 -2.088919,-59.04529 -1.317739,-60.14841 0.560514,-0.80178 9.039112,-1.25407 28.090252,-1.49848 23.387198,-0.30003 27.435238,-0.13589 28.321643,1.14841 0.68708,0.9955 0.872979,13.29708 0.553832,36.64908 l -0.480397,35.1506 14.457616,0.72274 c 7.951693,0.3975 22.873133,0.32973 33.158753,-0.1506 l 18.70114,-0.87334 0.32734,-9.5 c 0.18004,-5.225 -0.18233,-20.93406 -0.80526,-34.90902 -0.92429,-20.73551 -0.89253,-25.63863 0.17266,-26.65735 1.51503,-1.44895 52.43238,-2.49857 54.55526,-1.12461 0.97668,0.63212 1.25,13.67882 1.25,59.66731 0,52.87621 1.06793,107.48846 2.47414,126.52367 0.28441,3.85 0.0863,7.675 -0.44014,8.5 -0.7969,1.24873 -5.36094,1.58564 -27.24563,2.01126 -14.4586,0.2812 -26.88534,0.33233 -27.61497,0.11362 -0.72964,-0.21871 -1.63989,-1.34878 -2.02278,-2.51126 -0.3829,-1.16249 -0.28664,-15.61362 0.21389,-32.11362 0.50054,-16.5 0.57958,-34.84351 0.17564,-40.76336 l -0.73443,-10.76336 -33.15286,0.26336 -33.152861,0.26336 0.36328,24.5 c 0.199804,13.475 0.679755,31.7 1.066558,40.5 0.386802,8.8 0.507054,16.79242 0.267227,17.76094 -0.239827,0.96851 -1.394777,1.97888 -2.566557,2.24526 -3.464223,0.7875 -50.596839,1.05641 -52.632378,0.30028 z m 1140.001841,0.0956 c -12.5447,-2.4499 -25.4782,-13.06368 -31.1431,-25.55737 -8.458,-18.65364 -5.0814,-42.18464 8.1272,-56.63687 8.4766,-9.27478 19.257,-13.67483 33.5558,-13.69594 19.283,-0.0285 35.4601,8.81136 35.4601,19.3769 0,3.25005 -0.6348,5.00412 -2.5644,7.08625 -2.2657,2.44466 -3.1104,2.71293 -7.25,2.30248 -2.9387,-0.29137 -6.5369,-1.64606 -9.6511,-3.63353 -14.1911,-9.05673 -28.8193,-6.22331 -36.0019,6.97339 -3.7924,6.96804 -4.6548,18.51076 -2.0517,27.4648 2.3503,8.08475 8.9036,14.71947 16.0191,16.2181 10.0527,2.11723 19.8203,-1.69896 23.429,-9.15369 3.4162,-7.05681 3.1673,-7.38501 -5.913,-7.79737 -7.1411,-0.3243 -8.2759,-0.65456 -10.75,-3.12861 -2.2132,-2.21329 -2.766,-3.67807 -2.766,-7.3299 0,-3.76063 0.4938,-4.98861 2.8058,-6.97727 2.712,-2.33278 3.3379,-2.41342 18.7342,-2.41342 l 15.9284,0 3.1141,2.78244 c 2.3721,2.11945 3.237,3.8729 3.63,7.35891 1.2055,10.69518 -3.7036,26.05621 -10.9804,34.35865 -9.1062,10.38977 -26.1302,15.449 -41.7321,12.40205 z m 119.7658,-2.81921 -3.2658,-2.91716 -0.2825,-40.56966 c -0.3041,-43.67397 -0.1732,-44.94381 4.914,-47.66638 3.0565,-1.63583 8.2896,-1.38647 11.5449,0.55012 1.553,0.92387 11.3736,13.11741 21.8236,27.09675 10.45,13.97933 19.3375,25.41844 19.75,25.42023 0.4125,0.002 0.75,-10.31745 0.75,-22.93164 0,-12.6142 0.4299,-24.06566 0.9554,-25.4477 2.0894,-5.49552 10.8912,-7.72971 16.353,-4.15095 1.516,0.9933 3.0888,3.30333 3.6674,5.38636 0.6008,2.16318 1.0147,18.9056 1.0171,41.14719 0,33.71073 -0.1727,37.85226 -1.7445,40.98609 -0.9616,1.91735 -2.8734,4.07247 -4.2484,4.78917 -3.3328,1.73717 -9.6685,0.88478 -12.3838,-1.66608 -1.2029,-1.13012 -10.4962,-13.07171 -20.6517,-26.53687 -10.1555,-13.46516 -18.7793,-24.50241 -19.164,-24.52721 -0.3847,-0.0248 -0.8347,10.79257 -1,24.03861 l -0.3005,24.08371 -3.2658,2.91629 c -4.517,4.03367 -9.9521,4.03334 -14.4684,-8.7e-4 z m 172.3447,0.16716 c -2.6418,-2.65552 -5.3988,-9.2366 -25.8697,-61.75 -3.6448,-9.35 -6.8267,-17.225 -7.0708,-17.5 -0.2441,-0.275 -0.6427,0.0565 -0.8858,0.73662 -0.2431,0.68014 -1.2652,2.25514 -2.2714,3.5 -1.6922,2.09368 -2.8297,2.30087 -15.1711,2.76338 l -13.3417,0.5 0,8 0,8 12.3403,0.5 c 12.0088,0.48657 12.405,0.57535 14.75,3.30576 1.5557,1.81138 2.4097,4.04973 2.4097,6.31575 0,8.25753 -3.8727,10.37849 -18.9503,10.37849 l -11.0497,0 0,8.5 0,8.5 12.9233,0 c 12.3627,0 13.0535,0.10961 15.9265,2.52703 1.6517,1.38987 3.2868,3.81825 3.6334,5.39641 0.7792,3.54767 -1.5739,9.51956 -4.3328,10.99607 -3.2339,1.73075 -41.5596,1.43737 -45.0054,-0.34451 -5.0126,-2.59215 -5.1453,-3.76286 -5.1413,-45.37205 0,-36.59786 0.1098,-38.87676 1.9522,-41.89848 2.9187,-4.78672 6.7826,-5.50236 27.6919,-5.12874 16.48,0.29447 18.3519,0.50808 20.3681,2.32427 1.2211,1.1 2.5442,2.86779 2.9402,3.92841 0.6484,1.73659 0.9051,1.61515 2.5803,-1.22078 3.2751,-5.54428 10.4982,-7.11142 16.111,-3.49547 2.5347,1.63294 3.6082,4.11252 13.8705,32.03784 4.295,11.6875 8.1394,21.25 8.5432,21.25 0.4037,0 4.8656,-11.1375 9.9153,-24.75 9.4645,-25.51366 11.6968,-29.56017 16.8659,-30.57277 4.1882,-0.82044 10.5728,2.49658 12.1543,6.31451 1.8357,4.43183 1.5964,5.19019 -14.8364,47.00826 -15.604,39.70899 -16.9184,42 -24.0958,42 -3.2719,0 -4.832,-0.61698 -6.9539,-2.75 z m -231.3447,-1.16826 -3.2658,-2.91825 0,-40.33175 c 0,-37.67316 0.1226,-40.51255 1.8604,-43.07467 2.8663,-4.22611 7.1521,-4.94077 27.4739,-4.58134 l 18.3342,0.32427 2.9158,3.26578 c 3.4326,3.84476 3.714,7.41266 0.943,11.95738 -2.3984,3.93357 -3.5425,4.22112 -18.0273,4.5309 l -11.5,0.24594 0,8 0,8 11.8347,0.28247 c 13.5314,0.32296 16.0496,1.32829 17.6258,7.03652 0.7942,2.87633 0.645,4.33255 -0.7314,7.13929 -2.519,5.13664 -5.1306,6.01015 -18.0195,6.02698 l -11.2905,0.0147 0.2905,8.25 0.2904,8.25 13,0.5 c 7.4119,0.28507 13.9082,1.02089 15.1128,1.71178 5.1145,2.93332 5.5337,12.45464 0.7152,16.24489 -2.4274,1.90938 -3.9645,2.04333 -23.4471,2.04333 l -20.8493,0 -3.2658,-2.91826 z m 284.1036,-0.22158 -2.9331,-3.13985 0.2819,-40.83831 0.2818,-40.83831 2.7702,-2.77185 2.7701,-2.77184 17.7148,-0.31721 c 9.7432,-0.17447 19.2344,-0.0321 21.0916,0.31627 7.8924,1.48063 10.8467,10.14655 5.5891,16.39482 l -2.5641,3.04732 -12.6859,0.2794 -12.6858,0.2794 0,8 0,8 10.5,0.24731 c 13.4305,0.31634 14.6574,0.64272 17.0273,4.52953 2.3466,3.84867 2.4872,6.82764 0.5031,10.6644 -2.0305,3.9266 -6.0992,5.05876 -18.1796,5.05876 l -10.3508,0 0,8.42252 0,8.42252 13.589,0.32748 c 13.4764,0.32477 13.609,0.35074 16,3.13324 3.539,4.11843 3.3226,9.93646 -0.5121,13.77116 l -2.9231,2.92308 -21.1757,0 -21.1757,0 -2.933,-3.13984 z M 576.03912,442.06813 c -12.83022,-4.5746 -16.37135,-20.82519 -6.65519,-30.54135 11.67476,-11.67476 31.23077,-3.53445 31.23077,13 0,8.70761 -5.23782,15.52858 -13.73077,17.88094 -5.01403,1.38877 -6.09202,1.35501 -10.84481,-0.33959 z m 818.34478,-45.6336 c -12.5091,-4.74413 -14.5055,-6.40811 -14.3597,-11.96883 0.1376,-5.24578 3.4226,-8.93892 7.9512,-8.93892 3.9672,0 20.443,6.45186 23.3197,9.13186 4.3493,4.05203 1.5667,13.66079 -4.4112,15.23228 -1.1,0.28918 -6.725,-1.2662 -12.5,-3.45639 z"
       id="path2993"
       inkscape:connector-curvature="0" />
    <path
       style="fill:#a19891"
       d="m 210.70941,683.04765 c -7.80318,-3.34506 -10.28744,-16.72824 -4.53733,-24.44348 2.97929,-3.99747 7.88612,-6.34954 14.58394,-6.99075 l 6.12791,-0.58664 0.2901,-7.64109 c 0.27679,-7.29024 0.40667,-7.66337 2.82882,-8.12639 1.41366,-0.27024 2.73378,0.023 2.97889,0.66177 0.2421,0.6309 0.31913,11.68729 0.17118,24.56977 l -0.26899,23.42268 -9.5,0.24749 c -6.29912,0.16411 -10.56961,-0.21102 -12.67452,-1.11336 z m 14.45201,-5.07757 c 2.02411,-1.41774 2.22251,-2.38186 2.22251,-10.8 0,-9.86008 -0.72474,-11.6433 -4.73212,-11.6433 -10.64773,0 -17.30664,13.04676 -10.67899,20.92327 2.13212,2.53389 3.32792,3.07673 6.7775,3.07673 2.30373,0 5.18873,-0.70052 6.4111,-1.5567 z m 28.24244,4.80515 c -5.30775,-2.66671 -8.02023,-7.45217 -8.01838,-14.14633 0.003,-10.01339 4.87107,-15.99912 13.7025,-16.84771 8.77498,-0.84316 13.94586,2.86684 15.67374,11.24559 1.01588,4.92619 0.0225,5.40261 -11.91456,5.71401 l -10.96323,0.28599 0.21175,3 c 0.13609,1.92815 1.34773,4.02259 3.39126,5.86212 2.85836,2.57303 3.6955,2.8087 8.28825,2.33332 2.80981,-0.29084 6.12124,-0.84378 7.35874,-1.22875 3.31478,-1.03119 3.05132,2.84718 -0.29705,4.37279 -3.8487,1.75359 -13.41165,1.42937 -17.43302,-0.59103 z m 14.98007,-20.74845 c 0,-6.32216 -8.62963,-8.98087 -13.75,-4.23626 -1.2375,1.14669 -2.25,3.13145 -2.25,4.41057 0,2.24044 0.29323,2.32569 8,2.32569 7.86667,0 8,-0.0417 8,-2.5 z m 41.25,21.46884 c -2.23449,-0.89816 -3.09547,-4.32827 -1.35623,-5.40318 0.49157,-0.30381 2.61549,0.167 4.71983,1.04625 4.63791,1.93784 11.63175,1.38101 14.42698,-1.14863 2.46451,-2.23036 2.58068,-7.60694 0.20942,-9.69233 -0.9625,-0.84646 -5.16945,-3.10548 -9.34878,-5.02005 -8.37074,-3.83467 -10.90122,-6.50949 -10.90122,-11.52307 0,-7.8241 6.03569,-12.32322 16.27024,-12.12815 7.55232,0.14395 10.17264,1.08575 10.56311,3.79662 0.32408,2.24996 0.18507,2.29299 -5,1.54785 -8.17203,-1.1744 -11.07721,-0.72138 -13.58335,2.1181 -1.2375,1.4021 -2.25,2.9135 -2.25,3.35866 0,2.33526 4.72694,6.19393 10.109,8.25211 3.34672,1.27984 7.69131,3.7056 9.65464,5.39059 3.103,2.66307 3.56969,3.64763 3.56969,7.53081 0,8.92337 -5.47643,12.94577 -17.48446,12.84219 -4.04188,-0.0349 -8.36137,-0.47036 -9.59887,-0.96777 z m 43.4063,-0.10137 c -3.41245,-1.98362 -4.6563,-7.14871 -4.6563,-19.33535 l 0,-11.53212 3,0 3,0 0,11.54545 c 0,10.92481 0.13195,11.67741 2.45455,14 2.81288,2.81288 6.35185,3.12314 10.59511,0.92887 l 2.95034,-1.52568 0,-12.53768 0,-12.53768 3.25,0.31336 3.25,0.31336 0.27564,15.17447 c 0.25777,14.19091 0.15179,15.21379 -1.63509,15.78092 -1.0509,0.33355 -3.03052,0.0962 -4.39915,-0.52735 -1.82246,-0.83037 -3.03991,-0.83865 -4.54917,-0.0309 -2.61302,1.39845 -11.11116,1.37983 -13.53593,-0.0296 z m 37.78361,-0.16346 c -0.27352,-0.71279 -0.3719,-7.80029 -0.21861,-15.75 l 0.2787,-14.45401 3.25,-0.31336 3.25,-0.31336 0,15.45637 c 0,13.1717 -0.23381,15.54609 -1.58179,16.06336 -2.53179,0.97154 -4.44257,0.70709 -4.9783,-0.689 z m 19.08874,-0.0594 c -1.12791,-0.82475 -1.60821,-1.99489 -1.22681,-2.98882 0.50335,-1.31169 1.13906,-1.43866 3.22758,-0.6446 6.44237,2.44938 13.47058,0.24893 13.47058,-4.21749 0,-2.12409 -1.60236,-3.27594 -7.86221,-5.65172 -6.81845,-2.58779 -9.13779,-4.7104 -9.13779,-8.36271 0,-3.96819 1.5092,-6.47411 4.97998,-8.26892 5.33958,-2.7612 17.02002,-1.43856 17.02002,1.92727 0,1.21926 -1.1258,1.38292 -6.25,0.90858 -5.55906,-0.5146 -6.46645,-0.33814 -8.20796,1.59616 -2.70635,3.00595 -1.20244,5.05496 5.55379,7.56683 8.05538,2.99486 9.67437,4.16806 10.41685,7.54854 0.88638,4.03564 -0.90396,8.15147 -4.45936,10.2517 -3.55822,2.10189 -14.81413,2.31717 -17.52467,0.33518 z m 33.30649,0.68246 c -2.03413,-0.53872 -2.92243,-2.56779 -1.86979,-4.271 0.58966,-0.9541 1.28393,-0.99303 2.84173,-0.15932 3.42504,1.83303 9.94248,1.35369 12.19292,-0.89675 1.1,-1.1 2,-2.43247 2,-2.96104 0,-1.93062 -4.10936,-4.70819 -9.46189,-6.39542 -7.65085,-2.41172 -10.44688,-7.20845 -7.45762,-12.79394 2.90541,-5.4288 20.91951,-6.91357 20.91951,-1.72423 0,1.6984 -0.54697,1.82782 -5.34297,1.26414 -6.80245,-0.79949 -9.90331,0.65079 -9.46696,4.42775 0.2688,2.32669 1.17259,2.97701 6.80993,4.90003 7.25348,2.47431 10,5.07231 10,9.45924 0,6.6246 -4.60758,9.88934 -13.70034,9.70747 -3.18981,-0.0638 -6.54885,-0.31442 -7.46452,-0.55693 z m 38.56112,-0.75644 c -4.68405,-2.03901 -7.5169,-6.73154 -8.06757,-13.36365 -1.11007,-13.36955 10.04782,-21.83694 22.12565,-16.79051 4.39359,1.83576 6.86539,5.70989 6.96554,10.91727 l 0.0801,4.16626 -11.25,0.28275 -11.25,0.28275 0,3.04417 c 0,2.0524 0.9822,4.02637 3.01477,6.05895 2.75382,2.75382 3.46791,2.97523 8.25,2.558 2.87938,-0.25122 6.24773,-0.79497 7.48523,-1.20832 3.42768,-1.14494 3.12395,3.19893 -0.3151,4.50645 -3.6645,1.39324 -13.39033,1.13402 -17.03864,-0.45412 z m 15.27208,-20.14871 c 1.1071,-2.88507 -2.95562,-6.89083 -7.32252,-7.21985 -4.44205,-0.33469 -9.34582,2.65813 -9.34582,5.70384 0,2.78267 0.87547,3.09409 8.69805,3.09409 5.78589,0 7.49454,-0.33831 7.97029,-1.57808 z m 46.40274,19.82653 c -5.05564,-2.57794 -7.16108,-6.0791 -7.7246,-12.84535 -0.92813,-11.1441 5.44354,-18.4031 16.15352,-18.4031 10.24654,0 15.49562,5.59357 15.49845,16.5156 0.002,7.33209 -2.29567,12.10193 -7.06011,14.65713 -4.35536,2.33581 -12.36444,2.37176 -16.86726,0.0757 z M 557.89,678.27522 c 2.94813,-2.53588 4.17692,-8.29425 3.05083,-14.29683 -1.55886,-8.30944 -9.90241,-11.25994 -15.63382,-5.52853 -2.63119,2.63118 -2.92308,3.57218 -2.92308,9.42327 0,5.53411 0.38477,6.95748 2.58889,9.57692 3.29243,3.91283 8.91034,4.27171 12.91718,0.82517 z m 27.75016,4.6069 c -9.89322,-4.87716 -10.50502,-21.61603 -1.0477,-28.6651 3.22588,-2.40442 12.50017,-3.45169 15.64806,-1.76699 2.67415,1.43116 3.0326,5.63473 0.39341,4.61371 -4.13392,-1.59929 -7.16076,-1.63447 -10.09457,-0.11733 -3.99533,2.06606 -6.15543,6.28242 -6.15543,12.01493 0,3.58702 0.60385,5.20971 2.89143,7.76996 2.44485,2.73626 3.56461,3.22784 7.25,3.18277 2.39721,-0.0293 5.37107,-0.40593 6.60857,-0.83693 1.87681,-0.65365 2.25,-0.42845 2.25,1.35776 0,4.06812 -11.29566,5.62602 -17.74377,2.44722 z m 33.72817,-0.17933 c -4.01308,-2.10074 -7.9844,-8.93416 -7.9844,-13.73868 0,-10.26191 6.89637,-17.43733 16.75921,-17.43733 5.49462,0 8.89249,1.85932 7.93895,4.34421 -0.51555,1.34348 -1.11942,1.44613 -3.40208,0.57826 -4.10721,-1.56156 -8.81534,-0.28251 -11.7358,3.18826 -2.05627,2.44374 -2.56028,4.10722 -2.56028,8.45022 0,4.54127 0.45981,5.92211 2.87039,8.62002 2.29044,2.56345 3.65425,3.21536 6.75,3.22656 2.13379,0.008 5.11711,-0.3546 6.62961,-0.80516 2.17046,-0.64655 2.75,-0.49217 2.75,0.73252 0,4.50043 -11.40876,6.29963 -18.0156,2.84112 z m 28.7101,1.13118 c -0.27183,-0.44396 -0.65046,-7.55719 -0.84141,-15.80719 l -0.34719,-15 3.27278,-0.31528 3.27277,-0.31527 -0.27573,15.81527 c -0.26734,15.33468 -0.34123,15.82461 -2.43136,16.12247 -1.1856,0.16895 -2.37804,-0.056 -2.64986,-0.5 z m 24.39031,-1.00181 c -5.10547,-2.69891 -7.28107,-7.47837 -6.84828,-15.04461 0.57707,-10.0886 5.88306,-15.09689 17.13556,-16.17413 l 6.12791,-0.58664 0.5,-7.5 c 0.48728,-7.30926 0.57039,-7.50809 3.26793,-7.81815 l 2.76794,-0.31816 -0.26794,24.31816 -0.26793,24.31815 -3,-0.23829 c -4.31308,-0.34258 -4.45187,-0.33884 -10.5,0.2833 -4.1943,0.43144 -6.31077,0.13715 -8.91519,-1.23963 z m 15.16519,-5.1014 c 1.44522,-1.25028 1.75,-3.22527 1.75,-11.33992 l 0,-9.82596 -2.68599,-0.67414 c -3.75577,-0.94263 -10.21843,1.5764 -12.72342,4.95937 -2.82415,3.814 -2.9205,12.54965 -0.17192,15.5868 3.51347,3.88234 10.12443,4.50076 13.83133,1.29385 z m 27.82108,5.04447 c -5.80098,-2.958 -7.57108,-6.36568 -7.57108,-14.57538 0,-5.96906 0.40262,-7.73758 2.39866,-10.53621 4.09617,-5.74322 12.34328,-7.73392 19.55568,-4.72039 4.38018,1.83016 6.59816,5.30804 6.84663,10.73579 l 0.19903,4.34774 -11.15524,0.28186 c -11.96607,0.30236 -13.18676,0.88719 -11.43147,5.47682 1.70388,4.45521 4.87555,6.24606 10.94058,6.17748 3.10537,-0.0351 6.65863,-0.42509 7.89613,-0.86663 3.43777,-1.22659 3.12852,3.14596 -0.3151,4.45522 -4.15639,1.58026 -13.56746,1.15951 -17.36382,-0.7763 z m 15.0474,-19.49845 c 0.44157,-4.65852 -2.71566,-7.75 -7.91481,-7.75 -4.23787,0 -8.20367,3.22648 -8.20367,6.67431 0,2.24044 0.29323,2.32569 8,2.32569 5.67014,0 8.03451,-0.36404 8.11848,-1.25 z m 19.10379,20.40853 c -0.9648,-0.61226 -1.20971,-4.46579 -1,-15.73468 l 0.27773,-14.92385 2.87182,-0.32818 c 1.5795,-0.1805 3.2948,0.0948 3.81176,0.61176 0.58658,0.58658 2.51444,0.39414 5.12818,-0.5119 5.23403,-1.81434 11.31362,-1.08997 14.08499,1.6782 1.93346,1.93124 2.10325,3.20882 2.10325,15.82548 l 0,13.72464 -2.5,0 c -2.49476,0 -2.50111,-0.0246 -3.0306,-11.75282 -0.44889,-9.94305 -0.83385,-12.04867 -2.5,-13.67409 -3.39586,-3.31286 -8.53983,-3.09357 -12.15142,0.51802 -2.5662,2.5662 -2.58454,2.69477 -1.9087,13.37542 0.59726,9.43886 0.47933,10.86224 -0.94523,11.40889 -2.08974,0.80191 -2.68425,0.77151 -4.24178,-0.21689 z m 44.47442,-1.18247 c -2.62606,-2.06566 -2.69709,-2.4009 -2.712,-12.79864 -0.0159,-11.10472 -0.32599,-12.39579 -3.23469,-13.46898 -2.52659,-0.9322 -2.14997,-3.20517 0.75,-4.52649 1.87025,-0.85214 2.5,-1.90641 2.5,-4.18526 0,-2.34975 0.58645,-3.26916 2.5651,-4.02144 3.53175,-1.34277 3.4349,-1.42242 3.4349,2.82475 0,4.54383 1.40863,6.2 5.27332,6.2 4.34857,0 3.27371,3.34668 -1.28467,4 l -3.48865,0.5 -0.28777,9.87952 c -0.30845,10.58931 0.80785,13.62048 5.01608,13.62048 1.28666,0 1.80913,0.57625 1.5867,1.75 -0.51466,2.71573 -6.77539,2.85561 -10.11832,0.22606 z m 23.60567,1.06659 c -3.22114,-1.377 -5.608,-6.59991 -4.85368,-10.6208 0.96873,-5.16374 5.8327,-8.21066 15.76624,-9.87637 4.67188,-0.78341 5.40269,-1.95394 3.26086,-5.22279 -1.63254,-2.49156 -1.95684,-2.56518 -8.5862,-1.94905 -3.80944,0.35405 -6.88958,0.24487 -6.88958,-0.24421 0,-2.07119 3.47695,-3.4306 9.961,-3.89453 6.69931,-0.47933 7.03518,-0.39257 10.01475,2.587 l 3.08296,3.08297 -0.27935,13.29756 -0.27936,13.29757 -3,-0.23829 c -4.26644,-0.33888 -4.41512,-0.33578 -10.5,0.21897 -3.025,0.27579 -6.48894,0.0787 -7.69764,-0.43803 z m 13.52423,-4.63375 c 1.94562,-1.36276 2.22869,-2.33142 1.97251,-6.75 l -0.2991,-5.1589 -4,0.24604 c -4.99591,0.3073 -8.90001,3.10875 -9.32496,6.69129 -0.67007,5.64903 6.38595,8.65975 11.65155,4.97157 z m 22.48332,4.3411 c -0.52108,-0.69665 -0.90729,-11.43156 -0.87244,-24.25 l 0.0625,-23 3.07,-0.29993 3.07,-0.29994 0.0183,23.79994 c 0.0123,16.05659 -0.33578,24.03896 -1.07,24.53462 -1.62681,1.09822 -3.23027,0.91657 -4.27839,-0.48469 z m 24.70777,-0.88032 c -4.41762,-2.69301 -5.62909,-4.35988 -6.95267,-9.56616 -1.63431,-6.42858 0.2116,-13.46119 4.52805,-17.25108 4.13447,-3.63012 7.03069,-4.46767 13.08809,-3.78491 6.52814,0.73581 10.42994,4.8332 11.08394,11.63957 l 0.48937,5.0929 -11.15862,0 c -12.39918,0 -13.36248,0.52783 -11.06887,6.06512 2.29433,5.53899 9.49993,7.21025 18.8239,4.36599 1.94312,-0.59275 2.28847,-0.39315 1.99114,1.15077 -0.90067,4.67681 -14.46149,6.16663 -20.82433,2.2878 z m 15.81198,-20.20889 c 0.19324,-1.01157 -0.66782,-2.92407 -1.91347,-4.25 -3.24187,-3.45081 -9.15119,-3.33928 -12.46394,0.23523 -4.75745,5.13337 -3.29511,6.51696 6.49195,6.14235 6.38928,-0.24455 7.5875,-0.56784 7.88546,-2.12758 z M 390.74556,641.02678 c -1.02228,-2.664 0.44938,-4.5 3.60699,-4.5 2.53066,0 3.03138,0.39527 3.03138,2.39301 0,3.44871 -5.45866,5.18127 -6.63837,2.10699 z m 256.14121,-0.49105 c -0.89457,-2.81854 0.16139,-4.00895 3.55618,-4.00895 2.43532,0 2.94098,0.41145 2.94098,2.39301 0,3.76882 -5.3885,5.10902 -6.49716,1.61594 z M 588.9145,623.27678 c -0.9935,-3.05381 -1.05802,-45.75768 -0.0694,-45.90919 2.10094,-0.32195 13.1541,-0.97387 16.92785,-0.9984 11.63055,-0.0756 16.97505,16.6793 8.29434,26.0026 -3.22119,3.45964 -7.04164,5.14715 -13.45961,5.94516 l -5.72378,0.71169 -0.30076,6.97142 c -0.17331,4.01738 -0.80892,7.29446 -1.5,7.73376 -1.81176,1.1517 -3.71312,0.94324 -4.16867,-0.45704 z m 16.11235,-20.38484 c 10.2587,-4.86808 8.25844,-22.36516 -2.55678,-22.36516 -2.00262,0 -4.64126,0.70052 -5.86363,1.5567 -2.03898,1.42816 -2.22251,2.36406 -2.22251,11.33334 0,5.37714 0.3,10.07663 0.66667,10.44329 1.20677,1.20678 6.46909,0.69608 9.97625,-0.96817 z m -416.64177,4.93269 c -4.84027,-2.48712 -6.58358,-6.4105 -5.07934,-11.4312 1.34296,-4.48241 6.15364,-7.50406 13.56412,-8.51978 5.3342,-0.73113 7.11211,-2.36091 5.61898,-5.15084 -1.30941,-2.44666 -5.60045,-3.32472 -10.66531,-2.18241 -2.53392,0.57149 -4.29468,0.52512 -4.93872,-0.13006 -2.84326,-2.89247 9.71432,-5.95773 15.96119,-3.89608 5.89821,1.94659 6.53793,3.78158 6.53793,18.75352 l 0,13.296 -5.25,-0.17666 c -2.8875,-0.0972 -6.825,0.14105 -8.75,0.52935 -2.51228,0.50677 -4.4874,0.19865 -6.99885,-1.09184 z m 13.40635,-5.19564 c 1.20359,-1.32995 1.62398,-3.20005 1.40499,-6.25 -0.30062,-4.18683 -0.44549,-4.36256 -3.81249,-4.6247 -5.09444,-0.39663 -10,2.88341 -10,6.68636 0,1.6188 0.70714,3.65042 1.57143,4.5147 2.22708,2.22709 8.70171,2.03208 10.83607,-0.32636 z m 26.92124,5.48643 c -4.99592,-2.24629 -5.74879,-4.66299 -5.79092,-18.58864 l -0.0378,-12.5 3,0 3,0 0,11.64206 c 0,10.04416 0.26147,11.93139 1.90499,13.75 2.95642,3.27139 11.30339,2.49173 13.8297,-1.29176 0.40408,-0.60517 0.74158,-6.3878 0.75,-12.8503 l 0.0153,-11.75 3,0 3,0 0,16.00322 0,16.00323 -5.75,-0.21368 c -3.1625,-0.11752 -7.55,0.1093 -9.75,0.50403 -2.70012,0.48448 -5.03057,0.25434 -7.17126,-0.70816 z m 69.67126,0.29457 c -9.58352,-2.86467 -13.84765,-14.3693 -9.02124,-24.33933 6.31441,-13.04383 25.80559,-10.02611 27.72615,4.2927 l 0.55843,4.16342 -11.00923,0 c -12.54932,0 -13.96193,0.6711 -12.17887,5.78598 2.28012,6.54076 10.10138,8.46695 19.17476,4.72228 1.32141,-0.54536 1.75,-0.23621 1.75,1.26231 0,1.0915 -0.59214,2.47597 -1.31586,3.07661 -1.93197,1.60339 -11.64062,2.24471 -15.68414,1.03603 z m 11.42659,-20.45266 c 2.87162,-2.87162 -2.20201,-8.43055 -7.69455,-8.43055 -4.96088,0 -10.35741,7.77398 -6.48204,9.33772 3.05154,1.23132 12.65247,0.61696 14.17659,-0.90717 z m 89.07341,20.10572 c -14.34621,-5.21614 -13.09373,-27.60659 1.76812,-31.60847 5.81122,-1.5648 12.12488,-0.17682 12.54279,2.75736 0.29546,2.0745 0.0365,2.15459 -5.21383,1.6127 -5.31104,-0.54814 -5.66152,-0.43342 -9.06091,2.96597 -3.03769,3.03769 -3.53617,4.19388 -3.53617,8.20191 0,5.21971 1.21189,8.20625 4.36704,10.76202 2.36582,1.9164 8.12348,2.29664 12.06786,0.79699 2.18141,-0.82937 2.5651,-0.69811 2.5651,0.87756 0,1.01904 -0.5625,2.31579 -1.25,2.88166 -2.28172,1.87805 -10.02892,2.28705 -14.25,0.7523 z m 33.8516,0.42687 c -4.36481,-1.34154 -9.00368,-6.94437 -9.83794,-11.88226 -1.7133,-10.14096 2.76798,-17.98938 11.46249,-20.07516 12.20512,-2.92796 20.01637,3.31369 20.01637,15.99428 0,7.11666 -1.96874,11.62786 -6.3183,14.4778 -3.02168,1.97988 -11.14995,2.76782 -15.32262,1.48534 z m 10.58964,-4.43276 c 3.17598,-1.64236 5.05876,-5.93377 5.05876,-11.53038 0,-5.59661 -1.88278,-9.88802 -5.05876,-11.53038 -3.55341,-1.83754 -5.31183,-1.84646 -8.79621,-0.0446 -3.60285,1.86311 -5.15323,5.46538 -5.10959,11.87205 0.0402,5.90439 1.60098,9.38215 5.07463,11.30744 3.13343,1.73673 5.36563,1.718 8.83117,-0.0741 z m 53.55876,4.58839 c -9.91322,-2.54927 -14.10637,-10.25419 -11.49792,-21.12744 3.9904,-16.63386 28.99792,-14.98686 28.99792,1.9098 l 0,3.09887 -9.91821,0 c -5.45502,0 -10.63002,0.27314 -11.5,0.60699 -2.39029,0.91724 -1.93967,5.70817 0.77694,8.2603 4.34292,4.07996 9.61106,4.58829 16.89127,1.62987 1.31768,-0.53546 1.75,-0.22088 1.75,1.27341 0,1.0915 -0.57375,2.46071 -1.275,3.04269 -1.73856,1.44288 -10.54716,2.2513 -14.225,1.30551 z m 10.05887,-20.56231 c 1.80023,-1.33877 1.83,-1.6463 0.4102,-4.2368 -2.77959,-5.07147 -9.73872,-5.63004 -13.94139,-1.11899 -2.28379,2.45136 -2.65486,5.37959 -0.77768,6.13705 2.80805,1.13307 12.442,0.60706 14.30887,-0.78126 z m 44.59848,20.50762 c -4.17283,-1.06033 -5.60853,-2.44595 -4.77769,-4.61106 0.49174,-1.28146 1.2964,-1.5098 3.38278,-0.95994 1.50566,0.39681 5.30648,0.93723 8.44627,1.20093 5.11608,0.42969 5.97254,0.21565 8.25,-2.06182 1.39771,-1.3977 2.54129,-3.40105 2.54129,-4.45188 0,-3.17171 -3.62194,-6.76798 -8.70099,-8.63934 -11.44462,-4.21672 -15.72686,-9.68452 -13.31295,-16.99872 1.78373,-5.40478 6.87093,-8.00657 15.50668,-7.93071 6.4888,0.057 11.5289,1.44888 11.49195,3.17364 -0.0557,2.59902 -1.87389,3.4491 -5.02653,2.35008 -7.6535,-2.66802 -15.95816,0.0809 -15.95816,5.28233 0,3.0791 2.1632,4.81098 11.06711,8.86044 4.16191,1.89282 8.54941,4.69028 9.75,6.21659 4.09267,5.20298 2.14948,13.32176 -4.06749,16.99421 -3.38843,2.0016 -13.5322,2.86104 -18.59227,1.57525 z m 88.32173,0.0616 c -10.00163,-2.58023 -14.50734,-14.23863 -9.50032,-24.58176 6.31441,-13.04383 25.80559,-10.02611 27.72615,4.2927 l 0.55843,4.16338 -10.44054,0 c -12.48166,0 -14.45767,0.88038 -12.7797,5.6938 2.31261,6.63394 10.08042,8.58104 19.2069,4.81446 2.57844,-1.06414 2.32,3.11632 -0.27863,4.50706 -2.72417,1.45794 -10.75877,2.0735 -14.49229,1.11032 z m 10.49646,-20.11255 c 3.97304,-2.12635 -1.49465,-9.01313 -7.15585,-9.01313 -5.03998,0 -10.49523,7.75373 -6.56969,9.33772 2.25631,0.91044 11.84139,0.68374 13.72554,-0.32463 z m 29.29951,20.04646 c -7.87215,-1.94477 -11.70014,-7.26806 -11.63634,-16.18178 0.0467,-6.51844 2.88232,-12.0616 7.35286,-14.37341 6.60142,-3.41373 16.2374,-2.71271 16.81624,1.22337 0.28843,1.96127 -0.058,2.06485 -5.5,1.64451 -6.15309,-0.47527 -7.51179,0.11418 -10.6037,4.60027 -2.31326,3.35632 -2.19973,10.70242 0.2269,14.68206 2.24098,3.67519 6.11933,4.86489 12.66122,3.88387 3.57359,-0.53589 4.40777,-0.37217 4.40777,0.8651 0,3.00164 -7.87862,5.10032 -13.72495,3.65601 z m 47.05369,-0.47091 c -3.90921,-1.75772 -5.32874,-4.27085 -5.32874,-9.43404 0,-5.08376 3.70141,-8.43349 11.19152,-10.12818 8.47524,-1.9176 8.80848,-2.06784 8.80848,-3.9714 0,-3.93777 -5.42441,-5.51191 -12.75,-3.7 -2.85476,0.70609 -3.25,0.55958 -3.25,-1.20471 0,-1.63235 1.04215,-2.2249 5.56404,-3.16365 6.88854,-1.43005 12.09764,-0.34565 14.54483,3.02786 1.47875,2.0385 1.82552,4.64334 1.92837,14.48544 0.069,6.6 0.0888,12.57669 0.0441,13.28153 -0.056,0.88202 -1.56212,1.21717 -4.83132,1.07509 -2.6125,-0.11354 -6.55,0.10053 -8.75,0.47572 -2.65035,0.452 -5.07003,0.20106 -7.17126,-0.7437 z m 12.737,-4.62382 c 1.5501,-0.82959 1.93426,-2.12056 1.93426,-6.5 0,-5.34179 -0.0642,-5.46482 -2.85078,-5.46482 -8.80877,0 -14.03693,6.15164 -9.49423,11.17126 1.83816,2.03115 7.31783,2.44884 10.41075,0.79356 z m 63.18207,5.32916 c -2.51895,-0.48502 -4.82951,-3.81643 -3.30181,-4.76061 0.52327,-0.3234 2.89734,-0.098 5.2757,0.50087 5.00738,1.26087 9.06699,0.16337 10.70298,-2.89351 1.50969,-2.82087 -1.25592,-5.57088 -7.662,-7.61877 -9.00022,-2.87719 -11.78073,-9.15775 -6.42526,-14.51323 4.99352,-4.99352 18.28686,-5.05095 19.00043,-0.0821 0.29297,2.04012 0.0273,2.26443 -2,1.6889 -8.19255,-2.32577 -12.83785,-1.33531 -12.83785,2.73723 0,2.97267 1.17617,3.92272 7.43977,6.00944 6.48932,2.16192 9.56023,5.10979 9.56023,9.17722 0,7.60723 -8.66929,11.88852 -19.75219,9.75452 z m 39.52285,-0.43726 c -11.05006,-3.09819 -14.47816,-19.38451 -5.88831,-27.97437 8.85321,-8.85321 24.12107,-4.00557 24.49559,7.7775 l 0.12206,3.84011 -10.70461,0.5 c -5.88754,0.275 -11.19176,0.98922 -11.78716,1.58716 -1.39937,1.40533 0.10716,5.51079 3.01704,8.22175 3.66481,3.4143 8.96325,3.63906 16.22473,0.68825 1.31768,-0.53546 1.75,-0.22088 1.75,1.27341 0,1.0915 -0.59214,2.47597 -1.31586,3.07661 -1.93155,1.60304 -11.60738,2.21687 -15.91348,1.00954 z m 11.61216,-20.14737 c 1.50279,-1.09887 1.58621,-1.68322 0.56141,-3.93242 -2.36602,-5.19283 -11.2066,-6.09583 -14.44299,-1.47524 -1.827,2.60841 -1.94128,5.35408 -0.25124,6.03603 2.60121,1.04961 12.43605,0.61233 14.13282,-0.62837 z m 28.89223,20.31971 c -7.8134,-1.85638 -11.61994,-7.17547 -11.53845,-16.1233 0.0612,-6.72394 2.21091,-11.29296 6.56195,-13.94707 10.2655,-6.26195 22.70145,-0.68026 22.70145,10.18915 l 0,3.85212 -9.91821,0 c -11.52759,0 -13.08179,0.41251 -13.08179,3.47213 0,3.39898 3.64946,7.35765 7.80362,8.46481 3.44697,0.91868 9.45438,0.25771 12.00933,-1.32134 1.39209,-0.86035 2.34673,0.80471 1.5908,2.77463 -1.12188,2.92356 -9.29918,4.26146 -16.1287,2.63883 z m 10.14316,-19.63605 c 4.22101,-1.61979 -0.94121,-9.39305 -6.2379,-9.39305 -5.24254,0 -11.39997,6.97886 -8.03732,9.10953 1.55603,0.98595 11.90887,1.19154 14.27522,0.28348 z m -757.70563,18.98619 c -0.39192,-0.39191 -0.71258,-10.079 -0.71258,-21.52685 l 0,-20.81429 2.57322,-0.64583 c 1.41526,-0.35521 2.96934,-0.24971 3.45349,0.23444 0.48416,0.48416 1.01371,4.47871 1.17679,8.87679 l 0.2965,7.9965 11,0 11,0 0.5,-8.5 c 0.49342,-8.38821 0.53617,-8.50416 3.25,-8.81642 l 2.75,-0.31642 0.19444,18.56642 c 0.10695,10.21153 0.21945,20.02892 0.25,21.81642 0.0504,2.9494 -0.24504,3.27898 -3.19444,3.56336 l -3.25,0.31336 0,-10.02818 c 0,-12.00702 -0.0888,-12.09854 -11.74313,-12.09854 -10.81494,0 -11.14323,0.34312 -11.48133,12 -0.27098,9.34265 -0.31757,9.5049 -2.81296,9.79591 -1.39559,0.16275 -2.85809,-0.0247 -3.25,-0.41667 z m 132.78742,-0.75263 c -1.77256,-1.29515 -2.03795,-2.83539 -2.33375,-13.54397 -0.24986,-9.04566 -0.65895,-12.08264 -1.62755,-12.08264 -1.79337,0 -3.57097,-2.34702 -2.7315,-3.60648 0.38104,-0.57167 1.4803,-1.32996 2.4428,-1.68508 1.11763,-0.41235 1.75,-1.69683 1.75,-3.55461 0,-3.31973 2.06471,-5.49231 4.70196,-4.94762 1.33218,0.27515 1.73625,1.17412 1.55954,3.46968 -0.26647,3.46179 1.03456,4.96594 4.7385,5.47829 1.40186,0.19392 2.5,1.0047 2.5,1.84582 0,0.8478 -1.087,1.63946 -2.5,1.82074 -3.95265,0.50711 -5.00129,2.84575 -4.98635,11.12039 0.0185,10.2319 0.58147,11.89677 4.35344,12.87419 1.7231,0.4465 3.13291,1.45821 3.13291,2.24825 0,2.04904 -8.37926,2.47793 -11,0.56304 z m 84.16667,0.70672 c -0.36667,-0.36666 -0.66667,-9.99352 -0.66667,-21.39301 0,-17.97722 0.20981,-20.80685 1.58179,-21.33333 2.52165,-0.96765 25.24166,-0.70167 25.86244,0.30277 0.30924,0.50036 0.29371,1.60958 -0.0345,2.46491 -0.47164,1.22907 -2.6216,1.61494 -10.25325,1.84025 l -9.65648,0.28508 0,6.5 0,6.5 8.79659,0.28961 c 6.86511,0.22602 8.92813,0.63243 9.39571,1.85093 0.95887,2.49875 -1.62985,3.32779 -10.4423,3.34415 l -8.25,0.0153 0,7.48095 c 0,7.20791 0.0942,7.50458 2.58049,8.12861 1.41926,0.35621 5.65676,0.42755 9.41667,0.15853 7.41628,-0.53063 9.63509,0.14191 8.67994,2.63099 -0.51923,1.3531 -2.60578,1.60092 -13.47905,1.60092 -7.07559,0 -13.16472,-0.3 -13.53138,-0.66667 z m 114.33333,-23.31428 0,-23.98095 2.54657,-0.63914 c 1.40061,-0.35154 2.78591,-0.39982 3.07843,-0.10729 0.39121,0.39121 0.73173,39.6117 0.41422,47.70833 -0.0216,0.55 -1.38922,1 -3.03922,1 l -3,0 0,-23.98095 z m 237,8.58794 c 0,-13.11392 0.2342,-15.48288 1.58179,-16 4.33867,-1.66491 4.41821,-1.38779 4.41821,15.39301 l 0,16 -3,0 -3,0 0,-15.39301 z m 57.78586,-7.85699 c -0.15722,-12.7875 0.10674,-23.8125 0.58658,-24.5 0.47985,-0.6875 1.94235,-1.25 3.25,-1.25 l 2.37756,0 0,24.5 0,24.5 -2.96414,0 -2.96414,0 -0.28586,-23.25 z m 20.16543,22.56642 c -0.45235,-7.58141 -0.16156,-29.16718 0.40528,-30.08435 0.41881,-0.67764 1.87133,-1.23207 3.22784,-1.23207 l 2.46638,0 -0.2754,15.75 -0.27539,15.75 -2.75,0.31642 c -1.5125,0.17403 -2.77192,-0.051 -2.79871,-0.5 z m 63.13227,-36.26477 c -0.95005,-0.58717 -0.8133,-1.66197 0.59257,-4.65748 1.37934,-2.93898 2.50172,-3.97178 4.57575,-4.21059 3.30498,-0.38054 3.47894,0.89786 0.72788,5.34916 -2.23023,3.6086 -4.02141,4.67759 -5.8962,3.51891 z m -203.54682,-2.30165 c 1.27938,-4.28674 3.46395,-6.75 5.98631,-6.75 3.02126,0 3.10846,1.24212 0.39539,5.63197 -1.46013,2.36253 -2.82368,3.36803 -4.56739,3.36803 -2.11019,0 -2.38435,-0.34 -1.81431,-2.25 z m 62.64684,-5.5 c 0.23179,-2.01451 0.94903,-2.83951 2.68176,-3.08466 3.0386,-0.42993 4.51197,1.07051 3.66661,3.734 -0.48213,1.51904 -1.49708,2.10066 -3.66576,2.10066 -2.68172,0 -2.96556,-0.29097 -2.68261,-2.75 z m 77.529,2.12924 c -0.39192,-0.39191 -0.71258,-1.48943 -0.71258,-2.43892 0,-1.84302 1.92126,-2.94032 5.14821,-2.94032 1.5751,0 1.91934,0.56747 1.66821,2.75 -0.24111,2.09552 -0.92031,2.82042 -2.85384,3.04591 -1.39559,0.16275 -2.85809,-0.0247 -3.25,-0.41667 z m 158.19654,-38.87023 c -5.94401,-1.91199 -12.7746,-7.97608 -15.91855,-14.13224 -2.10836,-4.12837 -2.49057,-6.25792 -2.49057,-13.87677 0,-8.84819 0.095,-9.20241 5.63348,-21 3.09841,-6.6 17.87622,-38.1 32.83958,-70 40.01586,-85.3088 41.50341,-88.46338 50.53131,-107.15855 9.2279,-19.1095 13.8185,-25.15846 21.9956,-28.9832 6.9428,-3.24746 17.0478,-3.24973 24,-0.005 5.4705,2.55286 11.9274,9.03244 14.0405,14.08975 4.2842,10.25359 2.6315,19.22544 -7.471,40.5574 -8.3086,17.54393 -33.0759,70.00714 -63.0237,133.5 -23.54343,49.91472 -25.4201,53.57887 -30.27119,59.10396 -6.67578,7.60329 -19.91198,11.10676 -29.86546,7.90505 z m 16.59946,-9.37399 c 4.59764,-2.08867 9.51173,-7.3023 12.64221,-13.41282 7.29883,-14.24693 90.57578,-191.39921 92.47648,-196.7222 3.7892,-10.61145 2.7377,-17.63496 -3.5867,-23.95945 -7.4846,-7.48455 -18.3879,-7.44869 -26.5636,0.0874 -5.4638,5.03638 -12.5636,18.9475 -39.48818,77.37208 -1.52078,3.3 -6.69411,14.325 -11.49628,24.5 -15.35746,32.53988 -25.6151,54.34696 -28.22286,60 -1.39545,3.025 -6.822,14.5 -12.05901,25.5 -8.37903,17.5996 -9.57561,20.79054 -9.96986,26.58672 -0.35675,5.24482 -0.0393,7.38398 1.55828,10.5 5.06807,9.88523 15.28082,13.83166 24.70952,9.5483 z m 65.31199,9.52815 c -8.1832,-2.30512 -15.3269,-9.17825 -18.301,-17.60757 -1.8943,-5.36905 -1.9633,-15.55746 -0.1401,-20.67987 0.7587,-2.13165 10.4901,-23.22573 21.6253,-46.87573 11.1352,-23.65 21.0415,-44.8 22.0139,-47 0.9724,-2.2 4.3377,-9.4 7.4784,-16 3.1408,-6.6 10.2081,-21.675 15.7053,-33.5 19.6101,-42.18365 29.3706,-61.31138 33.8797,-66.39418 5.9374,-6.69294 12.4018,-9.58628 21.4179,-9.58628 18.4348,0 30.877,15.3574 27.5055,33.95009 -1.1406,6.29004 -4.2697,13.21237 -42.5044,94.03037 -9.7577,20.625 -22.8045,48.3 -28.993,61.5 -20.5392,43.81015 -25.1454,52.95547 -29.2876,58.14862 -7.1626,8.97977 -19.567,13.06612 -30.3999,10.01455 z m 16.2098,-9.91317 c 6.4064,-3.23617 10.6338,-9.54332 20.5658,-30.68317 4.7977,-10.21176 14.8958,-31.61683 22.4402,-47.56683 51.3899,-108.64623 62.1156,-131.92339 63.1413,-137.0308 1.8433,-9.17823 -1.7641,-17.72334 -9.0119,-21.34749 -8.649,-4.32475 -15.7665,-3.37451 -22.7178,3.03302 -4.6954,4.32807 -9.6428,13.32413 -22.4629,40.84527 -8.5482,18.35056 -30.004,64.02432 -58.0158,123.5 -21.145,44.89614 -22.2368,47.93011 -20.5271,57.04342 0.8479,4.51977 7.6385,12.12462 11.9405,13.37219 5.3305,1.54585 10.0185,1.1728 14.6477,-1.16561 z M 301.01959,499.50249 c -32.70311,-3.74806 -55.73484,-20.72501 -64.17536,-47.30437 -3.49751,-11.01372 -4.84476,-26.05159 -3.47129,-38.74616 3.42452,-31.65192 20.16503,-52.60078 49.51099,-61.9574 10.68262,-3.40603 33.7662,-3.95144 45.79476,-1.08202 13.18829,3.14608 19.08897,6.33562 27.80848,15.03156 13.05091,13.01562 18.51605,28.02374 19.59397,53.80806 0.48722,11.65446 0.34242,14.32073 -0.80125,14.75301 -0.76778,0.2902 -21.79451,0.92232 -46.72606,1.40472 -29.33159,0.56754 -45.70278,1.24977 -46.38603,1.93302 -0.74124,0.74124 -0.54162,2.63962 0.6698,6.3699 4.38161,13.49218 15.50655,21.6014 32.71762,23.84862 14.4422,1.88569 30.36215,-0.8863 47.19257,-8.2172 3.77513,-1.64435 7.23437,-2.61346 7.68721,-2.15359 0.45284,0.45988 0.36571,7.58614 -0.19362,15.83614 -0.86913,12.8194 -1.29833,15.24315 -2.95241,16.6726 -2.36391,2.04288 -18.20305,7.32815 -26.40504,8.81094 -8.3967,1.518 -30.48056,2.06763 -39.86434,0.99217 z m 28.25323,-93.78176 c 0.21389,-0.10667 0.15131,-2.81403 -0.13907,-6.01634 -1.57151,-17.33091 -17.18689,-26.91533 -32.24982,-19.79432 -6.05382,2.86195 -9.72734,6.61183 -12.40138,12.65919 -2.5304,5.72249 -3.75392,12.93342 -2.34313,13.80944 0.87883,0.54571 45.98238,-0.0839 47.1334,-0.65797 z m 119.11111,94.20516 c -14.68887,-1.77826 -34.69687,-7.124 -36.98567,-9.88185 -1.47502,-1.77728 0.16999,-31.10158 1.8383,-32.76989 0.69845,-0.69845 2.7672,0.13334 6.5094,2.61727 10.69105,7.09631 25.63263,11.64 38.13797,11.59763 16.47291,-0.0558 26.61966,-9.6941 20.59928,-19.56704 -2.70176,-4.43068 -6.78751,-6.62808 -23.14375,-12.44719 -7.95054,-2.82859 -17.18992,-6.47237 -20.53195,-8.09729 -13.13427,-6.38598 -21.26516,-16.95098 -23.51086,-30.54925 -3.7683,-22.81788 10.79042,-42.63813 36.58728,-49.80998 8.07052,-2.2437 37.39672,-3.17536 48.56215,-1.54276 10.95948,1.60249 23.08275,4.76757 24.78624,6.47106 1.15471,1.15471 1.19134,3.41707 0.22229,13.73133 -1.45362,15.4719 -1.75181,16.84885 -3.64878,16.84885 -0.84699,0 -5.33173,-1.83531 -9.96608,-4.07846 -22.61337,-10.9455 -47.45582,-7.64425 -47.45582,6.30629 0,5.90235 4.58926,8.86327 24.5,15.80704 21.36364,7.45045 26.87097,10.30741 34.59176,17.94468 5.56379,5.50359 6.94553,7.58655 8.86023,13.35668 2.9919,9.01639 2.58802,24.03073 -0.88717,32.9808 -5.31024,13.67609 -20.75899,24.70148 -40.28755,28.75225 -8.95279,1.85706 -31.49493,3.21145 -38.77727,2.32983 z m 210.82126,-2.83421 c -9.72244,-1.71489 -20.82952,-5.3084 -22.96743,-7.43073 -1.46228,-1.45163 -1.53037,-2.89085 -0.60949,-12.88417 0.73469,-7.9729 1.41181,-11.25 2.32449,-11.25 0.70831,0 3.90758,1.54507 7.1095,3.43348 11.27493,6.64969 17.08299,8.05473 33.32167,8.06096 13.30545,0.005 14.87072,-0.18886 19,-2.35446 18.46482,-9.68385 18.43319,-26.31441 -0.0656,-34.49149 -3.06109,-1.3531 -12.28609,-4.58297 -20.5,-7.1775 -25.08281,-7.92289 -33.87351,-13.52106 -39.64239,-25.24541 -3.02995,-6.15788 -3.29056,-7.4481 -3.27393,-16.20803 0.0156,-8.19211 0.38991,-10.31633 2.68817,-15.25334 5.56751,-11.95988 18.68342,-20.89982 35.6705,-24.3134 12.55029,-2.52199 36.15804,-1.61917 49.48579,1.89247 5.42439,1.42923 10.53997,3.16084 11.36796,3.84801 1.21147,1.00543 1.37825,2.7197 0.85409,8.77906 -0.93394,10.7963 -1.63802,14.02965 -3.05505,14.02965 -0.68633,0 -4.67186,-1.58198 -8.85673,-3.51551 -15.77447,-7.28825 -35.80218,-8.59142 -47.09853,-3.06463 -3.03952,1.4871 -6.43565,3.85973 -7.54695,5.27252 -2.92654,3.7205 -4.19151,9.24837 -3.03729,13.2729 2.17526,7.58469 7.99239,10.92284 30.54997,17.53104 19.45755,5.70006 29.21397,10.21202 36.03849,16.66636 12.5505,11.86974 14.96189,31.82086 5.74659,47.54558 -5.51741,9.41473 -17.9827,17.94934 -31.82509,21.78968 -8.20411,2.27609 -35.24301,2.90766 -45.67874,1.06696 z m 165.48653,0.36882 c -26.9739,-4.17939 -45.36061,-19.97581 -53.46593,-45.93372 -2.11934,-6.78736 -2.34186,-9.35285 -2.34186,-27 0,-17.64715 0.22252,-20.21264 2.34186,-27 7.78692,-24.93822 24.62242,-40.09042 50.4781,-45.43106 9.68396,-2.00028 29.28438,-2.04538 38.58569,-0.0888 19.71804,4.14782 34.26514,14.79832 42.36879,31.01985 11.3402,22.70032 11.34106,60.02077 0.002,81.88745 -4.81801,9.29113 -16.46931,21.17759 -24.94769,25.45121 -10.2698,5.17661 -19.28309,7.21738 -33.82863,7.65942 -7.15,0.21729 -15.7865,-0.0367 -19.19221,-0.56436 z m 32.96165,-22.27712 c 6.07329,-2.97138 13.46696,-10.25942 16.56116,-16.32454 4.45684,-8.73613 5.6265,-15.84752 5.5646,-33.83206 -0.049,-14.24482 -0.41247,-18.29656 -2.24254,-25 -5.56861,-20.39755 -17.90702,-30.04454 -38.15266,-29.83028 -10.98802,0.11628 -18.1,2.74109 -25.32928,9.34825 -10.71857,9.79616 -14.67072,21.99133 -14.67072,45.26947 0,24.59355 5.25336,38.37913 17.98856,47.20463 7.39695,5.12609 13.29978,6.61212 24.65634,6.20719 8.51969,-0.30377 11.02274,-0.7912 15.62454,-3.04266 z M 26.33521,497.33393 c -0.0268,-0.16893 -0.184643,-34.73215 -0.350771,-76.80715 -0.169376,-42.89758 -0.817943,-85.00695 -1.476542,-95.8671 -0.891816,-14.70586 -0.894999,-19.70386 -0.01322,-20.76634 0.951514,-1.1465 5.87805,-1.35113 27.275261,-1.1329 l 26.113996,0.26634 0.5,36.5 0.5,36.5 33.436286,0.26371 c 19.50525,0.15384 33.82115,-0.12115 34.36002,-0.66002 1.15569,-1.15569 0.92566,-40.05111 -0.3406,-57.59299 -0.84501,-11.7061 -0.77044,-13.13604 0.74369,-14.2607 1.24228,-0.92275 8.30883,-1.25 26.99173,-1.25 13.91988,0 25.32351,0.3375 25.34141,0.75 0.0179,0.4125 0.18543,30.225 0.3723,66.25 0.18687,36.025 0.89942,78.9253 1.58346,95.334 0.70008,16.79355 0.86517,30.18782 0.3777,30.64347 -0.4763,0.44521 -12.791,0.96991 -27.366,1.166 l -26.5,0.35653 0.38051,-42.11033 c 0.31656,-35.03408 0.14852,-42.25383 -1,-42.96436 -1.88176,-1.16412 -48.214517,-1.73659 -59.380506,-0.73368 l -9,0.80837 -0.32023,14 c -0.176126,7.7 0.186382,26.32749 0.805574,41.39443 0.619193,15.06693 0.763296,27.72421 0.32023,28.12728 -0.757321,0.68897 -53.249589,2.44556 -53.354293,1.78544 z m 1138.66639,-0.86429 c -6.4032,-1.59422 -15.3115,-6.90809 -20.0206,-11.94247 -17.1716,-18.35785 -16.7687,-50.78536 0.85,-68.40401 6.3691,-6.36908 11.8603,-9.17622 21.9916,-11.2423 10.176,-2.07517 21.567,-0.57649 31.3866,4.12944 8.3783,4.0152 11.1747,7.26743 11.1747,12.99635 0,8.3208 -7.39,10.08765 -16.886,4.0372 -15.45,-9.84415 -32.1268,-5.60906 -39.3104,9.98293 -1.9277,4.18408 -2.2985,6.63184 -2.2725,15 0.028,8.85057 0.3494,10.65562 2.8008,15.70384 4.5964,9.4658 11.3251,13.80339 21.386,13.78639 10.6162,-0.0179 18.9864,-5.71371 21.4365,-14.58714 1.4798,-5.35961 0.042,-6.40309 -8.8223,-6.40309 -6.5479,0 -7.7124,-0.28937 -9.8776,-2.45455 -2.5971,-2.59716 -3.2439,-7.20193 -1.4756,-10.50601 1.5968,-2.98363 6.6158,-4.03944 19.2024,-4.03944 17.7594,0 20.8187,1.9127 20.8187,13.01588 0,17.35741 -10.1856,33.43208 -24.7533,39.06499 -6.4937,2.51091 -21.0755,3.49362 -27.629,1.86199 z m 66.4084,-1.2493 c -6.052,-2.07931 -6.059,-2.13429 -5.7795,-45.53096 l 0.2534,-39.3374 2.8058,-2.4126 c 2.7581,-2.37163 3.1367,-2.4126 22.2954,-2.4126 19.3594,0 19.5061,0.0164 21.9443,2.45455 3.367,3.36701 3.3138,8.38856 -0.123,11.62114 -2.3999,2.25721 -3.4506,2.44752 -15.2446,2.76107 -8.199,0.21797 -12.9282,0.74708 -13.4072,1.5 -0.9594,1.50796 -0.9638,14.81578 -0.01,16.30426 0.4615,0.71672 5.2511,1.27452 12.88,1.5 13.3625,0.39496 15.6393,1.32525 16.8614,6.88968 0.7056,3.21251 -1.5351,8.38247 -4.0515,9.34812 -0.8903,0.34165 -6.667,0.62118 -12.837,0.62118 -7.3919,0 -11.6275,0.40929 -12.4182,1.2 -1.4881,1.4881 -1.6142,15.15753 -0.1648,17.86574 0.9409,1.75805 2.204,1.93426 13.8651,1.93426 11.4656,0 13.1102,0.22041 15.4648,2.07258 1.9481,1.53235 2.6349,2.98309 2.6349,5.56574 0,4.74437 -1.367,6.94538 -5.1281,8.2565 -4.3202,1.50601 -35.3326,1.34937 -39.8458,-0.20126 z m 55.4284,-1.14811 -2.4545,-2.45454 0,-40.62238 0,-40.62238 2.9231,-2.92307 c 1.6077,-1.6077 3.88,-2.92308 5.0496,-2.92308 5.048,0 8.41,3.53867 27.0241,28.44378 10.4317,13.95724 19.7371,26.14731 20.6789,27.08903 1.6163,1.61628 1.7534,1.6073 2.448,-0.1603 0.4046,-1.02988 0.7817,-12.67251 0.8378,-25.87251 0.073,-17.19295 0.4476,-24.45002 1.3203,-25.58666 3.6039,-4.694 11.0757,-4.81686 14.6749,-0.2413 1.9792,2.51624 2.0433,3.83326 2.0433,42.01248 0,41.41749 -0.2619,44.0508 -4.5448,45.6943 -2.8397,1.08968 -7.8896,0.60705 -9.9552,-0.95145 -1.1,-0.82996 -10.775,-13.07248 -21.5,-27.2056 -10.725,-14.13312 -20.2875,-25.84775 -21.25,-26.0325 -1.6291,-0.31272 -1.75,1.39891 -1.75,24.78286 l 0,25.11878 -2.4545,2.45454 c -1.8061,1.80607 -3.5354,2.45455 -6.5455,2.45455 -3.0101,0 -4.7394,-0.64848 -6.5455,-2.45455 z m 91.8742,1.02819 c -1.7442,-0.77599 -3.6567,-2.31792 -4.25,-3.42652 -0.7189,-1.34336 -1.0787,-15.07085 -1.0787,-41.1583 l 0,-39.14267 2.9815,-2.98153 2.9816,-2.98153 19.985,0.30845 c 22.1717,0.34221 22.6373,0.47889 23.6879,6.95283 0.4554,2.80604 0.067,4.08971 -1.9449,6.43075 -2.4961,2.90428 -2.6077,2.9284 -15.8525,3.42488 l -13.3386,0.5 0,9 0,9 12,0.51102 c 15.4283,0.657 17.5,1.78142 17.5,9.49819 0,2.42327 -0.7264,3.91702 -2.6349,5.41821 -2.3082,1.81569 -4.0187,2.07258 -13.8,2.07258 -7.3506,0 -11.5751,0.40997 -12.3651,1.2 -1.6125,1.61252 -1.6125,16.98748 0,18.6 0.8088,0.80878 5.3879,1.2 14.0455,1.2 12.305,0 12.9487,0.10326 15.3,2.45455 3.1778,3.17785 3.1947,7.57266 0.043,11.23969 l -2.4114,2.80576 -18.8386,0.24226 c -14.4736,0.18612 -19.5735,-0.0847 -22.01,-1.16862 z m 81.9003,0.75707 c -0.6991,-0.28127 -1.973,-1.86871 -2.8308,-3.52764 -3.6801,-7.11644 -30.397,-76.54849 -30.3976,-78.99731 -3e-4,-1.48183 1.0766,-3.9466 2.3933,-5.47727 3.0567,-3.55369 9.4601,-3.91896 12.657,-0.72201 1.1336,1.13357 6.4234,13.71837 11.7551,27.96623 6.2298,16.64777 10.23,26.00741 11.194,26.19124 1.1176,0.21312 4.0019,-6.45101 11.3145,-26.14232 5.6698,-15.26765 10.6656,-27.19859 11.8299,-28.25227 1.248,-1.1295 3.5482,-1.82391 6.0416,-1.82391 5.0048,0 8.8386,3.83007 8.7688,8.76031 -0.058,4.09526 -28.8993,77.18846 -31.6963,80.32857 -1.5567,1.74773 -3.1065,2.34505 -5.9328,2.28672 -2.1041,-0.0434 -4.3977,-0.30907 -5.0967,-0.59034 z m 55.271,-0.23638 c -1.1,-0.47205 -2.9,-1.85805 -4,-3.08001 -1.9052,-2.11641 -2.0147,-3.86413 -2.3109,-36.86803 -0.3561,-39.68022 -0.025,-44.40162 3.3542,-47.78046 2.3259,-2.32592 2.6946,-2.36583 21.8555,-2.36583 18.8039,0 19.5777,0.0792 21.9905,2.25 3.5557,3.19909 3.8416,8.00833 0.7062,11.88041 -1.7834,2.20244 -2.7531,2.38433 -15.25,2.86079 l -13.3455,0.5088 0,9 0,9 12.1903,0.51961 c 11.1209,0.47402 12.4149,0.73056 14.75,2.92431 3.118,2.92923 3.4011,7.79357 0.6515,11.1953 -1.7813,2.20376 -2.7624,2.39404 -14.75,2.86078 l -12.8418,0.5 0,10 0,10 14.3336,0.5 c 16.3294,0.56962 17.1664,0.99228 17.1664,8.66808 0,7.16713 -1.847,7.78851 -23.9525,8.05822 -10.2011,0.12447 -19.4475,-0.15992 -20.5475,-0.63197 z M 574.34395,439.22404 c -7.48033,-3.95569 -10.85628,-13.27478 -7.60002,-20.97938 3.13302,-7.41301 10.83705,-11.53231 19.00262,-10.16059 5.99722,1.00745 12.21079,7.41521 13.12919,13.5395 1.13112,7.54287 -3.30137,15.58849 -10.20969,18.53209 -4.67608,1.99245 -9.36999,1.68712 -14.3221,-0.93162 z m 820.04415,-44.63685 c -11.1778,-4.51808 -13.8411,-7.1511 -12.3814,-12.24079 0.5171,-1.80306 2.051,-3.90084 3.4087,-4.66172 2.2467,-1.25911 3.4367,-1.00348 13.2424,2.84438 11.459,4.49667 14.0688,6.67981 13.0678,10.93155 -0.7619,3.23594 -4.1971,7.08204 -6.266,7.01547 -0.8666,-0.0279 -5.8488,-1.77788 -11.0715,-3.88889 z"
       id="path2991"
       inkscape:connector-curvature="0" />
    <path
       style="fill:#039fce"
       d="m 290.63888,497.44314 c -5.08477,-1.0679 -11.60977,-2.86726 -14.5,-3.99858 -8.6458,-3.38422 -19.31748,-10.61979 -25.11998,-17.03177 -5.92183,-6.54383 -12.81057,-19.14337 -15.24655,-27.88601 -2.44472,-8.77401 -2.96772,-32.64863 -0.95292,-43.5 4.77007,-25.6908 22.57535,-45.49411 47.92755,-53.30578 7.21071,-2.2218 10.01516,-2.51784 24.63695,-2.60071 12.88008,-0.073 17.92603,0.2941 23,1.67327 20.34673,5.53049 33.94277,18.66408 40.95011,39.55723 4.33486,12.92484 6.74078,40.52778 3.74891,43.01082 -0.86232,0.71566 -16.11941,1.28363 -45.25,1.6845 -24.17196,0.33263 -45.0155,0.82398 -46.31897,1.09188 -2.16152,0.44427 -2.3131,0.84263 -1.72351,4.52971 2.26193,14.1453 15.06043,24.72531 32.59346,26.94372 15.21584,1.92522 28.91877,-0.0969 44.96506,-6.63534 4.65578,-1.89711 9.04328,-3.4493 9.75,-3.4493 0.91242,0 1.27708,1.81196 1.25784,6.25 -0.0395,9.11446 -1.70023,24.87733 -2.72942,25.90652 -1.5651,1.5651 -18.49756,6.9865 -26.24348,8.40258 -11.56533,2.11433 -39.28934,1.76318 -50.74505,-0.64274 z m 37.63031,-91.51999 c 1.83598,-0.57973 1.0102,-11.76406 -1.1815,-16.00234 -2.13914,-4.13664 -7.54608,-9.35025 -11.42164,-11.01324 -4.55595,-1.95495 -13.96942,-1.70603 -18.82083,0.49768 -5.55529,2.52345 -12.13013,10.26729 -13.96592,16.44908 -1.59538,5.37223 -1.92904,9.90544 -0.81134,11.02314 0.70871,0.70872 43.75007,-0.18033 46.20123,-0.95432 z m 106.11974,91.51932 c -10.86404,-2.44993 -21.11726,-5.78853 -22.88742,-7.45248 -1.16375,-1.09393 -1.18879,-3.64559 -0.15832,-16.13134 0.67325,-8.15753 1.65512,-15.28165 2.18194,-15.83139 0.63243,-0.65995 2.21501,-0.22232 4.65832,1.28817 13.1339,8.11956 26.23033,12.21135 39.08435,12.21135 13.89561,0 21.87721,-4.70068 22.86521,-13.46623 0.49993,-4.43537 0.3411,-4.7902 -4.0108,-8.96005 -3.26704,-3.13037 -6.44357,-4.96906 -11.38482,-6.58994 -12.93218,-4.24215 -27.85732,-10.14872 -32.88824,-13.01541 -7.06817,-4.02753 -13.88195,-11.08054 -17.16658,-17.76929 -2.57223,-5.23803 -2.79864,-6.62943 -2.79864,-17.19908 0,-8.86386 0.42137,-12.53153 1.83819,-16 3.75731,-9.19812 11.91145,-17.51557 22.43488,-22.88423 15.22623,-7.76784 48.29659,-9.35018 73.22693,-3.50373 8.52444,1.99908 11.74316,3.27626 12.36938,4.90816 0.79506,2.0719 -2.1374,27.64782 -3.30375,28.81417 -0.71398,0.71398 -3.32987,-0.11381 -8.42507,-2.66608 -11.17943,-5.59995 -16.74664,-6.97487 -28.64056,-7.07327 -8.17814,-0.0677 -11.19915,0.29478 -13.6617,1.63907 -7.58312,4.13956 -9.74654,12.13855 -4.5883,16.96466 3.76429,3.52191 6.45891,4.74383 23.75,10.76986 24.75722,8.62801 33.72265,14.64437 39.59344,26.56963 2.59862,5.27855 3.24398,7.97564 3.6618,15.30358 1.3694,24.01738 -9.90747,39.25971 -35.53188,48.02646 -9.15684,3.13279 -17.73661,4.10011 -35.72336,4.02761 -11.95221,-0.0482 -18.14912,-0.54915 -24.495,-1.9802 z M 26.982669,496.79219 c -0.329307,-0.32931 -0.604672,-30.11124 -0.611922,-66.18208 -0.0072,-36.07083 -0.434339,-75.25833 -0.949088,-87.08333 -1.293254,-29.70909 -1.512293,-38.85877 -0.943871,-39.42719 0.268254,-0.26826 12.394377,-0.61938 26.946938,-0.78027 l 26.459203,-0.29254 0.5,36.5 0.5,36.5 33.616651,0.26314 c 29.71078,0.23257 33.76992,0.0785 34.93577,-1.3263 1.09096,-1.31453 1.09594,-7.47328 0.0288,-35.60857 -0.7127,-18.7899 -0.90777,-34.36689 -0.43577,-34.79595 0.47001,-0.42724 12.23069,-1.06061 26.13483,-1.40748 19.81369,-0.4943 25.37411,-0.35975 25.71423,0.62224 0.23868,0.68911 0.65048,33.65292 0.91512,73.25292 0.26464,39.6 0.98647,82.0782 1.60407,94.39599 0.9202,18.35305 0.88493,22.61822 -0.19539,23.62701 -1.86065,1.73747 -51.38841,2.98158 -52.41736,1.3167 -0.39478,-0.63877 -0.61469,-19.73116 -0.48869,-42.42754 0.22426,-40.39612 0.18682,-41.28878 -1.77583,-42.33916 -2.23267,-1.19488 -51.532612,-1.52353 -62.145419,-0.41427 l -6.30239,0.65873 0.645828,35.59127 c 0.355205,19.5752 0.897993,38.06627 1.206195,41.09127 0.308203,3.025 0.200145,5.99603 -0.240128,6.60228 -0.853719,1.17557 -51.588267,2.77662 -52.701757,1.66313 z"
       id="path2989"
       inkscape:connector-curvature="0" />
  </g>
</svg>
