<?xml version="1.0" encoding="UTF-8" standalone="no"?>
<!DOCTYPE svg PUBLIC "-//W3C//DTD SVG 1.1//EN"
 "http://www.w3.org/Graphics/SVG/1.1/DTD/svg11.dtd">
<!-- Generated by graphviz version 2.26.3 (20100126.1600)
 -->
<!-- Title: bernex Pages: 1 -->
<svg width="300pt" height="186pt"
 viewBox="0.00 0.00 300.00 186.00" xmlns="http://www.w3.org/2000/svg" xmlns:xlink="http://www.w3.org/1999/xlink">
<g id="graph1" class="graph" transform="scale(1 1) rotate(0) translate(4 182)">
<title>bernex</title>
<polygon fill="white" stroke="white" points="-4,5 -4,-182 297,-182 297,5 -4,5"/>
<g id="graph2" class="cluster"><title>cluster_oscied_transform</title>
<polygon fill="#dedede" stroke="black" points="8,-8 8,-170 284,-170 284,-8 8,-8"/>
<text text-anchor="middle" x="146" y="-153.4" font-family="Times Roman,serif" font-size="14.00">oscied&#45;transform service</text>
</g>
<!-- oscied_transform -->
<g id="node2" class="node"><title>oscied_transform</title>
<polygon fill="#772953" stroke="#772953" points="276,-136 16,-136 16,-132 12,-132 12,-128 16,-128 16,-102 12,-102 12,-98 16,-98 16,-94 276,-94 276,-136"/>
<polyline fill="none" stroke="#772953" points="16,-132 20,-132 20,-128 16,-128 "/>
<polyline fill="none" stroke="#772953" points="16,-102 20,-102 20,-98 16,-98 "/>
<text text-anchor="start" x="88.5" y="-121.733" font-family="Times Roman,serif" font-size="14.00" fill="#ffffff">oscied&#45;transform</text>
<text text-anchor="start" x="24" y="-104.933" font-family="Times Roman,serif" font-size="14.00" fill="#ffffff">local:precise/oscied&#45;transform&#45;1271</text>
</g>
<!-- oscied_transform/0 -->
<g id="node3" class="node"><title>oscied_transform/0</title>
<polygon fill="#dd4814" stroke="#dd4814" points="219,-58 73,-58 73,-16 219,-16 219,-58"/>
<text text-anchor="start" x="81.5" y="-43.7333" font-family="Times Roman,serif" font-size="14.00" fill="#ffffff">oscied&#45;transform/0</text>
<text text-anchor="start" x="112" y="-26.9333" font-family="Times Roman,serif" font-size="14.00" fill="#ffffff">10.0.3.53</text>
</g>
<!-- oscied_transform&#45;&gt;oscied_transform/0 -->
<g id="edge3" class="edge"><title>oscied_transform&#45;&gt;oscied_transform/0</title>
<path fill="none" stroke="black" d="M146,-93.6862C146,-85.7975 146,-76.684 146,-68.1029"/>
<polygon fill="black" stroke="black" points="149.5,-68.018 146,-58.018 142.5,-68.018 149.5,-68.018"/>
</g>
</g>
</svg>
