<?xml version="1.0" encoding="UTF-8" standalone="no"?>
<!DOCTYPE svg PUBLIC "-//W3C//DTD SVG 1.1//EN"
 "http://www.w3.org/Graphics/SVG/1.1/DTD/svg11.dtd">
<!-- Generated by graphviz version 2.26.3 (20100126.1600)
 -->
<!-- Title: local Pages: 1 -->
<svg width="580pt" height="186pt"
 viewBox="0.00 0.00 580.00 186.00" xmlns="http://www.w3.org/2000/svg" xmlns:xlink="http://www.w3.org/1999/xlink">
<g id="graph1" class="graph" transform="scale(1 1) rotate(0) translate(4 182)">
<title>local</title>
<polygon fill="white" stroke="white" points="-4,5 -4,-182 577,-182 577,5 -4,5"/>
<g id="graph2" class="cluster"><title>cluster_oscied_transform</title>
<polygon fill="#dedede" stroke="black" points="8,-8 8,-170 284,-170 284,-8 8,-8"/>
<text text-anchor="middle" x="146" y="-153.4" font-family="Times Roman,serif" font-size="14.00">oscied&#45;transform service</text>
</g>
<g id="graph3" class="cluster"><title>cluster_oscied_publisher</title>
<polygon fill="#dedede" stroke="black" points="292,-8 292,-170 564,-170 564,-8 292,-8"/>
<text text-anchor="middle" x="428" y="-153.4" font-family="Times Roman,serif" font-size="14.00">oscied&#45;publisher service</text>
</g>
<!-- oscied_transform -->
<g id="node2" class="node"><title>oscied_transform</title>
<polygon fill="#772953" stroke="#772953" points="276,-136 16,-136 16,-132 12,-132 12,-128 16,-128 16,-102 12,-102 12,-98 16,-98 16,-94 276,-94 276,-136"/>
<polyline fill="none" stroke="#772953" points="16,-132 20,-132 20,-128 16,-128 "/>
<polyline fill="none" stroke="#772953" points="16,-102 20,-102 20,-98 16,-98 "/>
<text text-anchor="start" x="88.5" y="-121.733" font-family="Times Roman,serif" font-size="14.00" fill="#ffffff">oscied&#45;transform</text>
<text text-anchor="start" x="24" y="-104.933" font-family="Times Roman,serif" font-size="14.00" fill="#ffffff">local:precise/oscied&#45;transform&#45;1260</text>
</g>
<!-- oscied_transform/0 -->
<g id="node3" class="node"><title>oscied_transform/0</title>
<polygon fill="#dd4814" stroke="#dd4814" points="219,-58 73,-58 73,-16 219,-16 219,-58"/>
<text text-anchor="start" x="81.5" y="-43.7333" font-family="Times Roman,serif" font-size="14.00" fill="#ffffff">oscied&#45;transform/0</text>
<text text-anchor="start" x="107.5" y="-26.9333" font-family="Times Roman,serif" font-size="14.00" fill="#ffffff">10.0.3.190</text>
</g>
<!-- oscied_transform&#45;&gt;oscied_transform/0 -->
<g id="edge3" class="edge"><title>oscied_transform&#45;&gt;oscied_transform/0</title>
<path fill="none" stroke="black" d="M146,-93.6862C146,-85.7975 146,-76.684 146,-68.1029"/>
<polygon fill="black" stroke="black" points="149.5,-68.018 146,-58.018 142.5,-68.018 149.5,-68.018"/>
</g>
<!-- oscied_publisher -->
<g id="node6" class="node"><title>oscied_publisher</title>
<polygon fill="#772953" stroke="#772953" points="556,-136 300,-136 300,-132 296,-132 296,-128 300,-128 300,-102 296,-102 296,-98 300,-98 300,-94 556,-94 556,-136"/>
<polyline fill="none" stroke="#772953" points="300,-132 304,-132 304,-128 300,-128 "/>
<polyline fill="none" stroke="#772953" points="300,-102 304,-102 304,-98 300,-98 "/>
<text text-anchor="start" x="372.5" y="-121.733" font-family="Times Roman,serif" font-size="14.00" fill="#ffffff">oscied&#45;publisher</text>
<text text-anchor="start" x="308.5" y="-104.933" font-family="Times Roman,serif" font-size="14.00" fill="#ffffff">local:precise/oscied&#45;publisher&#45;1260</text>
</g>
<!-- oscied_publisher/0 -->
<g id="node7" class="node"><title>oscied_publisher/0</title>
<polygon fill="#dd4814" stroke="#dd4814" points="498,-58 358,-58 358,-16 498,-16 498,-58"/>
<text text-anchor="start" x="366" y="-43.7333" font-family="Times Roman,serif" font-size="14.00" fill="#ffffff">oscied&#45;publisher/0</text>
<text text-anchor="start" x="394" y="-26.9333" font-family="Times Roman,serif" font-size="14.00" fill="#ffffff">10.0.3.40</text>
</g>
<!-- oscied_publisher&#45;&gt;oscied_publisher/0 -->
<g id="edge6" class="edge"><title>oscied_publisher&#45;&gt;oscied_publisher/0</title>
<path fill="none" stroke="black" d="M428,-93.6862C428,-85.7975 428,-76.684 428,-68.1029"/>
<polygon fill="black" stroke="black" points="431.5,-68.018 428,-58.018 424.5,-68.018 431.5,-68.018"/>
</g>
</g>
</svg>
